RecursiveSans-StrictBlack.ufo
<glyph name="exclam" format="1">
  <advance width="350"/>
  <unicode hex="0021"/>
  <outline>
    <contour>
      <point x="238" y="306" type="line"/>
      <point x="253" y="372"/>
      <point x="268" y="436"/>
      <point x="282" y="502" type="curve"/>
      <point x="282" y="689" type="line" smooth="yes"/>
      <point x="282" y="696"/>
      <point x="277" y="700"/>
      <point x="271" y="700" type="curve" smooth="yes"/>
      <point x="183" y="700"/>
      <point x="116" y="700"/>
      <point x="68" y="700" type="curve"/>
      <point x="68" y="662"/>
      <point x="68" y="627"/>
      <point x="68" y="590" type="curve" smooth="yes"/>
      <point x="68" y="502" type="line"/>
      <point x="108" y="313"/>
      <point x="109" y="312"/>
      <point x="113" y="308" type="curve" smooth="yes"/>
      <point x="115" y="306"/>
      <point x="117" y="306"/>
      <point x="121" y="306" type="curve"/>
    </contour>
    <contour>
      <point x="287" y="-12" type="curve"/>
      <point x="287" y="202" type="line" smooth="yes"/>
      <point x="287" y="208"/>
      <point x="282" y="214"/>
      <point x="276" y="214" type="curve" smooth="yes"/>
      <point x="202" y="214"/>
      <point x="136" y="214"/>
      <point x="63" y="214" type="curve"/>
      <point x="63" y="0" type="line" smooth="yes"/>
      <point x="63" y="-6"/>
      <point x="68" y="-12"/>
      <point x="74" y="-12" type="curve" smooth="yes"/>
      <point x="148" y="-12"/>
      <point x="214" y="-12"/>
    </contour>
  </outline>
</glyph>
<glyph name="numbersign" format="1">
  <advance width="600"/>
  <unicode hex="0023"/>
  <outline>
    <contour>
      <point x="189" y="720" type="curve"/>
      <point x="140" y="474"/>
      <point x="90" y="226"/>
      <point x="41" y="-20" type="curve"/>
      <point x="83" y="-20"/>
      <point x="124" y="-20"/>
      <point x="166" y="-20" type="curve"/>
      <point x="173" y="-20"/>
      <point x="178" y="-19"/>
      <point x="180" y="-9" type="curve" smooth="yes"/>
      <point x="228" y="230"/>
      <point x="277" y="470"/>
      <point x="324" y="709" type="curve" smooth="yes"/>
      <point x="326" y="718"/>
      <point x="322" y="720"/>
      <point x="315" y="720" type="curve" smooth="yes"/>
      <point x="274" y="720"/>
      <point x="230" y="720"/>
    </contour>
    <contour>
      <point x="424" y="720" type="curve"/>
      <point x="374" y="474"/>
      <point x="324" y="226"/>
      <point x="276" y="-20" type="curve"/>
      <point x="314" y="-20"/>
      <point x="361" y="-20"/>
      <point x="400" y="-20" type="curve"/>
      <point x="408" y="-20"/>
      <point x="412" y="-19"/>
      <point x="414" y="-9" type="curve" smooth="yes"/>
      <point x="462" y="230"/>
      <point x="512" y="470"/>
      <point x="558" y="709" type="curve" smooth="yes"/>
      <point x="560" y="718"/>
      <point x="556" y="720"/>
      <point x="550" y="720" type="curve" smooth="yes"/>
      <point x="510" y="720"/>
      <point x="462" y="720"/>
    </contour>
    <contour>
      <point x="586" y="420" type="line"/>
      <point x="586" y="433"/>
      <point x="586" y="536"/>
      <point x="586" y="549" type="curve" smooth="yes"/>
      <point x="586" y="552"/>
      <point x="585" y="555"/>
      <point x="583" y="557" type="curve" smooth="yes"/>
      <point x="581" y="559"/>
      <point x="578" y="560"/>
      <point x="575" y="560" type="curve"/>
      <point x="56" y="560" type="line"/>
      <point x="56" y="547"/>
      <point x="56" y="444"/>
      <point x="56" y="431" type="curve" smooth="yes"/>
      <point x="56" y="425"/>
      <point x="61" y="420"/>
      <point x="67" y="420" type="curve"/>
    </contour>
    <contour>
      <point x="16" y="275" type="line"/>
      <point x="16" y="262"/>
      <point x="16" y="164"/>
      <point x="16" y="151" type="curve" smooth="yes"/>
      <point x="16" y="148"/>
      <point x="17" y="145"/>
      <point x="19" y="143" type="curve" smooth="yes"/>
      <point x="21" y="141"/>
      <point x="24" y="140"/>
      <point x="27" y="140" type="curve"/>
      <point x="546" y="140" type="line"/>
      <point x="546" y="153"/>
      <point x="546" y="251"/>
      <point x="546" y="264" type="curve" smooth="yes"/>
      <point x="546" y="270"/>
      <point x="541" y="275"/>
      <point x="535" y="275" type="curve"/>
    </contour>
  </outline>
</glyph>
<glyph name="quotesingle" format="1">
  <advance width="250"/>
  <unicode hex="0027"/>
  <outline>
    <contour>
      <point x="290" y="450" type="curve"/>
      <point x="313" y="737" type="line" smooth="yes"/>
      <point x="314" y="746"/>
      <point x="309" y="750"/>
      <point x="303" y="750" type="curve" smooth="yes"/>
      <point x="245" y="750"/>
      <point x="182" y="750"/>
      <point x="112" y="750" type="curve"/>
      <point x="115" y="714"/>
      <point x="117" y="683"/>
      <point x="120" y="648" type="curve" smooth="yes"/>
      <point x="135" y="461" type="line" smooth="yes"/>
      <point x="136" y="454"/>
      <point x="141" y="450"/>
      <point x="147" y="450" type="curve" smooth="yes"/>
      <point x="195" y="450"/>
      <point x="241" y="450"/>
    </contour>
  </outline>
</glyph>
<glyph name="parenleft" format="1">
  <advance width="400"/>
  <unicode hex="0028"/>
  <outline>
    <contour>
      <point x="188" y="740" type="curve" smooth="yes"/>
      <point x="89" y="641"/>
      <point x="43" y="536"/>
      <point x="43" y="363" type="curve" smooth="yes"/>
      <point x="43" y="274" type="line" smooth="yes"/>
      <point x="43" y="102"/>
      <point x="89" y="-4"/>
      <point x="188" y="-103" type="curve" smooth="yes"/>
      <point x="196" y="-112"/>
      <point x="202" y="-113"/>
      <point x="210" y="-113" type="curve" smooth="yes"/>
      <point x="277" y="-113"/>
      <point x="336" y="-113"/>
      <point x="405" y="-113" type="curve"/>
      <point x="405" y="-93" type="line"/>
      <point x="277" y="21"/>
      <point x="236" y="118"/>
      <point x="236" y="274" type="curve" smooth="yes"/>
      <point x="236" y="363" type="line" smooth="yes"/>
      <point x="236" y="520"/>
      <point x="277" y="616"/>
      <point x="405" y="730" type="curve"/>
      <point x="405" y="750" type="line"/>
      <point x="336" y="750"/>
      <point x="277" y="750"/>
      <point x="210" y="750" type="curve" smooth="yes"/>
      <point x="202" y="750"/>
      <point x="196" y="748"/>
    </contour>
  </outline>
</glyph>
<glyph name="parenright" format="1">
  <advance width="400"/>
  <unicode hex="0029"/>
  <outline>
    <contour>
      <point x="212" y="-91" type="curve" smooth="yes"/>
      <point x="311" y="8"/>
      <point x="357" y="114"/>
      <point x="357" y="286" type="curve" smooth="yes"/>
      <point x="357" y="375" type="line" smooth="yes"/>
      <point x="357" y="548"/>
      <point x="311" y="653"/>
      <point x="212" y="752" type="curve" smooth="yes"/>
      <point x="204" y="760"/>
      <point x="198" y="762"/>
      <point x="190" y="762" type="curve" smooth="yes"/>
      <point x="123" y="762"/>
      <point x="64" y="762"/>
      <point x="-5" y="762" type="curve"/>
      <point x="-5" y="742" type="line"/>
      <point x="123" y="628"/>
      <point x="164" y="532"/>
      <point x="164" y="375" type="curve" smooth="yes"/>
      <point x="164" y="286" type="line" smooth="yes"/>
      <point x="164" y="130"/>
      <point x="123" y="33"/>
      <point x="-5" y="-81" type="curve"/>
      <point x="-5" y="-101" type="line"/>
      <point x="64" y="-101"/>
      <point x="123" y="-101"/>
      <point x="190" y="-101" type="curve" smooth="yes"/>
      <point x="198" y="-101"/>
      <point x="204" y="-100"/>
    </contour>
  </outline>
</glyph>
<glyph name="asterisk" format="1">
  <advance width="500"/>
  <unicode hex="002A"/>
  <outline>
    <contour>
      <point x="186" y="770" type="curve"/>
      <point x="194" y="736"/>
      <point x="203" y="701"/>
      <point x="212" y="666" type="curve" smooth="yes"/>
      <point x="237" y="563" type="line"/>
      <point x="188" y="364" type="line" smooth="yes"/>
      <point x="186" y="359"/>
      <point x="188" y="356"/>
      <point x="193" y="356" type="curve"/>
      <point x="234" y="356"/>
      <point x="274" y="356"/>
      <point x="314" y="356" type="curve"/>
      <point x="306" y="390"/>
      <point x="298" y="425"/>
      <point x="290" y="459" type="curve" smooth="yes"/>
      <point x="264" y="563" type="line"/>
      <point x="314" y="762" type="line" smooth="yes"/>
      <point x="314" y="768"/>
      <point x="312" y="770"/>
      <point x="308" y="770" type="curve" smooth="yes"/>
      <point x="268" y="770"/>
      <point x="226" y="770"/>
    </contour>
    <contour>
      <point x="398" y="722" type="curve"/>
      <point x="245" y="576" type="line"/>
      <point x="47" y="520" type="line" smooth="yes"/>
      <point x="42" y="518"/>
      <point x="40" y="514"/>
      <point x="44" y="508" type="curve"/>
      <point x="63" y="473"/>
      <point x="84" y="439"/>
      <point x="103" y="405" type="curve"/>
      <point x="257" y="552" type="line"/>
      <point x="452" y="608" type="line" smooth="yes"/>
      <point x="460" y="609"/>
      <point x="462" y="614"/>
      <point x="458" y="620" type="curve" smooth="yes"/>
      <point x="438" y="654"/>
      <point x="418" y="688"/>
    </contour>
    <contour>
      <point x="461" y="516" type="curve"/>
      <point x="257" y="576" type="line"/>
      <point x="110" y="718" type="line" smooth="yes"/>
      <point x="106" y="722"/>
      <point x="102" y="722"/>
      <point x="98" y="716" type="curve"/>
      <point x="78" y="681"/>
      <point x="58" y="648"/>
      <point x="38" y="614" type="curve"/>
      <point x="244" y="552" type="line"/>
      <point x="389" y="410" type="line" smooth="yes"/>
      <point x="394" y="406"/>
      <point x="400" y="407"/>
      <point x="403" y="413" type="curve"/>
      <point x="422" y="447"/>
      <point x="442" y="482"/>
    </contour>
  </outline>
</glyph>
<glyph name="comma" format="1">
  <advance width="350"/>
  <unicode hex="002C"/>
  <outline>
    <contour>
      <point x="191" y="-190" type="curve" smooth="yes"/>
      <point x="196" y="-190"/>
      <point x="199" y="-189"/>
      <point x="201" y="-183" type="curve"/>
      <point x="242" y="-69"/>
      <point x="293" y="70"/>
      <point x="323" y="154" type="curve"/>
      <point x="326" y="162"/>
      <point x="323" y="166"/>
      <point x="315" y="166" type="curve" smooth="yes"/>
      <point x="233" y="166"/>
      <point x="184" y="166"/>
      <point x="88" y="166" type="curve"/>
      <point x="64" y="48"/>
      <point x="40" y="-72"/>
      <point x="16" y="-190" type="curve"/>
      <point x="62" y="-190"/>
      <point x="114" y="-190"/>
    </contour>
  </outline>
</glyph>
<glyph name="period" format="1">
  <advance width="300"/>
  <unicode hex="002E"/>
  <outline>
    <contour>
      <point x="262" y="-12" type="curve"/>
      <point x="262" y="202" type="line" smooth="yes"/>
      <point x="262" y="208"/>
      <point x="257" y="214"/>
      <point x="251" y="214" type="curve" smooth="yes"/>
      <point x="178" y="214"/>
      <point x="112" y="214"/>
      <point x="38" y="214" type="curve"/>
      <point x="38" y="0" type="line" smooth="yes"/>
      <point x="38" y="-6"/>
      <point x="43" y="-12"/>
      <point x="49" y="-12" type="curve" smooth="yes"/>
      <point x="122" y="-12"/>
      <point x="188" y="-12"/>
    </contour>
  </outline>
</glyph>
<glyph name="zero" format="1">
  <advance width="600"/>
  <unicode hex="0030"/>
  <outline>
    <contour>
      <point x="300" y="720" type="curve" smooth="yes"/>
      <point x="155" y="720"/>
      <point x="40" y="624"/>
      <point x="40" y="462" type="curve" smooth="yes"/>
      <point x="40" y="238" type="line" smooth="yes"/>
      <point x="40" y="76"/>
      <point x="154" y="-20"/>
      <point x="300" y="-20" type="curve"/>
      <point x="334" y="-20"/>
      <point x="339" y="-4"/>
      <point x="300" y="145" type="curve"/>
      <point x="254" y="145"/>
      <point x="228" y="174"/>
      <point x="228" y="238" type="curve" smooth="yes"/>
      <point x="228" y="462" type="line" smooth="yes"/>
      <point x="228" y="526"/>
      <point x="254" y="555"/>
      <point x="300" y="555" type="curve" smooth="yes"/>
      <point x="336" y="555"/>
      <point x="371" y="555"/>
      <point x="396" y="555" type="curve"/>
      <point x="396" y="666"/>
      <point x="374" y="720"/>
    </contour>
    <contour>
      <point x="300" y="-20" type="curve" smooth="yes"/>
      <point x="445" y="-20"/>
      <point x="560" y="76"/>
      <point x="560" y="238" type="curve" smooth="yes"/>
      <point x="560" y="462" type="line" smooth="yes"/>
      <point x="560" y="624"/>
      <point x="446" y="720"/>
      <point x="300" y="720" type="curve"/>
      <point x="266" y="720"/>
      <point x="261" y="704"/>
      <point x="300" y="555" type="curve"/>
      <point x="345" y="555"/>
      <point x="372" y="526"/>
      <point x="372" y="462" type="curve" smooth="yes"/>
      <point x="372" y="238" type="line" smooth="yes"/>
      <point x="372" y="174"/>
      <point x="346" y="145"/>
      <point x="293" y="145" type="curve" smooth="yes"/>
      <point x="251" y="145"/>
      <point x="229" y="145"/>
      <point x="204" y="145" type="curve"/>
      <point x="204" y="34"/>
      <point x="226" y="-20"/>
    </contour>
  </outline>
</glyph>
<glyph name="one" format="1">
  <advance width="600"/>
  <unicode hex="0031"/>
  <outline>
    <contour>
      <point x="430" y="81" type="curve"/>
      <point x="430" y="286"/>
      <point x="430" y="494"/>
      <point x="430" y="699" type="curve" smooth="yes"/>
      <point x="430" y="704"/>
      <point x="424" y="710"/>
      <point x="418" y="710" type="curve" smooth="yes"/>
      <point x="243" y="710" type="line"/>
      <point x="243" y="514"/>
      <point x="243" y="313"/>
      <point x="243" y="118" type="curve" smooth="yes"/>
      <point x="243" y="89"/>
      <point x="326" y="81"/>
    </contour>
    <contour>
      <point x="60" y="184" type="line"/>
      <point x="60" y="128"/>
      <point x="60" y="75"/>
      <point x="60" y="11" type="curve" smooth="yes"/>
      <point x="60" y="6"/>
      <point x="62" y="5"/>
      <point x="64" y="3" type="curve" smooth="yes"/>
      <point x="66" y="1"/>
      <point x="67" y="0"/>
      <point x="72" y="0" type="curve" smooth="yes"/>
      <point x="560" y="0" type="line"/>
      <point x="560" y="48"/>
      <point x="560" y="107"/>
      <point x="560" y="172" type="curve" smooth="yes"/>
      <point x="560" y="182"/>
      <point x="558" y="184"/>
      <point x="548" y="184" type="curve" smooth="yes"/>
    </contour>
    <contour>
      <point x="82" y="418" type="curve" smooth="yes"/>
      <point x="86" y="418"/>
      <point x="92" y="421"/>
      <point x="296" y="540" type="curve" smooth="yes"/>
      <point x="351" y="570"/>
      <point x="405" y="604"/>
      <point x="405" y="608" type="curve" smooth="yes"/>
      <point x="406" y="642"/>
      <point x="379" y="710"/>
      <point x="260" y="710" type="curve"/>
      <point x="234" y="710" type="line"/>
      <point x="209" y="696"/>
      <point x="182" y="680"/>
      <point x="157" y="666" type="curve"/>
      <point x="130" y="651"/>
      <point x="102" y="634"/>
      <point x="75" y="619" type="curve"/>
      <point x="75" y="426" type="line" smooth="yes"/>
      <point x="75" y="421"/>
      <point x="78" y="418"/>
    </contour>
  </outline>
</glyph>
<glyph name="two" format="1">
  <advance width="600"/>
  <unicode hex="0032"/>
  <outline>
    <contour>
      <point x="370" y="574" type="curve"/>
      <point x="370" y="547"/>
      <point x="370" y="532"/>
      <point x="370" y="506" type="curve" smooth="yes"/>
      <point x="370" y="482"/>
      <point x="357" y="466"/>
      <point x="252" y="402" type="curve" smooth="yes"/>
      <point x="90" y="305"/>
      <point x="56" y="228"/>
      <point x="56" y="137" type="curve" smooth="yes"/>
      <point x="56" y="122"/>
      <point x="84" y="120"/>
      <point x="237" y="120" type="curve"/>
      <point x="237" y="194"/>
      <point x="254" y="214"/>
      <point x="341" y="267" type="curve" smooth="yes"/>
      <point x="490" y="355"/>
      <point x="544" y="410"/>
      <point x="544" y="505" type="curve" smooth="yes"/>
      <point x="544" y="546" type="line" smooth="yes"/>
      <point x="544" y="578"/>
      <point x="512" y="594"/>
    </contour>
    <contour>
      <point x="558" y="0" type="line"/>
      <point x="558" y="48"/>
      <point x="558" y="100"/>
      <point x="558" y="165" type="curve" smooth="yes"/>
      <point x="558" y="174"/>
      <point x="556" y="176"/>
      <point x="546" y="176" type="curve" smooth="yes"/>
      <point x="208" y="176" type="line" smooth="yes"/>
      <point x="156" y="176"/>
      <point x="108" y="166"/>
      <point x="56" y="137" type="curve"/>
      <point x="56" y="93"/>
      <point x="56" y="71"/>
      <point x="56" y="11" type="curve" smooth="yes"/>
      <point x="56" y="2"/>
      <point x="58" y="0"/>
      <point x="68" y="0" type="curve" smooth="yes"/>
    </contour>
    <contour>
      <point x="302" y="720" type="curve" smooth="yes"/>
      <point x="192" y="720"/>
      <point x="96" y="691"/>
      <point x="82" y="676" type="curve" smooth="yes"/>
      <point x="78" y="673"/>
      <point x="78" y="670"/>
      <point x="78" y="664" type="curve" smooth="yes"/>
      <point x="78" y="598"/>
      <point x="78" y="537"/>
      <point x="78" y="498" type="curve"/>
      <point x="98" y="498" type="line"/>
      <point x="153" y="524"/>
      <point x="220" y="538"/>
      <point x="289" y="538" type="curve" smooth="yes"/>
      <point x="348" y="538"/>
      <point x="370" y="530"/>
      <point x="370" y="512" type="curve" smooth="yes"/>
      <point x="370" y="488"/>
      <point x="370" y="472"/>
      <point x="370" y="460" type="curve"/>
      <point x="498" y="477"/>
      <point x="544" y="521"/>
      <point x="544" y="546" type="curve" smooth="yes"/>
      <point x="544" y="652"/>
      <point x="452" y="720"/>
    </contour>
  </outline>
</glyph>
<glyph name="three" format="1">
  <advance width="600"/>
  <unicode hex="0033"/>
  <outline>
    <contour>
      <point x="266" y="538" type="curve" smooth="yes"/>
      <point x="354" y="538"/>
      <point x="372" y="512"/>
      <point x="372" y="488" type="curve" smooth="yes"/>
      <point x="372" y="464"/>
      <point x="372" y="458"/>
      <point x="372" y="441" type="curve"/>
      <point x="463" y="440"/>
      <point x="551" y="456"/>
      <point x="551" y="526" type="curve" smooth="yes"/>
      <point x="551" y="548" type="line" smooth="yes"/>
      <point x="551" y="666"/>
      <point x="446" y="720"/>
      <point x="276" y="720" type="curve" smooth="yes"/>
      <point x="164" y="720"/>
      <point x="72" y="704"/>
      <point x="62" y="693" type="curve" smooth="yes"/>
      <point x="60" y="691"/>
      <point x="59" y="688"/>
      <point x="59" y="686" type="curve" smooth="yes"/>
      <point x="59" y="622"/>
      <point x="59" y="568"/>
      <point x="59" y="516" type="curve"/>
      <point x="79" y="516" type="line"/>
      <point x="135" y="531"/>
      <point x="187" y="538"/>
    </contour>
    <contour>
      <point x="152" y="339" type="curve" smooth="yes"/>
      <point x="379" y="339"/>
      <point x="551" y="355"/>
      <point x="551" y="526" type="curve" smooth="yes"/>
      <point x="551" y="550"/>
      <point x="452" y="580"/>
      <point x="372" y="580" type="curve"/>
      <point x="372" y="550"/>
      <point x="372" y="519"/>
      <point x="372" y="488" type="curve" smooth="yes"/>
      <point x="372" y="456"/>
      <point x="355" y="436"/>
      <point x="142" y="436" type="curve"/>
      <point x="142" y="408"/>
      <point x="142" y="377"/>
      <point x="142" y="350" type="curve" smooth="yes"/>
      <point x="142" y="344"/>
      <point x="146" y="339"/>
    </contour>
    <contour>
      <point x="152" y="272" type="curve" smooth="yes"/>
      <point x="356" y="272"/>
      <point x="382" y="253"/>
      <point x="382" y="217" type="curve" smooth="yes"/>
      <point x="382" y="189"/>
      <point x="382" y="183"/>
      <point x="382" y="140" type="curve"/>
      <point x="498" y="140"/>
      <point x="561" y="152"/>
      <point x="561" y="210" type="curve" smooth="yes"/>
      <point x="561" y="360"/>
      <point x="374" y="372"/>
      <point x="142" y="372" type="curve"/>
      <point x="142" y="338"/>
      <point x="142" y="311"/>
      <point x="142" y="282" type="curve" smooth="yes"/>
      <point x="142" y="274"/>
      <point x="145" y="272"/>
    </contour>
    <contour>
      <point x="266" y="162" type="curve" smooth="yes"/>
      <point x="174" y="162"/>
      <point x="128" y="168"/>
      <point x="64" y="186" type="curve"/>
      <point x="44" y="186" type="line"/>
      <point x="44" y="132"/>
      <point x="44" y="79"/>
      <point x="44" y="14" type="curve" smooth="yes"/>
      <point x="44" y="12"/>
      <point x="44" y="9"/>
      <point x="46" y="7" type="curve" smooth="yes"/>
      <point x="58" y="-4"/>
      <point x="154" y="-20"/>
      <point x="272" y="-20" type="curve" smooth="yes"/>
      <point x="439" y="-20"/>
      <point x="561" y="36"/>
      <point x="561" y="179" type="curve" smooth="yes"/>
      <point x="561" y="210" type="line" smooth="yes"/>
      <point x="561" y="272"/>
      <point x="480" y="284"/>
      <point x="382" y="282" type="curve"/>
      <point x="382" y="258"/>
      <point x="382" y="248"/>
      <point x="382" y="217" type="curve" smooth="yes"/>
      <point x="382" y="190"/>
      <point x="361" y="162"/>
    </contour>
  </outline>
</glyph>
<glyph name="four" format="1">
  <advance width="600"/>
  <unicode hex="0034"/>
  <outline>
    <contour>
      <point x="184" y="244" type="curve"/>
      <point x="282" y="389"/>
      <point x="378" y="534"/>
      <point x="476" y="680" type="curve"/>
      <point x="476" y="700" type="line"/>
      <point x="359" y="700"/>
      <point x="268" y="700"/>
      <point x="261" y="700" type="curve" smooth="yes"/>
      <point x="256" y="700"/>
      <point x="252" y="699"/>
      <point x="248" y="690" type="curve" smooth="yes"/>
      <point x="182" y="571"/>
      <point x="34" y="300"/>
      <point x="34" y="289" type="curve" smooth="yes"/>
      <point x="34" y="267"/>
      <point x="80" y="254"/>
    </contour>
    <contour>
      <point x="565" y="135" type="line"/>
      <point x="565" y="190"/>
      <point x="565" y="248"/>
      <point x="565" y="303" type="curve" smooth="yes"/>
      <point x="565" y="309"/>
      <point x="560" y="314"/>
      <point x="554" y="314" type="curve" smooth="yes"/>
      <point x="375" y="314" type="line"/>
      <point x="365" y="314"/>
      <point x="202" y="302"/>
      <point x="34" y="289" type="curve"/>
      <point x="34" y="146" type="line" smooth="yes"/>
      <point x="34" y="143"/>
      <point x="36" y="140"/>
      <point x="38" y="138" type="curve" smooth="yes"/>
      <point x="40" y="136"/>
      <point x="42" y="135"/>
      <point x="46" y="135" type="curve" smooth="yes"/>
    </contour>
    <contour>
      <point x="511" y="0" type="curve"/>
      <point x="511" y="26"/>
      <point x="511" y="60"/>
      <point x="511" y="97" type="curve" smooth="yes"/>
      <point x="511" y="396" type="line" smooth="yes"/>
      <point x="511" y="403"/>
      <point x="507" y="407"/>
      <point x="500" y="407" type="curve" smooth="yes"/>
      <point x="375" y="407" type="line"/>
      <point x="358" y="347"/>
      <point x="340" y="277"/>
      <point x="324" y="217" type="curve"/>
      <point x="324" y="11" type="line" smooth="yes"/>
      <point x="324" y="5"/>
      <point x="328" y="0"/>
      <point x="334" y="0" type="curve" smooth="yes"/>
      <point x="393" y="0"/>
      <point x="452" y="0"/>
    </contour>
  </outline>
</glyph>
<glyph name="five" format="1">
  <advance width="600"/>
  <unicode hex="0035"/>
  <outline>
    <contour>
      <point x="161" y="700" type="line"/>
      <point x="161" y="646"/>
      <point x="161" y="594"/>
      <point x="161" y="540" type="curve" smooth="yes"/>
      <point x="161" y="537"/>
      <point x="162" y="534"/>
      <point x="164" y="532" type="curve" smooth="yes"/>
      <point x="166" y="530"/>
      <point x="169" y="529"/>
      <point x="172" y="529" type="curve" smooth="yes"/>
      <point x="528" y="529" type="line"/>
      <point x="528" y="563"/>
      <point x="528" y="625"/>
      <point x="528" y="689" type="curve" smooth="yes"/>
      <point x="528" y="695"/>
      <point x="522" y="700"/>
      <point x="516" y="700" type="curve" smooth="yes"/>
    </contour>
    <contour>
      <point x="242" y="282" type="line"/>
      <point x="291" y="660" type="line" smooth="yes"/>
      <point x="294" y="684"/>
      <point x="261" y="700"/>
      <point x="182" y="700" type="curve" smooth="yes"/>
      <point x="112" y="700" type="line"/>
      <point x="72" y="298" type="line" smooth="yes"/>
      <point x="72" y="288"/>
      <point x="74" y="282"/>
      <point x="84" y="282" type="curve" smooth="yes"/>
    </contour>
    <contour>
      <point x="224" y="371" type="curve"/>
      <point x="199" y="342"/>
      <point x="214" y="291"/>
      <point x="242" y="282" type="curve"/>
      <point x="260" y="290"/>
      <point x="283" y="296"/>
      <point x="310" y="296" type="curve" smooth="yes"/>
      <point x="358" y="296"/>
      <point x="383" y="277"/>
      <point x="383" y="242" type="curve" smooth="yes"/>
      <point x="383" y="222"/>
      <point x="383" y="196"/>
      <point x="383" y="170" type="curve"/>
      <point x="436" y="170"/>
      <point x="561" y="169"/>
      <point x="561" y="250" type="curve" smooth="yes"/>
      <point x="561" y="376"/>
      <point x="477" y="436"/>
      <point x="386" y="436" type="curve" smooth="yes"/>
      <point x="307" y="436"/>
      <point x="262" y="414"/>
    </contour>
    <contour>
      <point x="270" y="-20" type="curve" smooth="yes"/>
      <point x="442" y="-20"/>
      <point x="561" y="52"/>
      <point x="561" y="202" type="curve" smooth="yes"/>
      <point x="561" y="250" type="line" smooth="yes"/>
      <point x="561" y="304"/>
      <point x="486" y="342"/>
      <point x="383" y="330" type="curve"/>
      <point x="383" y="301"/>
      <point x="383" y="272"/>
      <point x="383" y="242" type="curve" smooth="yes"/>
      <point x="383" y="224" type="line" smooth="yes"/>
      <point x="383" y="187"/>
      <point x="356" y="162"/>
      <point x="264" y="162" type="curve" smooth="yes"/>
      <point x="178" y="162"/>
      <point x="135" y="169"/>
      <point x="74" y="186" type="curve"/>
      <point x="54" y="186" type="line"/>
      <point x="54" y="132"/>
      <point x="54" y="79"/>
      <point x="54" y="14" type="curve" smooth="yes"/>
      <point x="54" y="12"/>
      <point x="54" y="9"/>
      <point x="56" y="7" type="curve" smooth="yes"/>
      <point x="67" y="-4"/>
      <point x="156" y="-20"/>
    </contour>
  </outline>
</glyph>
<glyph name="six" format="1">
  <advance width="600"/>
  <unicode hex="0036"/>
  <outline>
    <contour>
      <point x="175" y="152" type="curve"/>
      <point x="175" y="20"/>
      <point x="241" y="-22"/>
      <point x="307" y="-22" type="curve"/>
      <point x="461" y="-22"/>
      <point x="564" y="73"/>
      <point x="564" y="196" type="curve" smooth="yes"/>
      <point x="564" y="258" type="line" smooth="yes"/>
      <point x="564" y="317"/>
      <point x="512" y="334"/>
      <point x="384" y="334" type="curve"/>
      <point x="384" y="298"/>
      <point x="384" y="282"/>
      <point x="384" y="248" type="curve" smooth="yes"/>
      <point x="384" y="214" type="line" smooth="yes"/>
      <point x="384" y="178"/>
      <point x="360" y="152"/>
      <point x="303" y="152" type="curve" smooth="yes"/>
      <point x="235" y="152"/>
      <point x="205" y="152"/>
    </contour>
    <contour>
      <point x="232" y="545" type="curve"/>
      <point x="267" y="545"/>
      <point x="296" y="545"/>
      <point x="342" y="545" type="curve" smooth="yes"/>
      <point x="415" y="545"/>
      <point x="454" y="537"/>
      <point x="504" y="521" type="curve"/>
      <point x="524" y="521" type="line"/>
      <point x="524" y="568"/>
      <point x="524" y="622"/>
      <point x="524" y="686" type="curve" smooth="yes"/>
      <point x="524" y="688"/>
      <point x="524" y="691"/>
      <point x="522" y="693" type="curve" smooth="yes"/>
      <point x="510" y="704"/>
      <point x="433" y="720"/>
      <point x="350" y="720" type="curve" smooth="yes"/>
      <point x="254" y="720"/>
      <point x="232" y="649"/>
    </contour>
    <contour>
      <point x="40" y="409" type="curve" smooth="yes"/>
      <point x="40" y="254" type="line" smooth="yes"/>
      <point x="40" y="76"/>
      <point x="137" y="-22"/>
      <point x="307" y="-22" type="curve" smooth="yes"/>
      <point x="316" y="-22"/>
      <point x="348" y="11"/>
      <point x="303" y="152" type="curve"/>
      <point x="248" y="152"/>
      <point x="225" y="179"/>
      <point x="225" y="248" type="curve" smooth="yes"/>
      <point x="225" y="407" type="line" smooth="yes"/>
      <point x="225" y="505"/>
      <point x="248" y="545"/>
      <point x="342" y="545" type="curve"/>
      <point x="395" y="693"/>
      <point x="365" y="720"/>
      <point x="350" y="720" type="curve" smooth="yes"/>
      <point x="188" y="720"/>
      <point x="40" y="640"/>
    </contour>
    <contour>
      <point x="376" y="450" type="curve" smooth="yes"/>
      <point x="310" y="450"/>
      <point x="259" y="429"/>
      <point x="222" y="392" type="curve" smooth="yes"/>
      <point x="202" y="372"/>
      <point x="192" y="336"/>
      <point x="192" y="264" type="curve"/>
      <point x="238" y="288"/>
      <point x="277" y="297"/>
      <point x="318" y="297" type="curve" smooth="yes"/>
      <point x="366" y="297"/>
      <point x="384" y="282"/>
      <point x="384" y="243" type="curve" smooth="yes"/>
      <point x="384" y="232"/>
      <point x="384" y="217"/>
      <point x="384" y="192" type="curve"/>
      <point x="540" y="192"/>
      <point x="564" y="234"/>
      <point x="564" y="258" type="curve" smooth="yes"/>
      <point x="564" y="378"/>
      <point x="488" y="450"/>
    </contour>
  </outline>
</glyph>
<glyph name="seven" format="1">
  <advance width="600"/>
  <unicode hex="0037"/>
  <outline>
    <contour>
      <point x="430" y="516" type="line" smooth="yes"/>
      <point x="480" y="516"/>
      <point x="525" y="520"/>
      <point x="560" y="537" type="curve"/>
      <point x="560" y="689" type="line"/>
      <point x="560" y="695"/>
      <point x="555" y="700"/>
      <point x="549" y="700" type="curve"/>
      <point x="40" y="700" type="line"/>
      <point x="40" y="634" type="line" smooth="yes"/>
      <point x="40" y="559"/>
      <point x="59" y="516"/>
      <point x="88" y="516" type="curve" smooth="yes"/>
    </contour>
    <contour>
      <point x="347" y="0" type="line"/>
      <point x="510" y="406"/>
      <point x="560" y="531"/>
      <point x="560" y="537" type="curve" smooth="yes"/>
      <point x="560" y="586"/>
      <point x="507" y="602"/>
      <point x="414" y="602" type="curve"/>
      <point x="184" y="127"/>
      <point x="142" y="26"/>
      <point x="142" y="11" type="curve" smooth="yes"/>
      <point x="142" y="6"/>
      <point x="147" y="0"/>
      <point x="152" y="0" type="curve" smooth="yes"/>
    </contour>
    <contour>
      <point x="218" y="450" type="curve"/>
      <point x="218" y="505"/>
      <point x="218" y="588"/>
      <point x="218" y="644" type="curve"/>
      <point x="218" y="682"/>
      <point x="173" y="700"/>
      <point x="54" y="700" type="curve" smooth="yes"/>
      <point x="40" y="700" type="line"/>
      <point x="40" y="630"/>
      <point x="40" y="530"/>
      <point x="40" y="460" type="curve"/>
      <point x="40" y="454"/>
      <point x="45" y="450"/>
      <point x="51" y="450" type="curve" smooth="yes"/>
      <point x="106" y="450"/>
      <point x="162" y="450"/>
    </contour>
  </outline>
</glyph>
<glyph name="eight" format="1">
  <advance width="600"/>
  <unicode hex="0038"/>
  <outline>
    <contour>
      <point x="405" y="390" type="curve" smooth="yes"/>
      <point x="273" y="438" type="line" smooth="yes"/>
      <point x="246" y="448"/>
      <point x="230" y="466"/>
      <point x="230" y="490" type="curve" smooth="yes"/>
      <point x="230" y="500"/>
      <point x="230" y="525"/>
      <point x="230" y="551" type="curve"/>
      <point x="109" y="550"/>
      <point x="60" y="538"/>
      <point x="60" y="494" type="curve" smooth="yes"/>
      <point x="60" y="403"/>
      <point x="108" y="341"/>
      <point x="216" y="300" type="curve" smooth="yes"/>
      <point x="342" y="252" type="line" smooth="yes"/>
      <point x="379" y="238"/>
      <point x="390" y="228"/>
      <point x="390" y="202" type="curve" smooth="yes"/>
      <point x="390" y="167"/>
      <point x="390" y="158"/>
      <point x="390" y="136" type="curve"/>
      <point x="518" y="136"/>
      <point x="560" y="169"/>
      <point x="560" y="206" type="curve"/>
      <point x="560" y="294"/>
      <point x="508" y="352"/>
    </contour>
    <contour>
      <point x="298" y="-20" type="curve" smooth="yes"/>
      <point x="462" y="-20"/>
      <point x="560" y="56"/>
      <point x="560" y="161" type="curve" smooth="yes"/>
      <point x="560" y="206" type="line" smooth="yes"/>
      <point x="560" y="233"/>
      <point x="518" y="260"/>
      <point x="390" y="260" type="curve"/>
      <point x="390" y="250"/>
      <point x="390" y="225"/>
      <point x="390" y="195" type="curve" smooth="yes"/>
      <point x="390" y="167"/>
      <point x="362" y="150"/>
      <point x="298" y="150" type="curve" smooth="yes"/>
      <point x="253" y="150"/>
      <point x="226" y="150"/>
      <point x="194" y="150" type="curve"/>
      <point x="194" y="30"/>
      <point x="226" y="-20"/>
    </contour>
    <contour>
      <point x="302" y="720" type="curve" smooth="yes"/>
      <point x="154" y="720"/>
      <point x="60" y="638"/>
      <point x="60" y="526" type="curve" smooth="yes"/>
      <point x="60" y="494" type="line" smooth="yes"/>
      <point x="60" y="459"/>
      <point x="97" y="438"/>
      <point x="230" y="438" type="curve"/>
      <point x="230" y="450"/>
      <point x="230" y="478"/>
      <point x="230" y="501" type="curve" smooth="yes"/>
      <point x="230" y="531"/>
      <point x="254" y="550"/>
      <point x="304" y="550" type="curve" smooth="yes"/>
      <point x="354" y="550"/>
      <point x="372" y="550"/>
      <point x="407" y="550" type="curve"/>
      <point x="407" y="678"/>
      <point x="374" y="720"/>
    </contour>
    <contour>
      <point x="380" y="358" type="curve" smooth="yes"/>
      <point x="456" y="358"/>
      <point x="540" y="428"/>
      <point x="540" y="502" type="curve" smooth="yes"/>
      <point x="540" y="533" type="line" smooth="yes"/>
      <point x="540" y="642"/>
      <point x="446" y="720"/>
      <point x="302" y="720" type="curve" smooth="yes"/>
      <point x="280" y="720"/>
      <point x="278" y="690"/>
      <point x="304" y="550" type="curve"/>
      <point x="353" y="550"/>
      <point x="370" y="534"/>
      <point x="370" y="502" type="curve" smooth="yes"/>
      <point x="370" y="487" type="line" smooth="yes"/>
      <point x="370" y="456"/>
      <point x="354" y="424"/>
      <point x="303" y="408" type="curve"/>
      <point x="316" y="380"/>
      <point x="348" y="358"/>
    </contour>
    <contour>
      <point x="298" y="150" type="curve"/>
      <point x="236" y="150"/>
      <point x="210" y="166"/>
      <point x="210" y="198" type="curve" smooth="yes"/>
      <point x="210" y="210" type="line" smooth="yes"/>
      <point x="210" y="243"/>
      <point x="232" y="282"/>
      <point x="293" y="294" type="curve"/>
      <point x="279" y="332"/>
      <point x="262" y="349"/>
      <point x="216" y="349" type="curve" smooth="yes"/>
      <point x="132" y="349"/>
      <point x="40" y="281"/>
      <point x="40" y="200" type="curve" smooth="yes"/>
      <point x="40" y="164" type="line" smooth="yes"/>
      <point x="40" y="46"/>
      <point x="133" y="-20"/>
      <point x="298" y="-20" type="curve" smooth="yes"/>
      <point x="316" y="-20"/>
      <point x="335" y="14"/>
    </contour>
  </outline>
</glyph>
<glyph name="colon" format="1">
  <advance width="300"/>
  <unicode hex="003A"/>
  <outline>
    <contour>
      <point x="262" y="331" type="curve"/>
      <point x="262" y="545" type="line" smooth="yes"/>
      <point x="262" y="551"/>
      <point x="257" y="556"/>
      <point x="251" y="556" type="curve" smooth="yes"/>
      <point x="178" y="556"/>
      <point x="112" y="556"/>
      <point x="38" y="556" type="curve"/>
      <point x="38" y="342" type="line" smooth="yes"/>
      <point x="38" y="336"/>
      <point x="43" y="331"/>
      <point x="49" y="331" type="curve" smooth="yes"/>
      <point x="122" y="331"/>
      <point x="188" y="331"/>
    </contour>
    <contour>
      <point x="262" y="-12" type="curve"/>
      <point x="262" y="202" type="line" smooth="yes"/>
      <point x="262" y="208"/>
      <point x="257" y="214"/>
      <point x="251" y="214" type="curve" smooth="yes"/>
      <point x="178" y="214"/>
      <point x="112" y="214"/>
      <point x="38" y="214" type="curve"/>
      <point x="38" y="0" type="line" smooth="yes"/>
      <point x="38" y="-6"/>
      <point x="43" y="-12"/>
      <point x="49" y="-12" type="curve" smooth="yes"/>
      <point x="122" y="-12"/>
      <point x="188" y="-12"/>
    </contour>
  </outline>
</glyph>
<glyph name="semicolon" format="1">
  <advance width="350"/>
  <unicode hex="003B"/>
  <outline>
    <contour>
      <point x="212" y="331" type="curve"/>
      <point x="212" y="545" type="line" smooth="yes"/>
      <point x="212" y="551"/>
      <point x="207" y="556"/>
      <point x="201" y="556" type="curve" smooth="yes"/>
      <point x="128" y="556"/>
      <point x="62" y="556"/>
      <point x="-12" y="556" type="curve"/>
      <point x="-12" y="342" type="line" smooth="yes"/>
      <point x="-12" y="336"/>
      <point x="-7" y="331"/>
      <point x="-1" y="331" type="curve" smooth="yes"/>
      <point x="72" y="331"/>
      <point x="138" y="331"/>
    </contour>
    <contour>
      <point x="100" y="-256" type="curve" smooth="yes"/>
      <point x="105" y="-256"/>
      <point x="109" y="-254"/>
      <point x="111" y="-248" type="curve"/>
      <point x="151" y="-134"/>
      <point x="202" y="4"/>
      <point x="233" y="88" type="curve"/>
      <point x="235" y="96"/>
      <point x="233" y="101"/>
      <point x="225" y="101" type="curve" smooth="yes"/>
      <point x="142" y="101"/>
      <point x="93" y="101"/>
      <point x="-3" y="101" type="curve"/>
      <point x="-27" y="-18"/>
      <point x="-51" y="-137"/>
      <point x="-75" y="-256" type="curve"/>
      <point x="-29" y="-256"/>
      <point x="24" y="-256"/>
    </contour>
  </outline>
</glyph>
<glyph name="equal" format="1">
  <advance width="600"/>
  <unicode hex="003D"/>
  <outline>
    <contour>
      <point x="55" y="516" type="line"/>
      <point x="55" y="460"/>
      <point x="55" y="412"/>
      <point x="55" y="356" type="curve" smooth="yes"/>
      <point x="55" y="353"/>
      <point x="56" y="350"/>
      <point x="58" y="348" type="curve" smooth="yes"/>
      <point x="60" y="346"/>
      <point x="63" y="345"/>
      <point x="66" y="345" type="curve"/>
      <point x="545" y="345" type="line"/>
      <point x="545" y="401"/>
      <point x="545" y="448"/>
      <point x="545" y="504" type="curve" smooth="yes"/>
      <point x="545" y="510"/>
      <point x="540" y="516"/>
      <point x="534" y="516" type="curve"/>
    </contour>
    <contour>
      <point x="545" y="82" type="line"/>
      <point x="545" y="138"/>
      <point x="545" y="185"/>
      <point x="545" y="242" type="curve" smooth="yes"/>
      <point x="545" y="244"/>
      <point x="544" y="248"/>
      <point x="542" y="250" type="curve" smooth="yes"/>
      <point x="540" y="252"/>
      <point x="537" y="252"/>
      <point x="534" y="252" type="curve"/>
      <point x="55" y="252" type="line"/>
      <point x="55" y="196"/>
      <point x="55" y="149"/>
      <point x="55" y="92" type="curve" smooth="yes"/>
      <point x="55" y="86"/>
      <point x="60" y="82"/>
      <point x="66" y="82" type="curve"/>
    </contour>
  </outline>
</glyph>
<glyph name="greater" format="1">
  <advance width="600"/>
  <unicode hex="003E"/>
  <outline>
    <contour>
      <point x="80" y="182" type="curve"/>
      <point x="80" y="14" type="line"/>
      <point x="80" y="8"/>
      <point x="84" y="3"/>
      <point x="90" y="3" type="curve" smooth="yes"/>
      <point x="94" y="3"/>
      <point x="99" y="4"/>
      <point x="115" y="10" type="curve" smooth="yes"/>
      <point x="164" y="30"/>
      <point x="380" y="117"/>
      <point x="522" y="174" type="curve"/>
      <point x="522" y="388" type="line"/>
      <point x="501" y="356"/>
      <point x="472" y="328"/>
      <point x="397" y="301" type="curve"/>
      <point x="292" y="262"/>
      <point x="185" y="221"/>
    </contour>
    <contour>
      <point x="82" y="599" type="curve"/>
      <point x="82" y="541"/>
      <point x="82" y="489"/>
      <point x="82" y="431" type="curve" smooth="yes"/>
      <point x="82" y="420"/>
      <point x="84" y="416"/>
      <point x="94" y="412" type="curve" smooth="yes"/>
      <point x="172" y="384"/>
      <point x="254" y="354"/>
      <point x="330" y="326" type="curve" smooth="yes"/>
      <point x="342" y="322"/>
      <point x="346" y="316"/>
      <point x="346" y="304" type="curve" smooth="yes"/>
      <point x="346" y="281"/>
      <point x="346" y="252"/>
      <point x="346" y="208" type="curve"/>
      <point x="476" y="206"/>
      <point x="522" y="304"/>
      <point x="522" y="373" type="curve" smooth="yes"/>
      <point x="522" y="412" type="line" smooth="yes"/>
      <point x="522" y="423"/>
      <point x="517" y="430"/>
      <point x="505" y="434" type="curve" smooth="yes"/>
      <point x="363" y="490"/>
      <point x="223" y="544"/>
    </contour>
  </outline>
</glyph>
<glyph name="question" format="1">
  <advance width="600"/>
  <unicode hex="003F"/>
  <outline>
    <contour>
      <point x="297" y="720" type="curve" smooth="yes"/>
      <point x="189" y="720"/>
      <point x="96" y="698"/>
      <point x="82" y="684" type="curve" smooth="yes"/>
      <point x="79" y="680"/>
      <point x="78" y="677"/>
      <point x="78" y="672" type="curve" smooth="yes"/>
      <point x="78" y="606"/>
      <point x="78" y="540"/>
      <point x="78" y="508" type="curve"/>
      <point x="100" y="508" type="line"/>
      <point x="156" y="533"/>
      <point x="224" y="544"/>
      <point x="280" y="544" type="curve" smooth="yes"/>
      <point x="351" y="544"/>
      <point x="358" y="532"/>
      <point x="358" y="513" type="curve" smooth="yes"/>
      <point x="358" y="496"/>
      <point x="358" y="478"/>
      <point x="358" y="460" type="curve"/>
      <point x="460" y="460"/>
      <point x="540" y="492"/>
      <point x="540" y="550" type="curve" smooth="yes"/>
      <point x="540" y="642"/>
      <point x="475" y="720"/>
    </contour>
    <contour>
      <point x="358" y="596" type="curve"/>
      <point x="358" y="575"/>
      <point x="358" y="542"/>
      <point x="358" y="511" type="curve" smooth="yes"/>
      <point x="358" y="488"/>
      <point x="354" y="482"/>
      <point x="311" y="452" type="curve" smooth="yes"/>
      <point x="270" y="426" type="line" smooth="yes"/>
      <point x="204" y="380"/>
      <point x="187" y="350"/>
      <point x="187" y="296" type="curve" smooth="yes"/>
      <point x="187" y="268" type="line" smooth="yes"/>
      <point x="187" y="258"/>
      <point x="190" y="257"/>
      <point x="198" y="257" type="curve" smooth="yes"/>
      <point x="371" y="257" type="line"/>
      <point x="371" y="262" type="line" smooth="yes"/>
      <point x="371" y="288"/>
      <point x="378" y="298"/>
      <point x="408" y="317" type="curve" smooth="yes"/>
      <point x="447" y="342" type="line" smooth="yes"/>
      <point x="520" y="388"/>
      <point x="540" y="430"/>
      <point x="540" y="506" type="curve" smooth="yes"/>
      <point x="540" y="550" type="line" smooth="yes"/>
      <point x="540" y="581"/>
      <point x="518" y="596"/>
    </contour>
    <contour>
      <point x="390" y="-12" type="curve"/>
      <point x="390" y="190" type="line" smooth="yes"/>
      <point x="390" y="196"/>
      <point x="385" y="200"/>
      <point x="379" y="200" type="curve" smooth="yes"/>
      <point x="306" y="200"/>
      <point x="240" y="200"/>
      <point x="166" y="200" type="curve"/>
      <point x="166" y="0" type="line" smooth="yes"/>
      <point x="166" y="-6"/>
      <point x="172" y="-12"/>
      <point x="178" y="-12" type="curve" smooth="yes"/>
      <point x="250" y="-12"/>
      <point x="317" y="-12"/>
    </contour>
  </outline>
</glyph>
<glyph name="B" format="1">
  <advance width="600"/>
  <unicode hex="0042"/>
  <outline>
    <contour>
      <point x="245" y="8" type="curve"/>
      <point x="245" y="647" type="line" smooth="yes"/>
      <point x="245" y="654"/>
      <point x="214" y="660"/>
      <point x="55" y="660" type="curve"/>
      <point x="55" y="11" type="line"/>
      <point x="55" y="8"/>
      <point x="165" y="8"/>
    </contour>
    <contour>
      <point x="18" y="700" type="curve"/>
      <point x="18" y="655"/>
      <point x="18" y="601"/>
      <point x="18" y="550" type="curve" smooth="yes"/>
      <point x="18" y="547"/>
      <point x="18" y="544"/>
      <point x="20" y="542" type="curve" smooth="yes"/>
      <point x="22" y="540"/>
      <point x="26" y="539"/>
      <point x="28" y="539" type="curve" smooth="yes"/>
      <point x="44" y="539"/>
      <point x="84" y="539"/>
      <point x="100" y="539" type="curve" smooth="yes"/>
      <point x="168" y="539"/>
      <point x="240" y="539"/>
      <point x="306" y="539" type="curve" smooth="yes"/>
      <point x="395" y="539"/>
      <point x="416" y="539"/>
      <point x="458" y="539" type="curve"/>
      <point x="458" y="648"/>
      <point x="414" y="700"/>
      <point x="330" y="700" type="curve" smooth="yes"/>
      <point x="233" y="700"/>
      <point x="117" y="700"/>
    </contour>
    <contour>
      <point x="555" y="496" type="curve" smooth="yes"/>
      <point x="555" y="528" type="line" smooth="yes"/>
      <point x="555" y="602"/>
      <point x="500" y="700"/>
      <point x="330" y="700" type="curve" smooth="yes"/>
      <point x="307" y="700"/>
      <point x="291" y="672"/>
      <point x="306" y="539" type="curve"/>
      <point x="350" y="539"/>
      <point x="368" y="522"/>
      <point x="368" y="488" type="curve" smooth="yes"/>
      <point x="368" y="464" type="line" smooth="yes"/>
      <point x="368" y="430"/>
      <point x="346" y="412"/>
      <point x="309" y="412" type="curve" smooth="yes"/>
      <point x="264" y="412"/>
      <point x="231" y="412"/>
      <point x="187" y="412" type="curve"/>
      <point x="187" y="395"/>
      <point x="187" y="374"/>
      <point x="187" y="354" type="curve" smooth="yes"/>
      <point x="187" y="348"/>
      <point x="193" y="344"/>
      <point x="200" y="344" type="curve" smooth="yes"/>
      <point x="372" y="344" type="line" smooth="yes"/>
      <point x="473" y="344"/>
      <point x="555" y="411"/>
    </contour>
    <contour>
      <point x="558" y="176" type="curve" smooth="yes"/>
      <point x="558" y="210" type="line" smooth="yes"/>
      <point x="558" y="296"/>
      <point x="461" y="364"/>
      <point x="362" y="364" type="curve" smooth="yes"/>
      <point x="202" y="364" type="line" smooth="yes"/>
      <point x="194" y="364"/>
      <point x="187" y="359"/>
      <point x="187" y="352" type="curve"/>
      <point x="187" y="290" type="line"/>
      <point x="300" y="290" type="line"/>
      <point x="348" y="290"/>
      <point x="365" y="274"/>
      <point x="365" y="240" type="curve" smooth="yes"/>
      <point x="365" y="213" type="line" smooth="yes"/>
      <point x="365" y="180"/>
      <point x="348" y="161"/>
      <point x="304" y="161" type="curve" smooth="yes"/>
      <point x="247" y="161"/>
      <point x="180" y="161"/>
      <point x="114" y="161" type="curve"/>
      <point x="58" y="36"/>
      <point x="55" y="14"/>
      <point x="55" y="11" type="curve" smooth="yes"/>
      <point x="55" y="4"/>
      <point x="59" y="0"/>
      <point x="66" y="0" type="curve" smooth="yes"/>
      <point x="351" y="0" type="line" smooth="yes"/>
      <point x="476" y="0"/>
      <point x="558" y="62"/>
    </contour>
  </outline>
</glyph>
<glyph name="C" format="1">
  <advance width="600"/>
  <unicode hex="0043"/>
  <outline>
    <contour>
      <point x="328" y="548" type="curve" smooth="yes"/>
      <point x="377" y="548"/>
      <point x="409" y="532"/>
      <point x="437" y="506" type="curve"/>
      <point x="540" y="597"/>
      <point x="558" y="619"/>
      <point x="558" y="633" type="curve" smooth="yes"/>
      <point x="558" y="644"/>
      <point x="557" y="647"/>
      <point x="552" y="652" type="curve" smooth="yes"/>
      <point x="518" y="686"/>
      <point x="437" y="720"/>
      <point x="329" y="720" type="curve" smooth="yes"/>
      <point x="154" y="720"/>
      <point x="38" y="622"/>
      <point x="38" y="458" type="curve" smooth="yes"/>
      <point x="38" y="242" type="line" smooth="yes"/>
      <point x="38" y="182"/>
      <point x="121" y="135"/>
      <point x="236" y="136" type="curve"/>
      <point x="236" y="169"/>
      <point x="236" y="204"/>
      <point x="236" y="262" type="curve" smooth="yes"/>
      <point x="236" y="448" type="line" smooth="yes"/>
      <point x="236" y="517"/>
      <point x="269" y="548"/>
    </contour>
    <contour>
      <point x="336" y="-20" type="curve" smooth="yes"/>
      <point x="442" y="-20"/>
      <point x="532" y="4"/>
      <point x="560" y="32" type="curve" smooth="yes"/>
      <point x="562" y="34"/>
      <point x="562" y="36"/>
      <point x="562" y="40" type="curve" smooth="yes"/>
      <point x="562" y="96"/>
      <point x="562" y="152"/>
      <point x="562" y="209" type="curve"/>
      <point x="542" y="209" type="line"/>
      <point x="476" y="174"/>
      <point x="420" y="160"/>
      <point x="346" y="160" type="curve" smooth="yes"/>
      <point x="268" y="160"/>
      <point x="236" y="192"/>
      <point x="236" y="274" type="curve"/>
      <point x="87" y="274"/>
      <point x="38" y="265"/>
      <point x="38" y="242" type="curve" smooth="yes"/>
      <point x="38" y="78"/>
      <point x="138" y="-20"/>
    </contour>
    <contour>
      <point x="558" y="446" type="curve"/>
      <point x="558" y="633" type="line" smooth="yes"/>
      <point x="558" y="650"/>
      <point x="534" y="656"/>
      <point x="390" y="656" type="curve"/>
      <point x="390" y="640"/>
      <point x="390" y="617"/>
      <point x="390" y="598" type="curve" smooth="yes"/>
      <point x="390" y="458" type="line"/>
      <point x="390" y="452"/>
      <point x="392" y="450"/>
      <point x="394" y="449" type="curve" smooth="yes"/>
      <point x="395" y="448"/>
      <point x="398" y="446"/>
      <point x="401" y="446" type="curve"/>
      <point x="454" y="446"/>
      <point x="506" y="446"/>
    </contour>
    <contour>
      <point x="315" y="711" type="move" name="top"/>
    </contour>
    <contour>
      <point x="310" y="0" type="move" name="bottom"/>
    </contour>
  </outline>
</glyph>
<glyph name="D" format="1">
  <advance width="650"/>
  <unicode hex="0044"/>
  <outline>
    <contour>
      <point x="248" y="28" type="curve"/>
      <point x="248" y="639" type="line" smooth="yes"/>
      <point x="248" y="645"/>
      <point x="242" y="650"/>
      <point x="55" y="650" type="curve"/>
      <point x="55" y="36" type="line" smooth="yes"/>
      <point x="55" y="30"/>
      <point x="68" y="28"/>
    </contour>
    <contour>
      <point x="18" y="700" type="curve"/>
      <point x="18" y="647"/>
      <point x="18" y="593"/>
      <point x="18" y="540" type="curve"/>
      <point x="18" y="537"/>
      <point x="18" y="534"/>
      <point x="20" y="532" type="curve" smooth="yes"/>
      <point x="22" y="530"/>
      <point x="26" y="529"/>
      <point x="28" y="529" type="curve" smooth="yes"/>
      <point x="42" y="529"/>
      <point x="78" y="529"/>
      <point x="92" y="529" type="curve" smooth="yes"/>
      <point x="155" y="529"/>
      <point x="260" y="529"/>
      <point x="322" y="529" type="curve"/>
      <point x="376" y="529"/>
      <point x="406" y="529"/>
      <point x="460" y="529" type="curve"/>
      <point x="460" y="640"/>
      <point x="449" y="700"/>
      <point x="344" y="700" type="curve" smooth="yes"/>
      <point x="272" y="700"/>
      <point x="95" y="700"/>
    </contour>
    <contour>
      <point x="610" y="264" type="curve" smooth="yes"/>
      <point x="610" y="444" type="line" smooth="yes"/>
      <point x="610" y="613"/>
      <point x="510" y="700"/>
      <point x="344" y="700" type="curve" smooth="yes"/>
      <point x="327" y="700"/>
      <point x="310" y="692"/>
      <point x="322" y="529" type="curve"/>
      <point x="388" y="529"/>
      <point x="420" y="506"/>
      <point x="420" y="440" type="curve" smooth="yes"/>
      <point x="420" y="268" type="line" smooth="yes"/>
      <point x="420" y="204"/>
      <point x="383" y="171"/>
      <point x="324" y="171" type="curve" smooth="yes"/>
      <point x="295" y="171"/>
      <point x="105" y="171"/>
      <point x="75" y="171" type="curve"/>
      <point x="62" y="118"/>
      <point x="55" y="74"/>
      <point x="55" y="11" type="curve" smooth="yes"/>
      <point x="55" y="5"/>
      <point x="60" y="0"/>
      <point x="66" y="0" type="curve" smooth="yes"/>
      <point x="354" y="0" type="line" smooth="yes"/>
      <point x="513" y="0"/>
      <point x="610" y="99"/>
    </contour>
    <contour>
      <point x="319" y="711" type="move" name="top"/>
    </contour>
  </outline>
</glyph>
<glyph name="F" format="1">
  <advance width="550"/>
  <unicode hex="0046"/>
  <outline>
    <contour>
      <point x="270" y="0" type="curve"/>
      <point x="270" y="28"/>
      <point x="270" y="62"/>
      <point x="270" y="98" type="curve" smooth="yes"/>
      <point x="270" y="632" type="line"/>
      <point x="270" y="643"/>
      <point x="224" y="649"/>
      <point x="77" y="649" type="curve"/>
      <point x="77" y="11" type="line" smooth="yes"/>
      <point x="77" y="5"/>
      <point x="82" y="0"/>
      <point x="88" y="0" type="curve" smooth="yes"/>
      <point x="148" y="0"/>
      <point x="209" y="0"/>
    </contour>
    <contour>
      <point x="30" y="700" type="line"/>
      <point x="30" y="645"/>
      <point x="30" y="590"/>
      <point x="30" y="535" type="curve" smooth="yes"/>
      <point x="30" y="532"/>
      <point x="30" y="529"/>
      <point x="32" y="527" type="curve" smooth="yes"/>
      <point x="34" y="525"/>
      <point x="38" y="524"/>
      <point x="40" y="524" type="curve"/>
      <point x="505" y="524" type="line"/>
      <point x="505" y="569"/>
      <point x="505" y="644"/>
      <point x="505" y="689" type="curve" smooth="yes"/>
      <point x="505" y="692"/>
      <point x="504" y="695"/>
      <point x="502" y="697" type="curve" smooth="yes"/>
      <point x="500" y="699"/>
      <point x="497" y="700"/>
      <point x="494" y="700" type="curve"/>
    </contour>
    <contour>
      <point x="167" y="395" type="line"/>
      <point x="167" y="274"/>
      <point x="169" y="224"/>
      <point x="178" y="224" type="curve"/>
      <point x="460" y="224" type="line"/>
      <point x="460" y="268"/>
      <point x="460" y="340"/>
      <point x="460" y="384" type="curve"/>
      <point x="460" y="387"/>
      <point x="459" y="390"/>
      <point x="457" y="392" type="curve" smooth="yes"/>
      <point x="455" y="394"/>
      <point x="452" y="395"/>
      <point x="449" y="395" type="curve"/>
    </contour>
  </outline>
</glyph>
<glyph name="G" format="1">
  <advance width="650"/>
  <unicode hex="0047"/>
  <outline>
    <contour>
      <point x="342" y="551" type="curve" smooth="yes"/>
      <point x="408" y="551"/>
      <point x="436" y="542"/>
      <point x="476" y="511" type="curve"/>
      <point x="585" y="605"/>
      <point x="590" y="618"/>
      <point x="590" y="627" type="curve" smooth="yes"/>
      <point x="590" y="638"/>
      <point x="588" y="641"/>
      <point x="584" y="646" type="curve" smooth="yes"/>
      <point x="544" y="685"/>
      <point x="468" y="720"/>
      <point x="340" y="720" type="curve" smooth="yes"/>
      <point x="162" y="720"/>
      <point x="38" y="624"/>
      <point x="38" y="442" type="curve" smooth="yes"/>
      <point x="38" y="243" type="line" smooth="yes"/>
      <point x="38" y="180"/>
      <point x="123" y="116"/>
      <point x="230" y="117" type="curve"/>
      <point x="230" y="166"/>
      <point x="230" y="197"/>
      <point x="230" y="252" type="curve" smooth="yes"/>
      <point x="230" y="449" type="line" smooth="yes"/>
      <point x="230" y="516"/>
      <point x="270" y="551"/>
    </contour>
    <contour>
      <point x="336" y="150" type="curve" smooth="yes"/>
      <point x="264" y="150"/>
      <point x="230" y="176"/>
      <point x="230" y="252" type="curve"/>
      <point x="64" y="264"/>
      <point x="38" y="262"/>
      <point x="38" y="243" type="curve" smooth="yes"/>
      <point x="38" y="80"/>
      <point x="144" y="-20"/>
      <point x="334" y="-20" type="curve" smooth="yes"/>
      <point x="508" y="-20"/>
      <point x="592" y="50"/>
      <point x="592" y="68" type="curve" smooth="yes"/>
      <point x="592" y="299" type="line" smooth="yes"/>
      <point x="592" y="314"/>
      <point x="526" y="321"/>
      <point x="422" y="321" type="curve"/>
      <point x="422" y="272"/>
      <point x="422" y="218"/>
      <point x="422" y="170" type="curve" smooth="yes"/>
      <point x="422" y="163"/>
      <point x="397" y="150"/>
    </contour>
    <contour>
      <point x="348" y="400" type="line"/>
      <point x="348" y="354"/>
      <point x="348" y="308"/>
      <point x="348" y="261" type="curve" smooth="yes"/>
      <point x="348" y="258"/>
      <point x="348" y="255"/>
      <point x="350" y="253" type="curve" smooth="yes"/>
      <point x="352" y="251"/>
      <point x="356" y="250"/>
      <point x="358" y="250" type="curve"/>
      <point x="622" y="250" type="line"/>
      <point x="622" y="389" type="line" smooth="yes"/>
      <point x="622" y="395"/>
      <point x="618" y="400"/>
      <point x="612" y="400" type="curve" smooth="yes"/>
    </contour>
    <contour>
      <point x="590" y="480" type="curve"/>
      <point x="590" y="627" type="line" smooth="yes"/>
      <point x="590" y="643"/>
      <point x="580" y="648"/>
      <point x="420" y="648" type="curve"/>
      <point x="420" y="632"/>
      <point x="420" y="608"/>
      <point x="420" y="589" type="curve" smooth="yes"/>
      <point x="420" y="491" type="line" smooth="yes"/>
      <point x="420" y="484"/>
      <point x="424" y="480"/>
      <point x="430" y="480" type="curve" smooth="yes"/>
      <point x="484" y="480"/>
      <point x="536" y="480"/>
    </contour>
    <contour>
      <point x="330" y="711" type="move" name="top"/>
    </contour>
    <contour>
      <point x="330" y="-1" type="move" name="bottom"/>
    </contour>
  </outline>
</glyph>
<glyph name="H" format="1">
  <advance width="650"/>
  <unicode hex="0048"/>
  <outline>
    <contour>
      <point x="52" y="700" type="curve"/>
      <point x="52" y="666"/>
      <point x="52" y="631"/>
      <point x="52" y="596" type="curve" smooth="yes"/>
      <point x="52" y="11" type="line" smooth="yes"/>
      <point x="52" y="5"/>
      <point x="58" y="0"/>
      <point x="64" y="0" type="curve" smooth="yes"/>
      <point x="124" y="0"/>
      <point x="184" y="0"/>
      <point x="245" y="0" type="curve"/>
      <point x="245" y="689" type="line" smooth="yes"/>
      <point x="245" y="692"/>
      <point x="244" y="695"/>
      <point x="242" y="697" type="curve" smooth="yes"/>
      <point x="240" y="699"/>
      <point x="237" y="700"/>
      <point x="234" y="700" type="curve" smooth="yes"/>
      <point x="174" y="700"/>
      <point x="113" y="700"/>
    </contour>
    <contour>
      <point x="598" y="0" type="curve"/>
      <point x="598" y="32"/>
      <point x="598" y="68"/>
      <point x="598" y="105" type="curve" smooth="yes"/>
      <point x="598" y="689" type="line" smooth="yes"/>
      <point x="598" y="695"/>
      <point x="592" y="700"/>
      <point x="586" y="700" type="curve" smooth="yes"/>
      <point x="526" y="700"/>
      <point x="466" y="700"/>
      <point x="405" y="700" type="curve"/>
      <point x="405" y="11" type="line" smooth="yes"/>
      <point x="405" y="8"/>
      <point x="406" y="5"/>
      <point x="408" y="3" type="curve" smooth="yes"/>
      <point x="410" y="1"/>
      <point x="413" y="0"/>
      <point x="416" y="0" type="curve" smooth="yes"/>
      <point x="476" y="0"/>
      <point x="537" y="0"/>
    </contour>
    <contour>
      <point x="135" y="440" type="line"/>
      <point x="135" y="275" type="line" smooth="yes"/>
      <point x="135" y="272"/>
      <point x="136" y="269"/>
      <point x="138" y="267" type="curve" smooth="yes"/>
      <point x="140" y="265"/>
      <point x="143" y="264"/>
      <point x="146" y="264" type="curve"/>
      <point x="510" y="264" type="line"/>
      <point x="510" y="434"/>
      <point x="505" y="440"/>
      <point x="499" y="440" type="curve" smooth="yes"/>
    </contour>
    <contour>
      <point x="325" y="711" type="move" name="top"/>
    </contour>
  </outline>
</glyph>
<glyph name="I" format="1">
  <advance width="500"/>
  <unicode hex="0049"/>
  <outline>
    <contour>
      <point x="346" y="50" type="curve"/>
      <point x="346" y="639" type="line" smooth="yes"/>
      <point x="346" y="645"/>
      <point x="341" y="650"/>
      <point x="154" y="650" type="curve"/>
      <point x="154" y="61" type="line" smooth="yes"/>
      <point x="154" y="55"/>
      <point x="159" y="50"/>
    </contour>
    <contour>
      <point x="50" y="700" type="line"/>
      <point x="50" y="655"/>
      <point x="50" y="580"/>
      <point x="50" y="535" type="curve"/>
      <point x="50" y="532"/>
      <point x="51" y="529"/>
      <point x="53" y="527" type="curve" smooth="yes"/>
      <point x="55" y="525"/>
      <point x="58" y="524"/>
      <point x="61" y="524" type="curve" smooth="yes"/>
      <point x="450" y="524" type="line"/>
      <point x="450" y="568"/>
      <point x="450" y="644"/>
      <point x="450" y="689" type="curve" smooth="yes"/>
      <point x="450" y="695"/>
      <point x="445" y="700"/>
      <point x="439" y="700" type="curve" smooth="yes"/>
    </contour>
    <contour>
      <point x="50" y="176" type="line"/>
      <point x="50" y="131"/>
      <point x="50" y="56"/>
      <point x="50" y="11" type="curve"/>
      <point x="50" y="8"/>
      <point x="51" y="5"/>
      <point x="53" y="3" type="curve" smooth="yes"/>
      <point x="55" y="1"/>
      <point x="58" y="0"/>
      <point x="61" y="0" type="curve" smooth="yes"/>
      <point x="450" y="0" type="line"/>
      <point x="450" y="45"/>
      <point x="450" y="120"/>
      <point x="450" y="165" type="curve" smooth="yes"/>
      <point x="450" y="171"/>
      <point x="445" y="176"/>
      <point x="439" y="176" type="curve" smooth="yes"/>
    </contour>
    <contour>
      <point x="250" y="711" type="move" name="top"/>
    </contour>
    <contour>
      <point x="451" y="0" type="move" name="ogonek"/>
    </contour>
    <contour>
      <point x="250" y="-1" type="move" name="bottom"/>
    </contour>
  </outline>
</glyph>
<glyph name="J" format="1">
  <advance width="500"/>
  <unicode hex="004A"/>
  <outline>
    <contour>
      <point x="63" y="700" type="line"/>
      <point x="63" y="646"/>
      <point x="63" y="590"/>
      <point x="63" y="535" type="curve" smooth="yes"/>
      <point x="63" y="532"/>
      <point x="64" y="529"/>
      <point x="66" y="527" type="curve" smooth="yes"/>
      <point x="68" y="525"/>
      <point x="71" y="524"/>
      <point x="74" y="524" type="curve" smooth="yes"/>
      <point x="368" y="524" type="line"/>
      <point x="368" y="653"/>
      <point x="354" y="700"/>
      <point x="324" y="700" type="curve"/>
    </contour>
    <contour>
      <point x="452" y="235" type="curve" smooth="yes"/>
      <point x="452" y="689" type="line" smooth="yes"/>
      <point x="452" y="695"/>
      <point x="447" y="700"/>
      <point x="441" y="700" type="curve" smooth="yes"/>
      <point x="260" y="700" type="line"/>
      <point x="260" y="251" type="line" smooth="yes"/>
      <point x="260" y="172"/>
      <point x="260" y="146"/>
      <point x="260" y="94" type="curve"/>
      <point x="386" y="94"/>
      <point x="452" y="132"/>
    </contour>
    <contour>
      <point x="174" y="162" type="curve" smooth="yes"/>
      <point x="130" y="162"/>
      <point x="94" y="172"/>
      <point x="52" y="192" type="curve"/>
      <point x="32" y="192" type="line"/>
      <point x="32" y="141"/>
      <point x="32" y="79"/>
      <point x="32" y="26" type="curve"/>
      <point x="32" y="22"/>
      <point x="34" y="20"/>
      <point x="36" y="18" type="curve" smooth="yes"/>
      <point x="48" y="5"/>
      <point x="112" y="-16"/>
      <point x="176" y="-16" type="curve" smooth="yes"/>
      <point x="194" y="-16" type="line" smooth="yes"/>
      <point x="350" y="-16"/>
      <point x="452" y="63"/>
      <point x="452" y="235" type="curve"/>
      <point x="452" y="248"/>
      <point x="432" y="259"/>
      <point x="260" y="251" type="curve"/>
      <point x="260" y="178"/>
      <point x="231" y="162"/>
    </contour>
    <contour>
      <point x="254" y="711" type="move" name="top"/>
    </contour>
  </outline>
</glyph>
<glyph name="K" format="1">
  <advance width="600"/>
  <unicode hex="004B"/>
  <outline>
    <contour>
      <point x="52" y="700" type="curve"/>
      <point x="52" y="666"/>
      <point x="52" y="631"/>
      <point x="52" y="596" type="curve" smooth="yes"/>
      <point x="52" y="11" type="line" smooth="yes"/>
      <point x="52" y="5"/>
      <point x="58" y="0"/>
      <point x="64" y="0" type="curve" smooth="yes"/>
      <point x="124" y="0"/>
      <point x="182" y="0"/>
      <point x="242" y="0" type="curve"/>
      <point x="242" y="689" type="line" smooth="yes"/>
      <point x="242" y="692"/>
      <point x="242" y="695"/>
      <point x="240" y="697" type="curve" smooth="yes"/>
      <point x="238" y="699"/>
      <point x="234" y="700"/>
      <point x="232" y="700" type="curve" smooth="yes"/>
      <point x="171" y="700"/>
      <point x="113" y="700"/>
    </contour>
    <contour>
      <point x="570" y="700" type="curve"/>
      <point x="376" y="700" type="line"/>
      <point x="298" y="550"/>
      <point x="222" y="399"/>
      <point x="144" y="248" type="curve"/>
      <point x="136" y="231"/>
      <point x="140" y="221"/>
      <point x="204" y="130" type="curve"/>
      <point x="345" y="304"/>
      <point x="403" y="384"/>
      <point x="532" y="606" type="curve" smooth="yes"/>
      <point x="578" y="684"/>
      <point x="579" y="687"/>
      <point x="579" y="692" type="curve" smooth="yes"/>
      <point x="579" y="696"/>
      <point x="575" y="700"/>
    </contour>
    <contour>
      <point x="364" y="412" type="line"/>
      <point x="240" y="309"/>
      <point x="249" y="257"/>
      <point x="261" y="237" type="curve" smooth="yes"/>
      <point x="357" y="76" type="line" smooth="yes"/>
      <point x="398" y="5"/>
      <point x="430" y="-10"/>
      <point x="508" y="-10" type="curve" smooth="yes"/>
      <point x="559" y="-10" type="line" smooth="yes"/>
      <point x="566" y="-10"/>
      <point x="570" y="-6"/>
      <point x="570" y="1" type="curve" smooth="yes"/>
      <point x="570" y="57"/>
      <point x="570" y="114"/>
      <point x="570" y="170" type="curve"/>
      <point x="555" y="170" type="line"/>
      <point x="548" y="170"/>
      <point x="544" y="170"/>
      <point x="537" y="170" type="curve" smooth="yes"/>
      <point x="515" y="170"/>
      <point x="508" y="175"/>
      <point x="496" y="195" type="curve" smooth="yes"/>
    </contour>
    <contour>
      <point x="316" y="-1" type="move" name="bottom"/>
    </contour>
  </outline>
</glyph>
<glyph name="L" format="1">
  <advance width="550"/>
  <unicode hex="004C"/>
  <outline>
    <contour>
      <point x="250" y="100" type="curve"/>
      <point x="250" y="689" type="line" smooth="yes"/>
      <point x="250" y="692"/>
      <point x="249" y="695"/>
      <point x="247" y="697" type="curve" smooth="yes"/>
      <point x="245" y="699"/>
      <point x="242" y="700"/>
      <point x="239" y="700" type="curve" smooth="yes"/>
      <point x="176" y="700"/>
      <point x="115" y="700"/>
      <point x="52" y="700" type="curve"/>
      <point x="52" y="667"/>
      <point x="52" y="633"/>
      <point x="52" y="600" type="curve" smooth="yes"/>
      <point x="52" y="111" type="line" smooth="yes"/>
      <point x="52" y="105"/>
      <point x="58" y="100"/>
    </contour>
    <contour>
      <point x="52" y="181" type="line"/>
      <point x="52" y="11" type="line" smooth="yes"/>
      <point x="52" y="5"/>
      <point x="58" y="0"/>
      <point x="64" y="0" type="curve" smooth="yes"/>
      <point x="510" y="0" type="line"/>
      <point x="510" y="57"/>
      <point x="510" y="113"/>
      <point x="510" y="170" type="curve" smooth="yes"/>
      <point x="510" y="176"/>
      <point x="505" y="181"/>
      <point x="499" y="181" type="curve" smooth="yes"/>
    </contour>
    <contour>
      <point x="421" y="550" type="move" name="caronslovak"/>
    </contour>
    <contour>
      <point x="154" y="711" type="move" name="top"/>
    </contour>
    <contour>
      <point x="431" y="400" type="move" name="dot"/>
    </contour>
    <contour>
      <point x="281" y="-1" type="move" name="bottom"/>
    </contour>
  </outline>
</glyph>
<glyph name="M" format="1">
  <advance width="800"/>
  <unicode hex="004D"/>
  <outline>
    <contour>
      <point x="236" y="0" type="curve"/>
      <point x="236" y="60"/>
      <point x="236" y="118"/>
      <point x="236" y="178" type="curve" smooth="yes"/>
      <point x="226" y="349"/>
      <point x="215" y="520"/>
      <point x="205" y="689" type="curve" smooth="yes"/>
      <point x="205" y="692"/>
      <point x="204" y="695"/>
      <point x="202" y="697" type="curve" smooth="yes"/>
      <point x="200" y="699"/>
      <point x="197" y="700"/>
      <point x="194" y="700" type="curve" smooth="yes"/>
      <point x="154" y="700"/>
      <point x="93" y="700"/>
      <point x="52" y="700" type="curve"/>
      <point x="52" y="662"/>
      <point x="52" y="625"/>
      <point x="52" y="587" type="curve" smooth="yes"/>
      <point x="52" y="395"/>
      <point x="52" y="203"/>
      <point x="52" y="11" type="curve" smooth="yes"/>
      <point x="52" y="8"/>
      <point x="54" y="5"/>
      <point x="56" y="3" type="curve" smooth="yes"/>
      <point x="58" y="1"/>
      <point x="60" y="0"/>
      <point x="64" y="0" type="curve" smooth="yes"/>
      <point x="108" y="0"/>
      <point x="190" y="0"/>
    </contour>
    <contour>
      <point x="748" y="0" type="curve"/>
      <point x="748" y="37"/>
      <point x="748" y="75"/>
      <point x="748" y="112" type="curve" smooth="yes"/>
      <point x="748" y="304"/>
      <point x="748" y="497"/>
      <point x="748" y="689" type="curve"/>
      <point x="748" y="692"/>
      <point x="746" y="695"/>
      <point x="744" y="697" type="curve" smooth="yes"/>
      <point x="742" y="699"/>
      <point x="740" y="700"/>
      <point x="736" y="700" type="curve" smooth="yes"/>
      <point x="594" y="700" type="line"/>
      <point x="594" y="683"/>
      <point x="594" y="665"/>
      <point x="593" y="648" type="curve"/>
      <point x="583" y="491"/>
      <point x="573" y="334"/>
      <point x="563" y="179" type="curve" smooth="yes"/>
      <point x="563" y="126"/>
      <point x="563" y="72"/>
      <point x="563" y="20" type="curve" smooth="yes"/>
      <point x="563" y="8"/>
      <point x="565" y="5"/>
      <point x="567" y="3" type="curve" smooth="yes"/>
      <point x="569" y="1"/>
      <point x="571" y="0"/>
      <point x="575" y="0" type="curve" smooth="yes"/>
      <point x="621" y="0"/>
      <point x="702" y="0"/>
    </contour>
    <contour>
      <point x="296" y="687" type="curve" smooth="yes"/>
      <point x="292" y="697"/>
      <point x="288" y="700"/>
      <point x="280" y="700" type="curve"/>
      <point x="130" y="700" type="line"/>
      <point x="140" y="674"/>
      <point x="153" y="648"/>
      <point x="163" y="621" type="curve" smooth="yes"/>
      <point x="220" y="456"/>
      <point x="278" y="292"/>
      <point x="336" y="127" type="curve"/>
      <point x="337" y="123"/>
      <point x="343" y="120"/>
      <point x="347" y="120" type="curve" smooth="yes"/>
      <point x="355" y="120"/>
      <point x="344" y="146"/>
      <point x="440" y="267" type="curve"/>
      <point x="392" y="407"/>
      <point x="344" y="547"/>
    </contour>
    <contour>
      <point x="506" y="700" type="curve"/>
      <point x="458" y="556"/>
      <point x="410" y="411"/>
      <point x="362" y="267" type="curve"/>
      <point x="328" y="149"/>
      <point x="352" y="128"/>
      <point x="347" y="120" type="curve"/>
      <point x="459" y="120" type="line"/>
      <point x="526" y="308"/>
      <point x="594" y="498"/>
      <point x="661" y="687" type="curve" smooth="yes"/>
      <point x="664" y="696"/>
      <point x="661" y="700"/>
      <point x="653" y="700" type="curve" smooth="yes"/>
      <point x="616" y="700"/>
      <point x="538" y="700"/>
    </contour>
  </outline>
</glyph>
<glyph name="N" format="1">
  <advance width="700"/>
  <unicode hex="004E"/>
  <outline>
    <contour>
      <point x="232" y="0" type="curve"/>
      <point x="232" y="163" type="line"/>
      <point x="213" y="593"/>
      <point x="206" y="678"/>
      <point x="202" y="682" type="curve" smooth="yes"/>
      <point x="191" y="693"/>
      <point x="178" y="700"/>
      <point x="164" y="700" type="curve"/>
      <point x="128" y="700"/>
      <point x="74" y="700"/>
      <point x="52" y="700" type="curve"/>
      <point x="52" y="660"/>
      <point x="52" y="600"/>
      <point x="52" y="560" type="curve" smooth="yes"/>
      <point x="52" y="11" type="line"/>
      <point x="52" y="5"/>
      <point x="58" y="0"/>
      <point x="64" y="0" type="curve"/>
      <point x="120" y="0"/>
      <point x="176" y="0"/>
    </contour>
    <contour>
      <point x="648" y="0" type="line"/>
      <point x="648" y="689" type="line"/>
      <point x="648" y="695"/>
      <point x="642" y="700"/>
      <point x="636" y="700" type="curve"/>
      <point x="468" y="700" type="line"/>
      <point x="468" y="494" type="line"/>
      <point x="487" y="114"/>
      <point x="497" y="15"/>
      <point x="498" y="13" type="curve" smooth="yes"/>
      <point x="507" y="5"/>
      <point x="519" y="0"/>
      <point x="532" y="0" type="curve"/>
    </contour>
    <contour>
      <point x="159" y="700" type="line"/>
      <point x="108" y="654"/>
      <point x="106" y="648"/>
      <point x="80" y="609" type="curve"/>
      <point x="214" y="409"/>
      <point x="347" y="208"/>
      <point x="480" y="8" type="curve"/>
      <point x="484" y="1"/>
      <point x="488" y="0"/>
      <point x="492" y="0" type="curve" smooth="yes"/>
      <point x="496" y="0"/>
      <point x="540" y="-1"/>
      <point x="542" y="0" type="curve"/>
      <point x="580" y="70"/>
      <point x="586" y="130"/>
      <point x="582" y="166" type="curve"/>
      <point x="464" y="340"/>
      <point x="346" y="516"/>
      <point x="228" y="690" type="curve"/>
      <point x="224" y="698"/>
      <point x="220" y="700"/>
      <point x="209" y="700" type="curve"/>
    </contour>
    <contour>
      <point x="350" y="711" type="move" name="top"/>
    </contour>
    <contour>
      <point x="350" y="-1" type="move" name="bottom"/>
    </contour>
  </outline>
</glyph>
<glyph name="O" format="1">
  <advance width="650"/>
  <unicode hex="004F"/>
  <outline>
    <contour>
      <point x="325" y="720" type="curve" smooth="yes"/>
      <point x="155" y="720"/>
      <point x="42" y="604"/>
      <point x="42" y="440" type="curve" smooth="yes"/>
      <point x="42" y="256" type="line" smooth="yes"/>
      <point x="42" y="86"/>
      <point x="154" y="-20"/>
      <point x="325" y="-20" type="curve" smooth="yes"/>
      <point x="330" y="-20"/>
      <point x="350" y="4"/>
      <point x="325" y="151" type="curve"/>
      <point x="264" y="151"/>
      <point x="230" y="188"/>
      <point x="230" y="254" type="curve" smooth="yes"/>
      <point x="230" y="442" type="line" smooth="yes"/>
      <point x="230" y="508"/>
      <point x="268" y="549"/>
      <point x="325" y="549" type="curve" smooth="yes"/>
      <point x="390" y="549"/>
      <point x="436" y="549"/>
      <point x="468" y="549" type="curve"/>
      <point x="468" y="644"/>
      <point x="432" y="720"/>
    </contour>
    <contour>
      <point x="325" y="-20" type="curve" smooth="yes"/>
      <point x="495" y="-20"/>
      <point x="608" y="96"/>
      <point x="608" y="260" type="curve" smooth="yes"/>
      <point x="608" y="444" type="line" smooth="yes"/>
      <point x="608" y="614"/>
      <point x="496" y="720"/>
      <point x="325" y="720" type="curve" smooth="yes"/>
      <point x="320" y="720"/>
      <point x="300" y="696"/>
      <point x="325" y="549" type="curve"/>
      <point x="386" y="549"/>
      <point x="420" y="512"/>
      <point x="420" y="446" type="curve" smooth="yes"/>
      <point x="420" y="258" type="line" smooth="yes"/>
      <point x="420" y="192"/>
      <point x="382" y="151"/>
      <point x="325" y="151" type="curve" smooth="yes"/>
      <point x="260" y="151"/>
      <point x="215" y="151"/>
      <point x="182" y="151" type="curve"/>
      <point x="182" y="56"/>
      <point x="218" y="-20"/>
    </contour>
    <contour>
      <point x="325" y="711" type="move" name="top"/>
    </contour>
    <contour>
      <point x="442" y="9" type="move" name="ogonek"/>
    </contour>
    <contour>
      <point x="325" y="-1" type="move" name="bottom"/>
    </contour>
  </outline>
</glyph>
<glyph name="P" format="1">
  <advance width="600"/>
  <unicode hex="0050"/>
  <outline>
    <contour>
      <point x="246" y="0" type="curve"/>
      <point x="246" y="32"/>
      <point x="246" y="66"/>
      <point x="246" y="100" type="curve" smooth="yes"/>
      <point x="246" y="639" type="line" smooth="yes"/>
      <point x="246" y="645"/>
      <point x="240" y="650"/>
      <point x="55" y="650" type="curve"/>
      <point x="55" y="11" type="line" smooth="yes"/>
      <point x="55" y="8"/>
      <point x="56" y="5"/>
      <point x="58" y="3" type="curve" smooth="yes"/>
      <point x="60" y="1"/>
      <point x="63" y="0"/>
      <point x="66" y="0" type="curve" smooth="yes"/>
      <point x="126" y="0"/>
      <point x="185" y="0"/>
    </contour>
    <contour>
      <point x="22" y="700" type="curve"/>
      <point x="22" y="646"/>
      <point x="22" y="594"/>
      <point x="22" y="540" type="curve"/>
      <point x="22" y="537"/>
      <point x="24" y="534"/>
      <point x="26" y="532" type="curve" smooth="yes"/>
      <point x="28" y="530"/>
      <point x="30" y="529"/>
      <point x="34" y="529" type="curve" smooth="yes"/>
      <point x="50" y="529"/>
      <point x="86" y="529"/>
      <point x="104" y="529" type="curve" smooth="yes"/>
      <point x="168" y="529"/>
      <point x="242" y="529"/>
      <point x="302" y="529" type="curve" smooth="yes"/>
      <point x="348" y="529"/>
      <point x="378" y="529"/>
      <point x="428" y="529" type="curve"/>
      <point x="428" y="640"/>
      <point x="396" y="700"/>
      <point x="322" y="700" type="curve" smooth="yes"/>
      <point x="252" y="700"/>
      <point x="98" y="700"/>
    </contour>
    <contour>
      <point x="560" y="406" type="curve" smooth="yes"/>
      <point x="560" y="470" type="line" smooth="yes"/>
      <point x="560" y="614"/>
      <point x="482" y="700"/>
      <point x="322" y="700" type="curve"/>
      <point x="308" y="700"/>
      <point x="288" y="688"/>
      <point x="302" y="529" type="curve"/>
      <point x="344" y="529"/>
      <point x="365" y="518"/>
      <point x="365" y="466" type="curve" smooth="yes"/>
      <point x="365" y="406" type="line" smooth="yes"/>
      <point x="365" y="367"/>
      <point x="343" y="344"/>
      <point x="307" y="344" type="curve" smooth="yes"/>
      <point x="278" y="344"/>
      <point x="218" y="344"/>
      <point x="180" y="344" type="curve"/>
      <point x="180" y="294"/>
      <point x="180" y="250"/>
      <point x="180" y="188" type="curve" smooth="yes"/>
      <point x="180" y="182"/>
      <point x="185" y="178"/>
      <point x="191" y="178" type="curve" smooth="yes"/>
      <point x="344" y="178" type="line" smooth="yes"/>
      <point x="478" y="178"/>
      <point x="560" y="264"/>
    </contour>
  </outline>
</glyph>
<glyph name="Q" format="1">
  <advance width="650"/>
  <unicode hex="0051"/>
  <outline>
    <contour>
      <point x="325" y="720" type="curve" smooth="yes"/>
      <point x="155" y="720"/>
      <point x="42" y="604"/>
      <point x="42" y="440" type="curve" smooth="yes"/>
      <point x="42" y="256" type="line" smooth="yes"/>
      <point x="42" y="86"/>
      <point x="154" y="-20"/>
      <point x="325" y="-20" type="curve" smooth="yes"/>
      <point x="330" y="-20"/>
      <point x="350" y="4"/>
      <point x="325" y="151" type="curve"/>
      <point x="264" y="151"/>
      <point x="230" y="188"/>
      <point x="230" y="254" type="curve" smooth="yes"/>
      <point x="230" y="442" type="line" smooth="yes"/>
      <point x="230" y="508"/>
      <point x="268" y="549"/>
      <point x="325" y="549" type="curve" smooth="yes"/>
      <point x="390" y="549"/>
      <point x="436" y="549"/>
      <point x="468" y="549" type="curve"/>
      <point x="468" y="644"/>
      <point x="432" y="720"/>
    </contour>
    <contour>
      <point x="325" y="-20" type="curve" smooth="yes"/>
      <point x="495" y="-20"/>
      <point x="608" y="96"/>
      <point x="608" y="260" type="curve" smooth="yes"/>
      <point x="608" y="444" type="line" smooth="yes"/>
      <point x="608" y="614"/>
      <point x="496" y="720"/>
      <point x="325" y="720" type="curve" smooth="yes"/>
      <point x="320" y="720"/>
      <point x="300" y="696"/>
      <point x="325" y="549" type="curve"/>
      <point x="386" y="549"/>
      <point x="420" y="512"/>
      <point x="420" y="446" type="curve" smooth="yes"/>
      <point x="420" y="258" type="line" smooth="yes"/>
      <point x="420" y="192"/>
      <point x="382" y="151"/>
      <point x="325" y="151" type="curve" smooth="yes"/>
      <point x="260" y="151"/>
      <point x="214" y="151"/>
      <point x="182" y="151" type="curve"/>
      <point x="182" y="56"/>
      <point x="218" y="-20"/>
    </contour>
    <contour>
      <point x="489" y="137" type="line"/>
      <point x="346" y="72"/>
      <point x="328" y="60"/>
      <point x="341" y="39" type="curve" smooth="yes"/>
      <point x="415" y="-82" type="line" smooth="yes"/>
      <point x="456" y="-148"/>
      <point x="492" y="-168"/>
      <point x="577" y="-168" type="curve" smooth="yes"/>
      <point x="609" y="-168" type="line" smooth="yes"/>
      <point x="616" y="-168"/>
      <point x="620" y="-164"/>
      <point x="620" y="-158" type="curve" smooth="yes"/>
      <point x="620" y="-100"/>
      <point x="620" y="-50"/>
      <point x="620" y="8" type="curve"/>
      <point x="605" y="8" type="line"/>
      <point x="600" y="8"/>
      <point x="596" y="8"/>
      <point x="592" y="8" type="curve" smooth="yes"/>
      <point x="570" y="8"/>
      <point x="561" y="14"/>
      <point x="550" y="32" type="curve" smooth="yes"/>
    </contour>
  </outline>
</glyph>
<glyph name="T" format="1">
  <advance width="600"/>
  <unicode hex="0054"/>
  <outline>
    <contour>
      <point x="40" y="700" type="line"/>
      <point x="40" y="645"/>
      <point x="40" y="590"/>
      <point x="40" y="535" type="curve" smooth="yes"/>
      <point x="40" y="532"/>
      <point x="41" y="529"/>
      <point x="43" y="527" type="curve" smooth="yes"/>
      <point x="45" y="525"/>
      <point x="48" y="524"/>
      <point x="51" y="524" type="curve" smooth="yes"/>
      <point x="560" y="524" type="line"/>
      <point x="560" y="578"/>
      <point x="560" y="634"/>
      <point x="560" y="689" type="curve" smooth="yes"/>
      <point x="560" y="695"/>
      <point x="555" y="700"/>
      <point x="549" y="700" type="curve" smooth="yes"/>
    </contour>
    <contour>
      <point x="396" y="0" type="curve"/>
      <point x="396" y="32"/>
      <point x="396" y="66"/>
      <point x="396" y="100" type="curve" smooth="yes"/>
      <point x="396" y="639" type="line" smooth="yes"/>
      <point x="396" y="645"/>
      <point x="392" y="650"/>
      <point x="204" y="650" type="curve"/>
      <point x="204" y="11" type="line" smooth="yes"/>
      <point x="204" y="8"/>
      <point x="204" y="5"/>
      <point x="206" y="3" type="curve" smooth="yes"/>
      <point x="208" y="1"/>
      <point x="212" y="0"/>
      <point x="214" y="0" type="curve" smooth="yes"/>
      <point x="276" y="0"/>
      <point x="336" y="0"/>
    </contour>
    <contour>
      <point x="300" y="711" type="move" name="top"/>
    </contour>
    <contour>
      <point x="300" y="-1" type="move" name="bottom"/>
    </contour>
  </outline>
</glyph>
<glyph name="U" format="1">
  <advance width="650"/>
  <unicode hex="0055"/>
  <outline>
    <contour>
      <point x="52" y="700" type="curve"/>
      <point x="52" y="670"/>
      <point x="52" y="636"/>
      <point x="52" y="601" type="curve" smooth="yes"/>
      <point x="52" y="171" type="line"/>
      <point x="52" y="120"/>
      <point x="92" y="118"/>
      <point x="245" y="104" type="curve"/>
      <point x="245" y="144"/>
      <point x="245" y="175"/>
      <point x="245" y="218" type="curve"/>
      <point x="245" y="689" type="line"/>
      <point x="245" y="695"/>
      <point x="240" y="700"/>
      <point x="234" y="700" type="curve"/>
      <point x="174" y="700"/>
      <point x="113" y="700"/>
    </contour>
    <contour>
      <point x="212" y="-10" type="curve" smooth="yes"/>
      <point x="306" y="-10"/>
      <point x="365" y="35"/>
      <point x="420" y="108" type="curve" smooth="yes"/>
      <point x="446" y="142"/>
      <point x="446" y="192"/>
      <point x="426" y="246" type="curve"/>
      <point x="382" y="194"/>
      <point x="336" y="171"/>
      <point x="288" y="171" type="curve" smooth="yes"/>
      <point x="256" y="171"/>
      <point x="245" y="183"/>
      <point x="245" y="218" type="curve"/>
      <point x="124" y="218"/>
      <point x="52" y="190"/>
      <point x="52" y="171" type="curve" smooth="yes"/>
      <point x="52" y="57"/>
      <point x="107" y="-10"/>
    </contour>
    <contour>
      <point x="598" y="0" type="curve"/>
      <point x="598" y="30"/>
      <point x="598" y="66"/>
      <point x="598" y="104" type="curve" smooth="yes"/>
      <point x="598" y="689" type="line" smooth="yes"/>
      <point x="598" y="695"/>
      <point x="592" y="700"/>
      <point x="586" y="700" type="curve" smooth="yes"/>
      <point x="535" y="700"/>
      <point x="457" y="700"/>
      <point x="405" y="700" type="curve"/>
      <point x="405" y="11" type="line" smooth="yes"/>
      <point x="405" y="8"/>
      <point x="406" y="5"/>
      <point x="408" y="3" type="curve" smooth="yes"/>
      <point x="410" y="1"/>
      <point x="413" y="0"/>
      <point x="416" y="0" type="curve" smooth="yes"/>
      <point x="466" y="0"/>
      <point x="543" y="0"/>
    </contour>
    <contour>
      <point x="325" y="711" type="move" name="top"/>
    </contour>
    <contour>
      <point x="598" y="0" type="move" name="ogonek"/>
    </contour>
    <contour>
      <point x="325" y="711" type="move" name="ring"/>
    </contour>
    <contour>
      <point x="325" y="-1" type="move" name="bottom"/>
    </contour>
  </outline>
</glyph>
<glyph name="V" format="1">
  <advance width="650"/>
  <unicode hex="0056"/>
  <outline>
    <contour>
      <point x="198" y="700" type="curve"/>
      <point x="24" y="700" type="line"/>
      <point x="75" y="474"/>
      <point x="126" y="242"/>
      <point x="178" y="15" type="curve"/>
      <point x="180" y="5"/>
      <point x="189" y="0"/>
      <point x="199" y="0" type="curve"/>
      <point x="264" y="0"/>
      <point x="404" y="46"/>
      <point x="404" y="161" type="curve"/>
      <point x="372" y="161"/>
      <point x="349" y="161"/>
      <point x="324" y="161" type="curve" smooth="yes"/>
      <point x="317" y="161"/>
      <point x="315" y="162"/>
      <point x="314" y="170" type="curve"/>
      <point x="282" y="338"/>
      <point x="248" y="511"/>
      <point x="215" y="683" type="curve"/>
      <point x="213" y="694"/>
      <point x="207" y="700"/>
    </contour>
    <contour>
      <point x="610" y="700" type="curve"/>
      <point x="438" y="700" type="line"/>
      <point x="401" y="502"/>
      <point x="362" y="299"/>
      <point x="325" y="100" type="curve"/>
      <point x="314" y="32"/>
      <point x="245" y="14"/>
      <point x="199" y="0" type="curve"/>
      <point x="468" y="0" type="line"/>
      <point x="520" y="226"/>
      <point x="571" y="454"/>
      <point x="622" y="681" type="curve"/>
      <point x="624" y="691"/>
      <point x="620" y="700"/>
    </contour>
  </outline>
</glyph>
<glyph name="W" format="1">
  <advance width="900"/>
  <unicode hex="0057"/>
  <outline>
    <contour>
      <point x="25" y="700" type="curve"/>
      <point x="62" y="472"/>
      <point x="100" y="243"/>
      <point x="138" y="15" type="curve"/>
      <point x="140" y="5"/>
      <point x="149" y="0"/>
      <point x="159" y="0" type="curve"/>
      <point x="202" y="0" type="line" smooth="yes"/>
      <point x="234" y="0"/>
      <point x="282" y="16"/>
      <point x="296" y="34" type="curve"/>
      <point x="266" y="250"/>
      <point x="236" y="466"/>
      <point x="206" y="682" type="curve"/>
      <point x="206" y="692"/>
      <point x="204" y="695"/>
      <point x="202" y="697" type="curve" smooth="yes"/>
      <point x="200" y="699"/>
      <point x="198" y="700"/>
      <point x="194" y="700" type="curve"/>
      <point x="141" y="700"/>
      <point x="76" y="700"/>
    </contour>
    <contour>
      <point x="696" y="700" type="curve"/>
      <point x="668" y="501"/>
      <point x="640" y="300"/>
      <point x="612" y="101" type="curve"/>
      <point x="605" y="40"/>
      <point x="592" y="15"/>
      <point x="576" y="0" type="curve"/>
      <point x="760" y="0" type="line"/>
      <point x="797" y="229"/>
      <point x="835" y="458"/>
      <point x="872" y="687" type="curve" smooth="yes"/>
      <point x="874" y="693"/>
      <point x="872" y="695"/>
      <point x="870" y="697" type="curve" smooth="yes"/>
      <point x="868" y="699"/>
      <point x="868" y="700"/>
      <point x="864" y="700" type="curve"/>
      <point x="812" y="700"/>
      <point x="747" y="700"/>
    </contour>
    <contour>
      <point x="493" y="627" type="curve"/>
      <point x="368" y="627" type="line"/>
      <point x="326" y="452"/>
      <point x="285" y="276"/>
      <point x="243" y="101" type="curve"/>
      <point x="226" y="33"/>
      <point x="195" y="14"/>
      <point x="159" y="0" type="curve"/>
      <point x="359" y="0" type="line"/>
      <point x="408" y="202"/>
      <point x="457" y="406"/>
      <point x="506" y="608" type="curve" smooth="yes"/>
      <point x="509" y="619"/>
      <point x="504" y="627"/>
    </contour>
    <contour>
      <point x="520" y="627" type="curve"/>
      <point x="388" y="627" type="line"/>
      <point x="436" y="423"/>
      <point x="485" y="219"/>
      <point x="534" y="15" type="curve" smooth="yes"/>
      <point x="536" y="5"/>
      <point x="544" y="0"/>
      <point x="554" y="0" type="curve"/>
      <point x="630" y="0" type="line"/>
      <point x="642" y="0"/>
      <point x="674" y="10"/>
      <point x="674" y="24" type="curve"/>
      <point x="627" y="221"/>
      <point x="580" y="419"/>
      <point x="534" y="616" type="curve" smooth="yes"/>
      <point x="532" y="623"/>
      <point x="526" y="627"/>
    </contour>
    <contour>
      <point x="448" y="711" type="move" name="top"/>
    </contour>
  </outline>
</glyph>
<glyph name="X" format="1">
  <advance width="650"/>
  <unicode hex="0058"/>
  <outline>
    <contour>
      <point x="420" y="0" type="curve" smooth="yes"/>
      <point x="482" y="0"/>
      <point x="551" y="0"/>
      <point x="614" y="0" type="curve"/>
      <point x="548" y="129"/>
      <point x="481" y="258"/>
      <point x="414" y="387" type="curve" smooth="yes"/>
      <point x="404" y="406"/>
      <point x="356" y="402"/>
      <point x="347" y="421" type="curve" smooth="yes"/>
      <point x="306" y="511"/>
      <point x="268" y="600"/>
      <point x="228" y="690" type="curve" smooth="yes"/>
      <point x="224" y="697"/>
      <point x="218" y="700"/>
      <point x="208" y="700" type="curve" smooth="yes"/>
      <point x="16" y="700" type="line"/>
      <point x="80" y="570"/>
      <point x="144" y="441"/>
      <point x="207" y="312" type="curve" smooth="yes"/>
      <point x="216" y="294"/>
      <point x="270" y="294"/>
      <point x="280" y="274" type="curve" smooth="yes"/>
      <point x="320" y="186"/>
      <point x="360" y="98"/>
      <point x="400" y="11" type="curve" smooth="yes"/>
      <point x="404" y="2"/>
      <point x="412" y="0"/>
    </contour>
    <contour>
      <point x="594" y="700" type="curve" smooth="yes"/>
      <point x="414" y="700" type="line"/>
      <point x="369" y="592"/>
      <point x="325" y="485"/>
      <point x="280" y="378" type="curve"/>
      <point x="272" y="360"/>
      <point x="292" y="323"/>
      <point x="403" y="262" type="curve"/>
      <point x="470" y="402"/>
      <point x="536" y="541"/>
      <point x="602" y="681" type="curve"/>
      <point x="606" y="688"/>
      <point x="606" y="693"/>
      <point x="603" y="696" type="curve" smooth="yes"/>
      <point x="601" y="699"/>
      <point x="598" y="700"/>
    </contour>
    <contour>
      <point x="28" y="0" type="curve"/>
      <point x="212" y="0" type="line"/>
      <point x="257" y="106"/>
      <point x="302" y="212"/>
      <point x="346" y="318" type="curve"/>
      <point x="354" y="338"/>
      <point x="330" y="370"/>
      <point x="222" y="426" type="curve"/>
      <point x="154" y="290"/>
      <point x="86" y="155"/>
      <point x="18" y="20" type="curve" smooth="yes"/>
      <point x="15" y="14"/>
      <point x="15" y="7"/>
      <point x="19" y="3" type="curve" smooth="yes"/>
      <point x="21" y="1"/>
      <point x="24" y="0"/>
    </contour>
  </outline>
</glyph>
<glyph name="bracketleft" format="1">
  <advance width="400"/>
  <unicode hex="005B"/>
  <outline>
    <contour>
      <point x="124" y="640" type="curve" smooth="yes"/>
      <point x="124" y="54" type="line" smooth="yes"/>
      <point x="124" y="44"/>
      <point x="164" y="44"/>
      <point x="316" y="44" type="curve"/>
      <point x="316" y="736" type="line" smooth="yes"/>
      <point x="316" y="742"/>
      <point x="310" y="747"/>
      <point x="283" y="747" type="curve" smooth="yes"/>
      <point x="219" y="747"/>
      <point x="187" y="747"/>
      <point x="124" y="747" type="curve"/>
      <point x="124" y="711"/>
      <point x="124" y="676"/>
    </contour>
    <contour>
      <point x="439" y="571" type="line"/>
      <point x="439" y="628"/>
      <point x="439" y="680"/>
      <point x="439" y="736" type="curve" smooth="yes"/>
      <point x="439" y="739"/>
      <point x="438" y="742"/>
      <point x="436" y="744" type="curve" smooth="yes"/>
      <point x="434" y="746"/>
      <point x="431" y="747"/>
      <point x="428" y="747" type="curve" smooth="yes"/>
      <point x="283" y="747" type="line"/>
      <point x="283" y="580"/>
      <point x="289" y="571"/>
      <point x="294" y="571" type="curve"/>
    </contour>
    <contour>
      <point x="439" y="-120" type="line"/>
      <point x="439" y="-64"/>
      <point x="439" y="-12"/>
      <point x="439" y="44" type="curve" smooth="yes"/>
      <point x="439" y="50"/>
      <point x="434" y="56"/>
      <point x="428" y="56" type="curve" smooth="yes"/>
      <point x="124" y="56" type="line"/>
      <point x="124" y="-110" type="line" smooth="yes"/>
      <point x="124" y="-116"/>
      <point x="129" y="-120"/>
      <point x="135" y="-120" type="curve" smooth="yes"/>
    </contour>
  </outline>
</glyph>
<glyph name="backslash" format="1">
  <advance width="600"/>
  <unicode hex="005C"/>
  <outline>
    <contour>
      <point x="50" y="750" type="curve"/>
      <point x="160" y="461"/>
      <point x="268" y="170"/>
      <point x="376" y="-119" type="curve" smooth="yes"/>
      <point x="380" y="-127"/>
      <point x="386" y="-130"/>
      <point x="392" y="-130" type="curve" smooth="yes"/>
      <point x="452" y="-130"/>
      <point x="508" y="-130"/>
      <point x="568" y="-130" type="curve"/>
      <point x="554" y="-94"/>
      <point x="541" y="-57"/>
      <point x="527" y="-21" type="curve"/>
      <point x="432" y="233"/>
      <point x="336" y="489"/>
      <point x="240" y="743" type="curve"/>
      <point x="238" y="748"/>
      <point x="234" y="750"/>
      <point x="228" y="750" type="curve" smooth="yes"/>
      <point x="168" y="750"/>
      <point x="111" y="750"/>
    </contour>
  </outline>
</glyph>
<glyph name="bracketright" format="1">
  <advance width="400"/>
  <unicode hex="005D"/>
  <outline>
    <contour>
      <point x="376" y="-14" type="curve" smooth="yes"/>
      <point x="376" y="572" type="line" smooth="yes"/>
      <point x="376" y="582"/>
      <point x="336" y="582"/>
      <point x="184" y="582" type="curve"/>
      <point x="184" y="-110" type="line" smooth="yes"/>
      <point x="184" y="-116"/>
      <point x="190" y="-121"/>
      <point x="217" y="-121" type="curve" smooth="yes"/>
      <point x="281" y="-121"/>
      <point x="313" y="-121"/>
      <point x="376" y="-121" type="curve"/>
      <point x="376" y="-85"/>
      <point x="376" y="-50"/>
    </contour>
    <contour>
      <point x="61" y="55" type="line"/>
      <point x="61" y="-2"/>
      <point x="61" y="-54"/>
      <point x="61" y="-110" type="curve" smooth="yes"/>
      <point x="61" y="-113"/>
      <point x="62" y="-116"/>
      <point x="64" y="-118" type="curve" smooth="yes"/>
      <point x="66" y="-120"/>
      <point x="69" y="-121"/>
      <point x="72" y="-121" type="curve" smooth="yes"/>
      <point x="217" y="-121" type="line"/>
      <point x="217" y="46"/>
      <point x="211" y="55"/>
      <point x="206" y="55" type="curve"/>
    </contour>
    <contour>
      <point x="61" y="746" type="line"/>
      <point x="61" y="690"/>
      <point x="61" y="638"/>
      <point x="61" y="582" type="curve" smooth="yes"/>
      <point x="61" y="576"/>
      <point x="66" y="570"/>
      <point x="72" y="570" type="curve" smooth="yes"/>
      <point x="376" y="570" type="line"/>
      <point x="376" y="736" type="line" smooth="yes"/>
      <point x="376" y="742"/>
      <point x="371" y="746"/>
      <point x="365" y="746" type="curve" smooth="yes"/>
    </contour>
  </outline>
</glyph>
<glyph name="underscore" format="1">
  <advance width="600"/>
  <unicode hex="005F"/>
  <outline>
    <contour>
      <point x="42" y="-34" type="line"/>
      <point x="42" y="-90"/>
      <point x="42" y="-144"/>
      <point x="42" y="-200" type="curve" smooth="yes"/>
      <point x="42" y="-202"/>
      <point x="43" y="-206"/>
      <point x="45" y="-208" type="curve" smooth="yes"/>
      <point x="47" y="-210"/>
      <point x="50" y="-210"/>
      <point x="53" y="-210" type="curve"/>
      <point x="558" y="-210" type="line"/>
      <point x="558" y="-154"/>
      <point x="558" y="-102"/>
      <point x="558" y="-46" type="curve" smooth="yes"/>
      <point x="558" y="-40"/>
      <point x="553" y="-34"/>
      <point x="547" y="-34" type="curve"/>
    </contour>
  </outline>
</glyph>
<glyph name="grave" format="1">
  <advance width="600"/>
  <unicode hex="0060"/>
  <outline>
    <contour>
      <point x="442" y="351" type="curve"/>
      <point x="418" y="469"/>
      <point x="394" y="589"/>
      <point x="370" y="707" type="curve"/>
      <point x="274" y="707"/>
      <point x="226" y="707"/>
      <point x="143" y="707" type="curve" smooth="yes"/>
      <point x="135" y="707"/>
      <point x="132" y="702"/>
      <point x="135" y="694" type="curve" smooth="yes"/>
      <point x="166" y="610"/>
      <point x="216" y="472"/>
      <point x="257" y="358" type="curve" smooth="yes"/>
      <point x="259" y="352"/>
      <point x="262" y="351"/>
      <point x="267" y="351" type="curve" smooth="yes"/>
      <point x="344" y="351"/>
      <point x="396" y="351"/>
    </contour>
  </outline>
</glyph>
<glyph name="b" format="1">
  <advance width="600"/>
  <unicode hex="0062"/>
  <outline>
    <contour>
      <point x="52" y="0" type="line"/>
      <point x="78" y="0"/>
      <point x="122" y="0"/>
      <point x="148" y="0" type="curve" smooth="yes"/>
      <point x="156" y="0"/>
      <point x="242" y="100"/>
      <point x="242" y="112" type="curve" smooth="yes"/>
      <point x="242" y="739" type="line"/>
      <point x="242" y="745"/>
      <point x="238" y="750"/>
      <point x="232" y="750" type="curve" smooth="yes"/>
      <point x="184" y="750"/>
      <point x="100" y="750"/>
      <point x="52" y="750" type="curve"/>
      <point x="52" y="701"/>
      <point x="52" y="652"/>
      <point x="52" y="603" type="curve" smooth="yes"/>
    </contour>
    <contour>
      <point x="403" y="556" type="curve" smooth="yes"/>
      <point x="348" y="556"/>
      <point x="288" y="530"/>
      <point x="242" y="484" type="curve" smooth="yes"/>
      <point x="188" y="430"/>
      <point x="168" y="370"/>
      <point x="186" y="318" type="curve"/>
      <point x="242" y="368"/>
      <point x="277" y="384"/>
      <point x="320" y="384" type="curve" smooth="yes"/>
      <point x="352" y="384"/>
      <point x="368" y="368"/>
      <point x="368" y="329" type="curve"/>
      <point x="494" y="329"/>
      <point x="558" y="346"/>
      <point x="558" y="380" type="curve" smooth="yes"/>
      <point x="558" y="482"/>
      <point x="495" y="556"/>
    </contour>
    <contour>
      <point x="372" y="-10" type="curve" smooth="yes"/>
      <point x="488" y="-10"/>
      <point x="558" y="69"/>
      <point x="558" y="198" type="curve" smooth="yes"/>
      <point x="558" y="380" type="line" smooth="yes"/>
      <point x="558" y="450"/>
      <point x="482" y="485"/>
      <point x="405" y="485" type="curve"/>
      <point x="363" y="485"/>
      <point x="350" y="472"/>
      <point x="350" y="446" type="curve"/>
      <point x="362" y="417"/>
      <point x="368" y="392"/>
      <point x="368" y="329" type="curve" smooth="yes"/>
      <point x="368" y="214" type="line" smooth="yes"/>
      <point x="368" y="172"/>
      <point x="350" y="152"/>
      <point x="314" y="152" type="curve" smooth="yes"/>
      <point x="274" y="152"/>
      <point x="232" y="170"/>
      <point x="188" y="212" type="curve"/>
      <point x="183" y="196"/>
      <point x="178" y="156"/>
      <point x="178" y="142" type="curve" smooth="yes"/>
      <point x="178" y="81"/>
      <point x="264" y="-10"/>
    </contour>
  </outline>
</glyph>
<glyph name="c" format="1">
  <advance width="500"/>
  <unicode hex="0063"/>
  <outline>
    <contour>
      <point x="316" y="560" type="curve" smooth="yes"/>
      <point x="136" y="560"/>
      <point x="38" y="456"/>
      <point x="38" y="314" type="curve" smooth="yes"/>
      <point x="38" y="229" type="line" smooth="yes"/>
      <point x="38" y="71"/>
      <point x="140" y="-14"/>
      <point x="316" y="-14" type="curve" smooth="yes"/>
      <point x="349" y="-14"/>
      <point x="354" y="5"/>
      <point x="320" y="156" type="curve"/>
      <point x="258" y="156"/>
      <point x="228" y="189"/>
      <point x="228" y="248" type="curve" smooth="yes"/>
      <point x="228" y="298" type="line" smooth="yes"/>
      <point x="228" y="362"/>
      <point x="262" y="389"/>
      <point x="320" y="389" type="curve" smooth="yes"/>
      <point x="368" y="389"/>
      <point x="404" y="382"/>
      <point x="445" y="367" type="curve"/>
      <point x="465" y="367" type="line"/>
      <point x="465" y="420"/>
      <point x="465" y="470"/>
      <point x="465" y="524" type="curve"/>
      <point x="465" y="527"/>
      <point x="464" y="530"/>
      <point x="462" y="532" type="curve" smooth="yes"/>
      <point x="449" y="545"/>
      <point x="388" y="560"/>
    </contour>
    <contour>
      <point x="316" y="-14" type="curve" smooth="yes"/>
      <point x="388" y="-14"/>
      <point x="450" y="0"/>
      <point x="462" y="13" type="curve" smooth="yes"/>
      <point x="464" y="15"/>
      <point x="465" y="18"/>
      <point x="465" y="21" type="curve"/>
      <point x="465" y="72"/>
      <point x="465" y="126"/>
      <point x="465" y="178" type="curve"/>
      <point x="445" y="178" type="line"/>
      <point x="404" y="164"/>
      <point x="368" y="156"/>
      <point x="320" y="156" type="curve" smooth="yes"/>
      <point x="247" y="156"/>
      <point x="203" y="172"/>
      <point x="154" y="206" type="curve"/>
      <point x="109" y="82"/>
      <point x="174" y="-14"/>
    </contour>
    <contour>
      <point x="288" y="556" type="move" name="top"/>
    </contour>
    <contour>
      <point x="288" y="-1" type="move" name="bottom"/>
    </contour>
  </outline>
</glyph>
<glyph name="d" format="1">
  <advance width="600"/>
  <unicode hex="0064"/>
  <outline>
    <contour>
      <point x="222" y="556" type="curve" smooth="yes"/>
      <point x="112" y="556"/>
      <point x="42" y="481"/>
      <point x="42" y="359" type="curve" smooth="yes"/>
      <point x="42" y="165" type="line" smooth="yes"/>
      <point x="42" y="96"/>
      <point x="106" y="61"/>
      <point x="172" y="61" type="curve" smooth="yes"/>
      <point x="220" y="61"/>
      <point x="250" y="74"/>
      <point x="250" y="100" type="curve"/>
      <point x="239" y="122"/>
      <point x="232" y="146"/>
      <point x="232" y="202" type="curve" smooth="yes"/>
      <point x="232" y="332" type="line" smooth="yes"/>
      <point x="232" y="374"/>
      <point x="250" y="394"/>
      <point x="286" y="394" type="curve" smooth="yes"/>
      <point x="326" y="394"/>
      <point x="360" y="378"/>
      <point x="404" y="336" type="curve"/>
      <point x="414" y="354"/>
      <point x="414" y="391"/>
      <point x="414" y="406" type="curve" smooth="yes"/>
      <point x="414" y="458"/>
      <point x="330" y="556"/>
    </contour>
    <contour>
      <point x="188" y="-10" type="curve" smooth="yes"/>
      <point x="250" y="-10"/>
      <point x="304" y="14"/>
      <point x="358" y="74" type="curve" smooth="yes"/>
      <point x="407" y="128"/>
      <point x="415" y="166"/>
      <point x="400" y="216" type="curve"/>
      <point x="352" y="175"/>
      <point x="324" y="158"/>
      <point x="276" y="158" type="curve" smooth="yes"/>
      <point x="244" y="158"/>
      <point x="232" y="170"/>
      <point x="232" y="202" type="curve"/>
      <point x="111" y="214"/>
      <point x="42" y="190"/>
      <point x="42" y="165" type="curve" smooth="yes"/>
      <point x="42" y="60"/>
      <point x="100" y="-10"/>
    </contour>
    <contour>
      <point x="358" y="750" type="curve"/>
      <point x="358" y="719"/>
      <point x="358" y="686"/>
      <point x="358" y="650" type="curve" smooth="yes"/>
      <point x="358" y="11" type="line"/>
      <point x="358" y="8"/>
      <point x="358" y="5"/>
      <point x="360" y="3" type="curve" smooth="yes"/>
      <point x="362" y="1"/>
      <point x="366" y="0"/>
      <point x="368" y="0" type="curve" smooth="yes"/>
      <point x="416" y="0"/>
      <point x="500" y="0"/>
      <point x="548" y="0" type="curve"/>
      <point x="548" y="42"/>
      <point x="548" y="84"/>
      <point x="548" y="126" type="curve" smooth="yes"/>
      <point x="548" y="739" type="line"/>
      <point x="548" y="742"/>
      <point x="546" y="745"/>
      <point x="544" y="747" type="curve" smooth="yes"/>
      <point x="542" y="749"/>
      <point x="540" y="750"/>
      <point x="536" y="750" type="curve" smooth="yes"/>
      <point x="488" y="750"/>
      <point x="406" y="750"/>
    </contour>
    <contour>
      <point x="444" y="711" type="move" name="caronslovak"/>
    </contour>
  </outline>
</glyph>
<glyph name="f" format="1">
  <advance width="400"/>
  <unicode hex="0066"/>
  <outline>
    <contour>
      <point x="268" y="0" type="curve"/>
      <point x="268" y="33"/>
      <point x="268" y="67"/>
      <point x="268" y="100" type="curve" smooth="yes"/>
      <point x="268" y="522" type="line" smooth="yes"/>
      <point x="268" y="532"/>
      <point x="268" y="540"/>
      <point x="268" y="556" type="curve" smooth="yes"/>
      <point x="268" y="589"/>
      <point x="286" y="604"/>
      <point x="316" y="604" type="curve"/>
      <point x="332" y="756"/>
      <point x="317" y="770"/>
      <point x="288" y="770" type="curve" smooth="yes"/>
      <point x="154" y="770"/>
      <point x="78" y="692"/>
      <point x="78" y="559" type="curve" smooth="yes"/>
      <point x="78" y="11" type="line" smooth="yes"/>
      <point x="78" y="5"/>
      <point x="83" y="0"/>
      <point x="89" y="0" type="curve" smooth="yes"/>
      <point x="151" y="0"/>
      <point x="212" y="0"/>
    </contour>
    <contour>
      <point x="180" y="592" type="curve"/>
      <point x="225" y="602"/>
      <point x="262" y="604"/>
      <point x="316" y="604" type="curve" smooth="yes"/>
      <point x="337" y="604"/>
      <point x="351" y="601"/>
      <point x="370" y="594" type="curve"/>
      <point x="390" y="594" type="line"/>
      <point x="390" y="642"/>
      <point x="390" y="693"/>
      <point x="390" y="742" type="curve"/>
      <point x="390" y="745"/>
      <point x="389" y="748"/>
      <point x="387" y="750" type="curve" smooth="yes"/>
      <point x="378" y="759"/>
      <point x="340" y="770"/>
      <point x="288" y="770" type="curve" smooth="yes"/>
      <point x="206" y="770"/>
      <point x="159" y="692"/>
    </contour>
    <contour>
      <point x="20" y="520" type="curve"/>
      <point x="20" y="470"/>
      <point x="20" y="412"/>
      <point x="20" y="361" type="curve" smooth="yes"/>
      <point x="20" y="358"/>
      <point x="21" y="355"/>
      <point x="23" y="353" type="curve" smooth="yes"/>
      <point x="25" y="351"/>
      <point x="28" y="350"/>
      <point x="31" y="350" type="curve" smooth="yes"/>
      <point x="140" y="350"/>
      <point x="263" y="350"/>
      <point x="370" y="350" type="curve"/>
      <point x="370" y="400"/>
      <point x="370" y="458"/>
      <point x="370" y="509" type="curve" smooth="yes"/>
      <point x="370" y="515"/>
      <point x="366" y="520"/>
      <point x="360" y="520" type="curve" smooth="yes"/>
      <point x="256" y="520"/>
      <point x="123" y="520"/>
    </contour>
  </outline>
</glyph>
<glyph name="g" format="1">
  <advance width="600"/>
  <unicode hex="0067"/>
  <outline>
    <contour>
      <point x="297" y="410" type="curve" smooth="yes"/>
      <point x="389" y="410"/>
      <point x="479" y="410"/>
      <point x="571" y="410" type="curve" smooth="yes"/>
      <point x="578" y="410"/>
      <point x="582" y="415"/>
      <point x="582" y="422" type="curve" smooth="yes"/>
      <point x="582" y="466"/>
      <point x="582" y="510"/>
      <point x="582" y="555" type="curve"/>
      <point x="485" y="555"/>
      <point x="388" y="555"/>
      <point x="290" y="555" type="curve" smooth="yes"/>
      <point x="148" y="555"/>
      <point x="45" y="491"/>
      <point x="45" y="372" type="curve" smooth="yes"/>
      <point x="45" y="338" type="line" smooth="yes"/>
      <point x="45" y="232"/>
      <point x="141" y="171"/>
      <point x="298" y="170" type="curve"/>
      <point x="312" y="170"/>
      <point x="328" y="194"/>
      <point x="293" y="304" type="curve"/>
      <point x="250" y="304"/>
      <point x="225" y="320"/>
      <point x="225" y="348" type="curve" smooth="yes"/>
      <point x="225" y="364" type="line" smooth="yes"/>
      <point x="225" y="394"/>
      <point x="252" y="410"/>
    </contour>
    <contour>
      <point x="293" y="304" type="curve" smooth="yes"/>
      <point x="234" y="304"/>
      <point x="188" y="318"/>
      <point x="144" y="338" type="curve"/>
      <point x="104" y="285"/>
      <point x="167" y="170"/>
      <point x="298" y="170" type="curve" smooth="yes"/>
      <point x="442" y="170"/>
      <point x="534" y="225"/>
      <point x="534" y="308" type="curve" smooth="yes"/>
      <point x="534" y="322" type="line" smooth="yes"/>
      <point x="534" y="381"/>
      <point x="467" y="432"/>
      <point x="388" y="432" type="curve" smooth="yes"/>
      <point x="369" y="432"/>
      <point x="358" y="429"/>
      <point x="346" y="422" type="curve"/>
      <point x="362" y="404"/>
      <point x="364" y="396"/>
      <point x="364" y="371" type="curve" smooth="yes"/>
      <point x="364" y="354" type="line" smooth="yes"/>
      <point x="364" y="319"/>
      <point x="339" y="304"/>
    </contour>
    <contour>
      <point x="106" y="82" type="curve" smooth="yes"/>
      <point x="106" y="78" type="line" smooth="yes"/>
      <point x="106" y="9"/>
      <point x="164" y="-38"/>
      <point x="246" y="-38" type="curve" smooth="yes"/>
      <point x="360" y="-38" type="line" smooth="yes"/>
      <point x="384" y="-38"/>
      <point x="393" y="-46"/>
      <point x="393" y="-69" type="curve" smooth="yes"/>
      <point x="393" y="-102" type="line" smooth="yes"/>
      <point x="393" y="-124"/>
      <point x="378" y="-130"/>
      <point x="358" y="-130" type="curve"/>
      <point x="343" y="-231"/>
      <point x="346" y="-250"/>
      <point x="372" y="-250" type="curve" smooth="yes"/>
      <point x="500" y="-250"/>
      <point x="580" y="-204"/>
      <point x="580" y="-79" type="curve" smooth="yes"/>
      <point x="580" y="-50" type="line" smooth="yes"/>
      <point x="580" y="51"/>
      <point x="514" y="108"/>
      <point x="380" y="108" type="curve" smooth="yes"/>
      <point x="288" y="108" type="line" smooth="yes"/>
      <point x="272" y="108"/>
      <point x="266" y="114"/>
      <point x="266" y="130" type="curve" smooth="yes"/>
      <point x="266" y="143" type="line" smooth="yes"/>
      <point x="266" y="160"/>
      <point x="266" y="177"/>
      <point x="266" y="194" type="curve"/>
      <point x="258" y="196"/>
      <point x="252" y="201"/>
      <point x="244" y="202" type="curve" smooth="yes"/>
      <point x="166" y="202"/>
      <point x="106" y="145"/>
    </contour>
    <contour>
      <point x="476" y="-130" type="curve"/>
      <point x="434" y="-130"/>
      <point x="398" y="-130"/>
      <point x="358" y="-130" type="curve" smooth="yes"/>
      <point x="246" y="-130" type="line" smooth="yes"/>
      <point x="216" y="-130"/>
      <point x="208" y="-121"/>
      <point x="208" y="-97" type="curve" smooth="yes"/>
      <point x="208" y="-68" type="line" smooth="yes"/>
      <point x="208" y="-38"/>
      <point x="212" y="-17"/>
      <point x="224" y="6" type="curve"/>
      <point x="216" y="16"/>
      <point x="195" y="23"/>
      <point x="165" y="23" type="curve" smooth="yes"/>
      <point x="80" y="23"/>
      <point x="26" y="-35"/>
      <point x="26" y="-106" type="curve" smooth="yes"/>
      <point x="26" y="-116" type="line" smooth="yes"/>
      <point x="26" y="-200"/>
      <point x="92" y="-250"/>
      <point x="194" y="-250" type="curve" smooth="yes"/>
      <point x="372" y="-250" type="line" smooth="yes"/>
      <point x="446" y="-250"/>
      <point x="476" y="-202"/>
    </contour>
  </outline>
</glyph>
<glyph name="h" format="1">
  <advance width="600"/>
  <unicode hex="0068"/>
  <outline>
    <contour>
      <point x="245" y="0" type="curve"/>
      <point x="245" y="739" type="line" smooth="yes"/>
      <point x="245" y="742"/>
      <point x="244" y="745"/>
      <point x="242" y="747" type="curve" smooth="yes"/>
      <point x="240" y="749"/>
      <point x="237" y="750"/>
      <point x="234" y="750" type="curve" smooth="yes"/>
      <point x="187" y="750"/>
      <point x="110" y="750"/>
      <point x="52" y="750" type="curve"/>
      <point x="52" y="722"/>
      <point x="52" y="688"/>
      <point x="52" y="652" type="curve" smooth="yes"/>
      <point x="52" y="11" type="line" smooth="yes"/>
      <point x="52" y="5"/>
      <point x="58" y="0"/>
      <point x="64" y="0" type="curve" smooth="yes"/>
      <point x="115" y="0"/>
      <point x="193" y="0"/>
    </contour>
    <contour>
      <point x="408" y="556" type="curve" smooth="yes"/>
      <point x="346" y="556"/>
      <point x="285" y="522"/>
      <point x="234" y="450" type="curve" smooth="yes"/>
      <point x="211" y="418"/>
      <point x="185" y="370"/>
      <point x="197" y="307" type="curve"/>
      <point x="254" y="356"/>
      <point x="288" y="371"/>
      <point x="326" y="371" type="curve" smooth="yes"/>
      <point x="346" y="371"/>
      <point x="355" y="360"/>
      <point x="355" y="340" type="curve"/>
      <point x="528" y="356"/>
      <point x="548" y="374"/>
      <point x="548" y="396" type="curve" smooth="yes"/>
      <point x="548" y="496"/>
      <point x="494" y="556"/>
    </contour>
    <contour>
      <point x="548" y="0" type="curve"/>
      <point x="548" y="28"/>
      <point x="548" y="62"/>
      <point x="548" y="98" type="curve" smooth="yes"/>
      <point x="548" y="396" type="line"/>
      <point x="548" y="432"/>
      <point x="491" y="442"/>
      <point x="348" y="401" type="curve"/>
      <point x="354" y="382"/>
      <point x="355" y="366"/>
      <point x="355" y="340" type="curve" smooth="yes"/>
      <point x="355" y="11" type="line" smooth="yes"/>
      <point x="355" y="5"/>
      <point x="360" y="0"/>
      <point x="366" y="0" type="curve" smooth="yes"/>
      <point x="426" y="0"/>
      <point x="487" y="0"/>
    </contour>
    <contour>
      <point x="140" y="730" type="move" name="top"/>
    </contour>
  </outline>
</glyph>
<glyph name="i" format="1">
  <advance width="350"/>
  <unicode hex="0069"/>
  <outline>
    <contour>
      <point x="25" y="545" type="curve"/>
      <point x="25" y="502"/>
      <point x="25" y="425"/>
      <point x="25" y="382" type="curve" smooth="yes"/>
      <point x="25" y="376"/>
      <point x="30" y="370"/>
      <point x="36" y="370" type="curve" smooth="yes"/>
      <point x="80" y="370"/>
      <point x="128" y="370"/>
      <point x="172" y="370" type="curve"/>
      <point x="172" y="461"/>
      <point x="160" y="545"/>
      <point x="128" y="545" type="curve" smooth="yes"/>
      <point x="94" y="545"/>
      <point x="58" y="545"/>
    </contour>
    <contour>
      <point x="285" y="0" type="curve"/>
      <point x="285" y="45"/>
      <point x="285" y="90"/>
      <point x="285" y="134" type="curve" smooth="yes"/>
      <point x="285" y="534" type="line" smooth="yes"/>
      <point x="285" y="540"/>
      <point x="280" y="545"/>
      <point x="274" y="545" type="curve" smooth="yes"/>
      <point x="98" y="545" type="line"/>
      <point x="98" y="11" type="line" smooth="yes"/>
      <point x="98" y="5"/>
      <point x="102" y="0"/>
      <point x="108" y="0" type="curve" smooth="yes"/>
      <point x="184" y="0"/>
      <point x="224" y="0"/>
    </contour>
    <contour>
      <point x="292" y="632" type="curve"/>
      <point x="292" y="774" type="line" smooth="yes"/>
      <point x="292" y="780"/>
      <point x="287" y="785"/>
      <point x="281" y="785" type="curve" smooth="yes"/>
      <point x="225" y="785"/>
      <point x="133" y="785"/>
      <point x="77" y="785" type="curve"/>
      <point x="77" y="644" type="line" smooth="yes"/>
      <point x="77" y="638"/>
      <point x="82" y="632"/>
      <point x="88" y="632" type="curve" smooth="yes"/>
      <point x="144" y="632"/>
      <point x="236" y="632"/>
    </contour>
    <contour>
      <point x="286" y="0" type="move" name="ogonek"/>
    </contour>
    <contour>
      <point x="194" y="-1" type="move" name="bottom"/>
    </contour>
  </outline>
</glyph>
<glyph name="j" format="1">
  <advance width="350"/>
  <unicode hex="006A"/>
  <outline>
    <contour>
      <point x="38" y="545" type="curve"/>
      <point x="38" y="499"/>
      <point x="38" y="424"/>
      <point x="38" y="378" type="curve" smooth="yes"/>
      <point x="38" y="372"/>
      <point x="43" y="366"/>
      <point x="49" y="366" type="curve" smooth="yes"/>
      <point x="151" y="366"/>
      <point x="126" y="366"/>
      <point x="228" y="366" type="curve"/>
      <point x="228" y="426"/>
      <point x="206" y="545"/>
      <point x="152" y="545" type="curve" smooth="yes"/>
      <point x="69" y="545"/>
      <point x="121" y="545"/>
    </contour>
    <contour>
      <point x="290" y="-22" type="curve" smooth="yes"/>
      <point x="290" y="534" type="line" smooth="yes"/>
      <point x="290" y="537"/>
      <point x="289" y="540"/>
      <point x="287" y="542" type="curve" smooth="yes"/>
      <point x="285" y="544"/>
      <point x="282" y="545"/>
      <point x="279" y="545" type="curve" smooth="yes"/>
      <point x="102" y="545" type="line"/>
      <point x="102" y="-20" type="line" smooth="yes"/>
      <point x="102" y="-82"/>
      <point x="100" y="-129"/>
      <point x="82" y="-182" type="curve"/>
      <point x="194" y="-198"/>
      <point x="290" y="-144"/>
    </contour>
    <contour>
      <point x="56" y="-71" type="curve" smooth="yes"/>
      <point x="42" y="-71"/>
      <point x="31" y="-69"/>
      <point x="15" y="-62" type="curve"/>
      <point x="-5" y="-62" type="line"/>
      <point x="-5" y="-112"/>
      <point x="-5" y="-174"/>
      <point x="-5" y="-226" type="curve" smooth="yes"/>
      <point x="-5" y="-228"/>
      <point x="-4" y="-232"/>
      <point x="-2" y="-234" type="curve" smooth="yes"/>
      <point x="5" y="-241"/>
      <point x="37" y="-250"/>
      <point x="80" y="-250" type="curve" smooth="yes"/>
      <point x="210" y="-250"/>
      <point x="290" y="-175"/>
      <point x="290" y="-22" type="curve" smooth="yes"/>
      <point x="290" y="-2"/>
      <point x="278" y="4"/>
      <point x="102" y="-20" type="curve"/>
      <point x="102" y="-58"/>
      <point x="87" y="-71"/>
    </contour>
    <contour>
      <point x="300" y="632" type="curve"/>
      <point x="300" y="774" type="line" smooth="yes"/>
      <point x="300" y="780"/>
      <point x="295" y="785"/>
      <point x="289" y="785" type="curve" smooth="yes"/>
      <point x="233" y="785"/>
      <point x="141" y="785"/>
      <point x="85" y="785" type="curve"/>
      <point x="85" y="644" type="line" smooth="yes"/>
      <point x="85" y="638"/>
      <point x="90" y="632"/>
      <point x="96" y="632" type="curve" smooth="yes"/>
      <point x="152" y="632"/>
      <point x="244" y="632"/>
    </contour>
  </outline>
</glyph>
<glyph name="l" format="1">
  <advance width="300"/>
  <unicode hex="006C"/>
  <outline>
    <contour>
      <point x="48" y="615" type="curve"/>
      <point x="48" y="142" type="line" smooth="yes"/>
      <point x="48" y="74"/>
      <point x="115" y="43"/>
      <point x="235" y="67" type="curve"/>
      <point x="235" y="107"/>
      <point x="235" y="151"/>
      <point x="235" y="192" type="curve" smooth="yes"/>
      <point x="235" y="739" type="line" smooth="yes"/>
      <point x="235" y="742"/>
      <point x="234" y="745"/>
      <point x="232" y="747" type="curve" smooth="yes"/>
      <point x="230" y="749"/>
      <point x="227" y="750"/>
      <point x="224" y="750" type="curve" smooth="yes"/>
      <point x="166" y="750"/>
      <point x="106" y="750"/>
      <point x="48" y="750" type="curve"/>
      <point x="48" y="705"/>
      <point x="48" y="660"/>
    </contour>
    <contour>
      <point x="290" y="176" type="curve"/>
      <point x="275" y="176" type="line"/>
      <point x="268" y="176"/>
      <point x="257" y="176"/>
      <point x="250" y="176" type="curve" smooth="yes"/>
      <point x="241" y="176"/>
      <point x="235" y="181"/>
      <point x="235" y="192" type="curve"/>
      <point x="82" y="177"/>
      <point x="48" y="158"/>
      <point x="48" y="142" type="curve" smooth="yes"/>
      <point x="48" y="43"/>
      <point x="113" y="0"/>
      <point x="192" y="0" type="curve" smooth="yes"/>
      <point x="279" y="0" type="line" smooth="yes"/>
      <point x="282" y="0"/>
      <point x="285" y="1"/>
      <point x="287" y="3" type="curve" smooth="yes"/>
      <point x="289" y="5"/>
      <point x="290" y="8"/>
      <point x="290" y="11" type="curve" smooth="yes"/>
      <point x="290" y="56"/>
      <point x="290" y="130"/>
    </contour>
    <contour>
      <point x="318" y="711" type="move" name="caronslovak"/>
    </contour>
    <contour>
      <point x="144" y="730" type="move" name="top"/>
    </contour>
    <contour>
      <point x="318" y="400" type="move" name="dot"/>
    </contour>
    <contour>
      <point x="168" y="-1" type="move" name="bottom"/>
    </contour>
  </outline>
</glyph>
<glyph name="m" format="1">
  <advance width="850"/>
  <unicode hex="006D"/>
  <outline>
    <contour>
      <point x="235" y="0" type="curve"/>
      <point x="235" y="534" type="line" smooth="yes"/>
      <point x="235" y="537"/>
      <point x="234" y="540"/>
      <point x="232" y="542" type="curve" smooth="yes"/>
      <point x="230" y="544"/>
      <point x="227" y="545"/>
      <point x="224" y="545" type="curve" smooth="yes"/>
      <point x="179" y="545"/>
      <point x="107" y="545"/>
      <point x="52" y="545" type="curve"/>
      <point x="52" y="517"/>
      <point x="52" y="483"/>
      <point x="52" y="447" type="curve" smooth="yes"/>
      <point x="52" y="11" type="line" smooth="yes"/>
      <point x="52" y="5"/>
      <point x="58" y="0"/>
      <point x="64" y="0" type="curve" smooth="yes"/>
      <point x="113" y="0"/>
      <point x="186" y="0"/>
    </contour>
    <contour>
      <point x="384" y="556" type="curve" smooth="yes"/>
      <point x="325" y="556"/>
      <point x="274" y="515"/>
      <point x="228" y="459" type="curve" smooth="yes"/>
      <point x="204" y="429"/>
      <point x="198" y="387"/>
      <point x="217" y="322" type="curve"/>
      <point x="252" y="368"/>
      <point x="283" y="380"/>
      <point x="310" y="380" type="curve" smooth="yes"/>
      <point x="327" y="380"/>
      <point x="336" y="369"/>
      <point x="336" y="351" type="curve"/>
      <point x="438" y="351"/>
      <point x="514" y="378"/>
      <point x="514" y="408" type="curve" smooth="yes"/>
      <point x="514" y="504"/>
      <point x="458" y="556"/>
    </contour>
    <contour>
      <point x="514" y="0" type="curve"/>
      <point x="514" y="408" type="line"/>
      <point x="514" y="426"/>
      <point x="442" y="445"/>
      <point x="336" y="445" type="curve"/>
      <point x="336" y="414"/>
      <point x="336" y="382"/>
      <point x="336" y="351" type="curve" smooth="yes"/>
      <point x="336" y="11" type="line" smooth="yes"/>
      <point x="336" y="5"/>
      <point x="342" y="0"/>
      <point x="348" y="0" type="curve" smooth="yes"/>
      <point x="403" y="0"/>
      <point x="458" y="0"/>
    </contour>
    <contour>
      <point x="662" y="556" type="curve" smooth="yes"/>
      <point x="602" y="556"/>
      <point x="542" y="516"/>
      <point x="492" y="454" type="curve" smooth="yes"/>
      <point x="469" y="425"/>
      <point x="470" y="388"/>
      <point x="488" y="322" type="curve"/>
      <point x="527" y="366"/>
      <point x="560" y="380"/>
      <point x="587" y="380" type="curve" smooth="yes"/>
      <point x="606" y="380"/>
      <point x="615" y="369"/>
      <point x="615" y="351" type="curve"/>
      <point x="715" y="351"/>
      <point x="798" y="381"/>
      <point x="798" y="407" type="curve" smooth="yes"/>
      <point x="798" y="504"/>
      <point x="740" y="556"/>
    </contour>
    <contour>
      <point x="798" y="0" type="curve"/>
      <point x="798" y="28"/>
      <point x="798" y="62"/>
      <point x="798" y="98" type="curve" smooth="yes"/>
      <point x="798" y="407" type="line"/>
      <point x="798" y="426"/>
      <point x="718" y="445"/>
      <point x="615" y="445" type="curve"/>
      <point x="615" y="413"/>
      <point x="615" y="382"/>
      <point x="615" y="351" type="curve" smooth="yes"/>
      <point x="615" y="11" type="line" smooth="yes"/>
      <point x="615" y="5"/>
      <point x="620" y="0"/>
      <point x="626" y="0" type="curve" smooth="yes"/>
      <point x="682" y="0"/>
      <point x="742" y="0"/>
    </contour>
  </outline>
</glyph>
<glyph name="n" format="1">
  <advance width="600"/>
  <unicode hex="006E"/>
  <outline>
    <contour>
      <point x="245" y="0" type="curve"/>
      <point x="245" y="534" type="line" smooth="yes"/>
      <point x="245" y="537"/>
      <point x="244" y="540"/>
      <point x="242" y="542" type="curve" smooth="yes"/>
      <point x="240" y="544"/>
      <point x="237" y="545"/>
      <point x="234" y="545" type="curve" smooth="yes"/>
      <point x="187" y="545"/>
      <point x="110" y="545"/>
      <point x="52" y="545" type="curve"/>
      <point x="52" y="517"/>
      <point x="52" y="483"/>
      <point x="52" y="447" type="curve" smooth="yes"/>
      <point x="52" y="11" type="line" smooth="yes"/>
      <point x="52" y="5"/>
      <point x="58" y="0"/>
      <point x="64" y="0" type="curve" smooth="yes"/>
      <point x="115" y="0"/>
      <point x="193" y="0"/>
    </contour>
    <contour>
      <point x="408" y="556" type="curve" smooth="yes"/>
      <point x="344" y="556"/>
      <point x="284" y="514"/>
      <point x="234" y="444" type="curve" smooth="yes"/>
      <point x="211" y="414"/>
      <point x="185" y="370"/>
      <point x="197" y="307" type="curve"/>
      <point x="254" y="356"/>
      <point x="288" y="371"/>
      <point x="326" y="371" type="curve" smooth="yes"/>
      <point x="346" y="371"/>
      <point x="355" y="360"/>
      <point x="355" y="340" type="curve"/>
      <point x="528" y="356"/>
      <point x="548" y="374"/>
      <point x="548" y="396" type="curve" smooth="yes"/>
      <point x="548" y="496"/>
      <point x="494" y="556"/>
    </contour>
    <contour>
      <point x="548" y="0" type="curve"/>
      <point x="548" y="28"/>
      <point x="548" y="62"/>
      <point x="548" y="98" type="curve" smooth="yes"/>
      <point x="548" y="396" type="line"/>
      <point x="548" y="432"/>
      <point x="491" y="442"/>
      <point x="348" y="401" type="curve"/>
      <point x="354" y="382"/>
      <point x="355" y="366"/>
      <point x="355" y="340" type="curve" smooth="yes"/>
      <point x="355" y="11" type="line" smooth="yes"/>
      <point x="355" y="5"/>
      <point x="360" y="0"/>
      <point x="366" y="0" type="curve" smooth="yes"/>
      <point x="426" y="0"/>
      <point x="487" y="0"/>
    </contour>
    <contour>
      <point x="100" y="691" type="move" name="caronslovak"/>
    </contour>
    <contour>
      <point x="300" y="556" type="move" name="top"/>
    </contour>
    <contour>
      <point x="300" y="-1" type="move" name="bottom"/>
    </contour>
  </outline>
</glyph>
<glyph name="q" format="1">
  <advance width="600"/>
  <unicode hex="0071"/>
  <outline>
    <contour>
      <point x="212" y="556" type="curve" smooth="yes"/>
      <point x="110" y="556"/>
      <point x="42" y="481"/>
      <point x="42" y="359" type="curve" smooth="yes"/>
      <point x="42" y="165" type="line" smooth="yes"/>
      <point x="42" y="96"/>
      <point x="106" y="61"/>
      <point x="172" y="61" type="curve" smooth="yes"/>
      <point x="220" y="61"/>
      <point x="250" y="74"/>
      <point x="250" y="100" type="curve"/>
      <point x="238" y="124"/>
      <point x="232" y="150"/>
      <point x="232" y="212" type="curve" smooth="yes"/>
      <point x="232" y="324" type="line" smooth="yes"/>
      <point x="232" y="368"/>
      <point x="250" y="388"/>
      <point x="286" y="388" type="curve" smooth="yes"/>
      <point x="322" y="388"/>
      <point x="354" y="365"/>
      <point x="379" y="328" type="curve"/>
      <point x="392" y="344"/>
      <point x="400" y="360"/>
      <point x="400" y="386" type="curve" smooth="yes"/>
      <point x="400" y="443"/>
      <point x="323" y="556"/>
    </contour>
    <contour>
      <point x="194" y="-10" type="curve" smooth="yes"/>
      <point x="251" y="-10"/>
      <point x="304" y="7"/>
      <point x="360" y="66" type="curve" smooth="yes"/>
      <point x="410" y="118"/>
      <point x="430" y="180"/>
      <point x="422" y="223" type="curve"/>
      <point x="363" y="180"/>
      <point x="325" y="162"/>
      <point x="281" y="162" type="curve" smooth="yes"/>
      <point x="245" y="162"/>
      <point x="232" y="181"/>
      <point x="232" y="212" type="curve"/>
      <point x="102" y="220"/>
      <point x="42" y="196"/>
      <point x="42" y="165" type="curve" smooth="yes"/>
      <point x="42" y="60"/>
      <point x="100" y="-10"/>
    </contour>
    <contour>
      <point x="548" y="-200" type="curve"/>
      <point x="548" y="420" type="line" smooth="yes"/>
      <point x="548" y="462"/>
      <point x="548" y="504"/>
      <point x="548" y="545" type="curve"/>
      <point x="488" y="545"/>
      <point x="428" y="545"/>
      <point x="368" y="545" type="curve" smooth="yes"/>
      <point x="366" y="545"/>
      <point x="362" y="544"/>
      <point x="360" y="542" type="curve" smooth="yes"/>
      <point x="358" y="540"/>
      <point x="358" y="537"/>
      <point x="358" y="534" type="curve" smooth="yes"/>
      <point x="358" y="-189" type="line" smooth="yes"/>
      <point x="358" y="-195"/>
      <point x="362" y="-200"/>
      <point x="368" y="-200" type="curve" smooth="yes"/>
      <point x="428" y="-200"/>
      <point x="488" y="-200"/>
    </contour>
  </outline>
</glyph>
<glyph name="s" format="1">
  <advance width="550"/>
  <unicode hex="0073"/>
  <outline>
    <contour>
      <point x="325" y="560" type="curve" smooth="yes"/>
      <point x="312" y="560" type="line" smooth="yes"/>
      <point x="144" y="560"/>
      <point x="44" y="491"/>
      <point x="44" y="378" type="curve" smooth="yes"/>
      <point x="44" y="330"/>
      <point x="118" y="302"/>
      <point x="217" y="302" type="curve"/>
      <point x="217" y="314"/>
      <point x="217" y="352"/>
      <point x="217" y="369" type="curve" smooth="yes"/>
      <point x="217" y="388"/>
      <point x="240" y="398"/>
      <point x="309" y="398" type="curve" smooth="yes"/>
      <point x="376" y="398"/>
      <point x="417" y="386"/>
      <point x="476" y="370" type="curve"/>
      <point x="496" y="370" type="line"/>
      <point x="496" y="424"/>
      <point x="496" y="470"/>
      <point x="496" y="522" type="curve"/>
      <point x="496" y="526"/>
      <point x="495" y="530"/>
      <point x="493" y="532" type="curve" smooth="yes"/>
      <point x="483" y="541"/>
      <point x="418" y="560"/>
    </contour>
    <contour>
      <point x="347" y="330" type="curve" smooth="yes"/>
      <point x="269" y="340" type="line" smooth="yes"/>
      <point x="233" y="344"/>
      <point x="217" y="351"/>
      <point x="217" y="369" type="curve" smooth="yes"/>
      <point x="217" y="395"/>
      <point x="217" y="420"/>
      <point x="217" y="454" type="curve"/>
      <point x="117" y="454"/>
      <point x="44" y="419"/>
      <point x="44" y="378" type="curve"/>
      <point x="44" y="286"/>
      <point x="98" y="238"/>
      <point x="223" y="221" type="curve" smooth="yes"/>
      <point x="296" y="211" type="line" smooth="yes"/>
      <point x="339" y="205"/>
      <point x="349" y="192"/>
      <point x="349" y="180" type="curve" smooth="yes"/>
      <point x="349" y="151"/>
      <point x="349" y="118"/>
      <point x="349" y="84" type="curve"/>
      <point x="455" y="86"/>
      <point x="521" y="121"/>
      <point x="521" y="173" type="curve" smooth="yes"/>
      <point x="521" y="254"/>
      <point x="466" y="316"/>
    </contour>
    <contour>
      <point x="281" y="150" type="curve" smooth="yes"/>
      <point x="180" y="150"/>
      <point x="128" y="156"/>
      <point x="58" y="180" type="curve"/>
      <point x="38" y="180" type="line"/>
      <point x="38" y="133"/>
      <point x="38" y="84"/>
      <point x="38" y="24" type="curve" smooth="yes"/>
      <point x="38" y="21"/>
      <point x="38" y="19"/>
      <point x="40" y="17" type="curve" smooth="yes"/>
      <point x="51" y="6"/>
      <point x="164" y="-15"/>
      <point x="256" y="-15" type="curve" smooth="yes"/>
      <point x="272" y="-15" type="line" smooth="yes"/>
      <point x="434" y="-15"/>
      <point x="521" y="48"/>
      <point x="521" y="173" type="curve" smooth="yes"/>
      <point x="521" y="242"/>
      <point x="442" y="261"/>
      <point x="349" y="261" type="curve"/>
      <point x="349" y="232"/>
      <point x="349" y="199"/>
      <point x="349" y="180" type="curve" smooth="yes"/>
      <point x="349" y="164"/>
      <point x="336" y="150"/>
    </contour>
    <contour>
      <point x="279" y="556" type="move" name="top"/>
    </contour>
    <contour>
      <point x="279" y="-1" type="move" name="bottom"/>
    </contour>
  </outline>
</glyph>
<glyph name="t" format="1">
  <advance width="500"/>
  <unicode hex="0074"/>
  <outline>
    <contour>
      <point x="108" y="700" type="curve"/>
      <point x="108" y="228" type="line" smooth="yes"/>
      <point x="108" y="126"/>
      <point x="192" y="34"/>
      <point x="356" y="66" type="curve"/>
      <point x="310" y="113"/>
      <point x="295" y="168"/>
      <point x="295" y="242" type="curve" smooth="yes"/>
      <point x="295" y="689" type="line" smooth="yes"/>
      <point x="295" y="695"/>
      <point x="290" y="700"/>
      <point x="284" y="700" type="curve" smooth="yes"/>
      <point x="240" y="700"/>
      <point x="156" y="700"/>
    </contour>
    <contour>
      <point x="458" y="176" type="curve"/>
      <point x="438" y="176" type="line"/>
      <point x="406" y="176"/>
      <point x="401" y="176"/>
      <point x="362" y="176" type="curve" smooth="yes"/>
      <point x="314" y="176"/>
      <point x="295" y="192"/>
      <point x="295" y="242" type="curve"/>
      <point x="126" y="255"/>
      <point x="108" y="240"/>
      <point x="108" y="228" type="curve" smooth="yes"/>
      <point x="108" y="73"/>
      <point x="192" y="0"/>
      <point x="343" y="0" type="curve" smooth="yes"/>
      <point x="446" y="0" type="line" smooth="yes"/>
      <point x="450" y="0"/>
      <point x="452" y="1"/>
      <point x="454" y="3" type="curve" smooth="yes"/>
      <point x="456" y="5"/>
      <point x="458" y="8"/>
      <point x="458" y="11" type="curve" smooth="yes"/>
      <point x="458" y="57"/>
      <point x="458" y="130"/>
    </contour>
    <contour>
      <point x="30" y="545" type="line"/>
      <point x="30" y="499"/>
      <point x="30" y="427"/>
      <point x="30" y="381" type="curve" smooth="yes"/>
      <point x="30" y="378"/>
      <point x="31" y="375"/>
      <point x="33" y="373" type="curve" smooth="yes"/>
      <point x="35" y="371"/>
      <point x="38" y="370"/>
      <point x="41" y="370" type="curve"/>
      <point x="458" y="370" type="line"/>
      <point x="458" y="416"/>
      <point x="458" y="488"/>
      <point x="458" y="534" type="curve" smooth="yes"/>
      <point x="458" y="540"/>
      <point x="452" y="545"/>
      <point x="446" y="545" type="curve"/>
    </contour>
    <contour>
      <point x="411" y="711" type="move" name="caronslovak"/>
    </contour>
    <contour>
      <point x="294" y="-1" type="move" name="bottom"/>
    </contour>
  </outline>
</glyph>
<glyph name="v" format="1">
  <advance width="600"/>
  <unicode hex="0076"/>
  <outline>
    <contour>
      <point x="558" y="545" type="curve" smooth="yes"/>
      <point x="386" y="545" type="line"/>
      <point x="358" y="396"/>
      <point x="327" y="250"/>
      <point x="297" y="101" type="curve"/>
      <point x="284" y="38"/>
      <point x="256" y="16"/>
      <point x="218" y="0" type="curve"/>
      <point x="434" y="0" type="line"/>
      <point x="480" y="175"/>
      <point x="525" y="351"/>
      <point x="571" y="526" type="curve"/>
      <point x="574" y="536"/>
      <point x="569" y="545"/>
    </contour>
    <contour>
      <point x="202" y="545" type="curve" smooth="yes"/>
      <point x="24" y="545" type="line"/>
      <point x="70" y="368"/>
      <point x="116" y="192"/>
      <point x="162" y="15" type="curve"/>
      <point x="164" y="5"/>
      <point x="172" y="0"/>
      <point x="182" y="0" type="curve" smooth="yes"/>
      <point x="237" y="0" type="line" smooth="yes"/>
      <point x="306" y="0"/>
      <point x="397" y="65"/>
      <point x="397" y="166" type="curve"/>
      <point x="359" y="166"/>
      <point x="331" y="166"/>
      <point x="303" y="166" type="curve" smooth="yes"/>
      <point x="296" y="166"/>
      <point x="292" y="170"/>
      <point x="290" y="178" type="curve"/>
      <point x="266" y="295"/>
      <point x="243" y="411"/>
      <point x="218" y="528" type="curve"/>
      <point x="216" y="539"/>
      <point x="210" y="545"/>
    </contour>
  </outline>
</glyph>
<glyph name="w" format="1">
  <advance width="800"/>
  <unicode hex="0077"/>
  <outline>
    <contour>
      <point x="23" y="545" type="curve"/>
      <point x="54" y="368"/>
      <point x="86" y="192"/>
      <point x="118" y="15" type="curve"/>
      <point x="120" y="4"/>
      <point x="126" y="0"/>
      <point x="136" y="0" type="curve"/>
      <point x="197" y="0" type="line" smooth="yes"/>
      <point x="238" y="16"/>
      <point x="252" y="32"/>
      <point x="258" y="49" type="curve"/>
      <point x="240" y="208"/>
      <point x="222" y="369"/>
      <point x="204" y="528" type="curve"/>
      <point x="203" y="536"/>
      <point x="202" y="539"/>
      <point x="200" y="542" type="curve" smooth="yes"/>
      <point x="197" y="544"/>
      <point x="194" y="545"/>
      <point x="189" y="545" type="curve"/>
      <point x="137" y="545"/>
      <point x="72" y="545"/>
    </contour>
    <contour>
      <point x="328" y="545" type="curve"/>
      <point x="294" y="397"/>
      <point x="260" y="249"/>
      <point x="226" y="101" type="curve"/>
      <point x="208" y="36"/>
      <point x="199" y="22"/>
      <point x="170" y="0" type="curve"/>
      <point x="329" y="0" type="line"/>
      <point x="367" y="152"/>
      <point x="404" y="304"/>
      <point x="450" y="486" type="curve"/>
      <point x="458" y="528"/>
      <point x="459" y="542"/>
      <point x="458" y="545" type="curve" smooth="yes"/>
      <point x="418" y="545"/>
      <point x="368" y="545"/>
    </contour>
    <contour>
      <point x="354" y="478" type="curve"/>
      <point x="391" y="324"/>
      <point x="428" y="168"/>
      <point x="466" y="14" type="curve"/>
      <point x="468" y="4"/>
      <point x="474" y="0"/>
      <point x="484" y="0" type="curve"/>
      <point x="546" y="0" type="line" smooth="yes"/>
      <point x="568" y="20"/>
      <point x="589" y="30"/>
      <point x="590" y="40" type="curve"/>
      <point x="552" y="204"/>
      <point x="512" y="367"/>
      <point x="474" y="530" type="curve"/>
      <point x="472" y="538"/>
      <point x="466" y="545"/>
      <point x="458" y="545" type="curve" smooth="yes"/>
      <point x="428" y="545"/>
      <point x="402" y="534"/>
    </contour>
    <contour>
      <point x="597" y="545" type="curve"/>
      <point x="581" y="398"/>
      <point x="565" y="252"/>
      <point x="549" y="106" type="curve"/>
      <point x="540" y="48"/>
      <point x="520" y="28"/>
      <point x="507" y="0" type="curve"/>
      <point x="680" y="0" type="line"/>
      <point x="711" y="175"/>
      <point x="742" y="350"/>
      <point x="772" y="525" type="curve"/>
      <point x="775" y="535"/>
      <point x="774" y="540"/>
      <point x="772" y="542" type="curve" smooth="yes"/>
      <point x="770" y="544"/>
      <point x="766" y="545"/>
      <point x="763" y="545" type="curve"/>
      <point x="712" y="545"/>
      <point x="648" y="545"/>
    </contour>
    <contour>
      <point x="398" y="556" type="move" name="top"/>
    </contour>
  </outline>
</glyph>
<glyph name="z" format="1">
  <advance width="550"/>
  <unicode hex="007A"/>
  <outline>
    <contour>
      <point x="45" y="545" type="line"/>
      <point x="45" y="489"/>
      <point x="45" y="433"/>
      <point x="45" y="376" type="curve" smooth="yes"/>
      <point x="45" y="373"/>
      <point x="46" y="370"/>
      <point x="48" y="368" type="curve" smooth="yes"/>
      <point x="50" y="366"/>
      <point x="53" y="365"/>
      <point x="56" y="365" type="curve" smooth="yes"/>
      <point x="330" y="365" type="line" smooth="yes"/>
      <point x="414" y="365"/>
      <point x="444" y="370"/>
      <point x="505" y="385" type="curve"/>
      <point x="505" y="534" type="line" smooth="yes"/>
      <point x="505" y="537"/>
      <point x="504" y="540"/>
      <point x="502" y="542" type="curve" smooth="yes"/>
      <point x="500" y="544"/>
      <point x="497" y="545"/>
      <point x="494" y="545" type="curve" smooth="yes"/>
    </contour>
    <contour>
      <point x="350" y="436" type="curve"/>
      <point x="248" y="342"/>
      <point x="146" y="248"/>
      <point x="45" y="155" type="curve"/>
      <point x="45" y="76"/>
      <point x="114" y="94"/>
      <point x="206" y="112" type="curve" smooth="yes"/>
      <point x="382" y="258"/>
      <point x="505" y="382"/>
      <point x="505" y="385" type="curve"/>
      <point x="505" y="421"/>
      <point x="460" y="436"/>
    </contour>
    <contour>
      <point x="505" y="0" type="line"/>
      <point x="505" y="57"/>
      <point x="505" y="112"/>
      <point x="505" y="169" type="curve"/>
      <point x="505" y="175"/>
      <point x="500" y="180"/>
      <point x="494" y="180" type="curve" smooth="yes"/>
      <point x="249" y="180" type="line" smooth="yes"/>
      <point x="164" y="180"/>
      <point x="110" y="176"/>
      <point x="45" y="155" type="curve"/>
      <point x="45" y="11" type="line" smooth="yes"/>
      <point x="45" y="8"/>
      <point x="46" y="5"/>
      <point x="48" y="3" type="curve" smooth="yes"/>
      <point x="50" y="1"/>
      <point x="53" y="0"/>
      <point x="56" y="0" type="curve" smooth="yes"/>
    </contour>
    <contour>
      <point x="275" y="556" type="move" name="top"/>
    </contour>
  </outline>
</glyph>
<glyph name="braceleft" format="1">
  <advance width="500"/>
  <unicode hex="007B"/>
  <outline>
    <contour>
      <point x="368" y="598" type="curve" smooth="yes"/>
      <point x="418" y="598"/>
      <point x="416" y="598"/>
      <point x="460" y="598" type="curve"/>
      <point x="480" y="598" type="line"/>
      <point x="480" y="650"/>
      <point x="480" y="697"/>
      <point x="480" y="749" type="curve"/>
      <point x="480" y="756"/>
      <point x="476" y="760"/>
      <point x="469" y="760" type="curve" smooth="yes"/>
      <point x="278" y="760" type="line" smooth="yes"/>
      <point x="197" y="760"/>
      <point x="161" y="706"/>
      <point x="161" y="648" type="curve" smooth="yes"/>
      <point x="161" y="642" type="line" smooth="yes"/>
      <point x="161" y="613"/>
      <point x="204" y="608"/>
      <point x="282" y="584" type="curve"/>
      <point x="300" y="595"/>
      <point x="337" y="598"/>
    </contour>
    <contour>
      <point x="379" y="434" type="curve" smooth="yes"/>
      <point x="379" y="510"/>
      <point x="338" y="536"/>
      <point x="338" y="584" type="curve" smooth="yes"/>
      <point x="338" y="596"/>
      <point x="338" y="652"/>
      <point x="338" y="660" type="curve"/>
      <point x="168" y="660"/>
      <point x="161" y="655"/>
      <point x="161" y="644" type="curve" smooth="yes"/>
      <point x="161" y="619" type="line" smooth="yes"/>
      <point x="161" y="530"/>
      <point x="206" y="504"/>
      <point x="206" y="447" type="curve" smooth="yes"/>
      <point x="206" y="406"/>
      <point x="164" y="386"/>
      <point x="86" y="386" type="curve" smooth="yes"/>
      <point x="25" y="386" type="line"/>
      <point x="25" y="281" type="line" smooth="yes"/>
      <point x="25" y="273"/>
      <point x="29" y="270"/>
      <point x="36" y="270" type="curve" smooth="yes"/>
      <point x="82" y="270" type="line" smooth="yes"/>
      <point x="260" y="270"/>
      <point x="379" y="328"/>
    </contour>
    <contour>
      <point x="379" y="166" type="curve" smooth="yes"/>
      <point x="379" y="273"/>
      <point x="261" y="330"/>
      <point x="82" y="330" type="curve" smooth="yes"/>
      <point x="63" y="330"/>
      <point x="44" y="330"/>
      <point x="25" y="330" type="curve"/>
      <point x="25" y="226" type="line" smooth="yes"/>
      <point x="25" y="218"/>
      <point x="29" y="214"/>
      <point x="36" y="214" type="curve" smooth="yes"/>
      <point x="86" y="214" type="line" smooth="yes"/>
      <point x="164" y="214"/>
      <point x="206" y="189"/>
      <point x="206" y="152" type="curve" smooth="yes"/>
      <point x="206" y="92"/>
      <point x="161" y="72"/>
      <point x="161" y="-22" type="curve" smooth="yes"/>
      <point x="161" y="-44" type="line" smooth="yes"/>
      <point x="161" y="-59"/>
      <point x="171" y="-61"/>
      <point x="338" y="-61" type="curve"/>
      <point x="338" y="-30"/>
      <point x="338" y="0"/>
      <point x="338" y="16" type="curve" smooth="yes"/>
      <point x="338" y="62"/>
      <point x="379" y="90"/>
    </contour>
    <contour>
      <point x="368" y="2" type="curve" smooth="yes"/>
      <point x="337" y="2"/>
      <point x="300" y="4"/>
      <point x="282" y="16" type="curve"/>
      <point x="192" y="-8"/>
      <point x="161" y="-15"/>
      <point x="161" y="-42" type="curve" smooth="yes"/>
      <point x="161" y="-50" type="line" smooth="yes"/>
      <point x="161" y="-108"/>
      <point x="197" y="-161"/>
      <point x="278" y="-161" type="curve" smooth="yes"/>
      <point x="469" y="-161" type="line" smooth="yes"/>
      <point x="476" y="-161"/>
      <point x="480" y="-157"/>
      <point x="480" y="-150" type="curve"/>
      <point x="480" y="2" type="line"/>
      <point x="460" y="2" type="line"/>
      <point x="416" y="2"/>
      <point x="418" y="2"/>
    </contour>
  </outline>
</glyph>
<glyph name="bar" format="1">
  <advance width="300"/>
  <unicode hex="007C"/>
  <outline>
    <contour>
      <point x="128" y="760" type="curve"/>
      <point x="128" y="723"/>
      <point x="128" y="688"/>
      <point x="128" y="650" type="curve" smooth="yes"/>
      <point x="128" y="-148" type="line" smooth="yes"/>
      <point x="128" y="-154"/>
      <point x="133" y="-160"/>
      <point x="139" y="-160" type="curve" smooth="yes"/>
      <point x="200" y="-160"/>
      <point x="260" y="-160"/>
      <point x="322" y="-160" type="curve"/>
      <point x="322" y="749" type="line" smooth="yes"/>
      <point x="322" y="752"/>
      <point x="321" y="755"/>
      <point x="319" y="757" type="curve" smooth="yes"/>
      <point x="317" y="759"/>
      <point x="314" y="760"/>
      <point x="311" y="760" type="curve" smooth="yes"/>
      <point x="250" y="760"/>
      <point x="190" y="760"/>
    </contour>
  </outline>
</glyph>
<glyph name="braceright" format="1">
  <advance width="500"/>
  <unicode hex="007D"/>
  <outline>
    <contour>
      <point x="132" y="22" type="curve" smooth="yes"/>
      <point x="82" y="22"/>
      <point x="84" y="22"/>
      <point x="40" y="22" type="curve"/>
      <point x="20" y="22" type="line"/>
      <point x="20" y="-30"/>
      <point x="20" y="-78"/>
      <point x="20" y="-130" type="curve"/>
      <point x="20" y="-137"/>
      <point x="24" y="-141"/>
      <point x="31" y="-141" type="curve" smooth="yes"/>
      <point x="222" y="-141" type="line" smooth="yes"/>
      <point x="303" y="-141"/>
      <point x="339" y="-88"/>
      <point x="339" y="-30" type="curve" smooth="yes"/>
      <point x="339" y="-22" type="line" smooth="yes"/>
      <point x="339" y="6"/>
      <point x="296" y="12"/>
      <point x="218" y="36" type="curve"/>
      <point x="200" y="24"/>
      <point x="163" y="22"/>
    </contour>
    <contour>
      <point x="121" y="186" type="curve" smooth="yes"/>
      <point x="121" y="108"/>
      <point x="162" y="82"/>
      <point x="162" y="36" type="curve" smooth="yes"/>
      <point x="162" y="23"/>
      <point x="162" y="-34"/>
      <point x="162" y="-41" type="curve"/>
      <point x="332" y="-41"/>
      <point x="339" y="-36"/>
      <point x="339" y="-24" type="curve" smooth="yes"/>
      <point x="339" y="0" type="line" smooth="yes"/>
      <point x="339" y="90"/>
      <point x="294" y="115"/>
      <point x="294" y="172" type="curve" smooth="yes"/>
      <point x="294" y="212"/>
      <point x="336" y="234"/>
      <point x="414" y="234" type="curve" smooth="yes"/>
      <point x="475" y="234" type="line"/>
      <point x="475" y="338" type="line" smooth="yes"/>
      <point x="475" y="346"/>
      <point x="471" y="349"/>
      <point x="464" y="349" type="curve" smooth="yes"/>
      <point x="418" y="349" type="line" smooth="yes"/>
      <point x="240" y="349"/>
      <point x="121" y="291"/>
    </contour>
    <contour>
      <point x="121" y="453" type="curve" smooth="yes"/>
      <point x="121" y="346"/>
      <point x="239" y="289"/>
      <point x="418" y="289" type="curve" smooth="yes"/>
      <point x="437" y="289"/>
      <point x="456" y="289"/>
      <point x="475" y="289" type="curve"/>
      <point x="475" y="394" type="line" smooth="yes"/>
      <point x="475" y="401"/>
      <point x="471" y="404"/>
      <point x="464" y="404" type="curve" smooth="yes"/>
      <point x="414" y="404" type="line" smooth="yes"/>
      <point x="336" y="404"/>
      <point x="294" y="430"/>
      <point x="294" y="467" type="curve" smooth="yes"/>
      <point x="294" y="526"/>
      <point x="339" y="548"/>
      <point x="339" y="640" type="curve" smooth="yes"/>
      <point x="339" y="663" type="line" smooth="yes"/>
      <point x="339" y="678"/>
      <point x="329" y="680"/>
      <point x="162" y="680" type="curve"/>
      <point x="162" y="649"/>
      <point x="162" y="620"/>
      <point x="162" y="604" type="curve" smooth="yes"/>
      <point x="162" y="557"/>
      <point x="121" y="528"/>
    </contour>
    <contour>
      <point x="132" y="618" type="curve" smooth="yes"/>
      <point x="163" y="618"/>
      <point x="200" y="615"/>
      <point x="218" y="604" type="curve"/>
      <point x="308" y="628"/>
      <point x="339" y="634"/>
      <point x="339" y="661" type="curve" smooth="yes"/>
      <point x="339" y="668" type="line" smooth="yes"/>
      <point x="339" y="726"/>
      <point x="303" y="780"/>
      <point x="222" y="780" type="curve" smooth="yes"/>
      <point x="31" y="780" type="line" smooth="yes"/>
      <point x="24" y="780"/>
      <point x="20" y="776"/>
      <point x="20" y="769" type="curve"/>
      <point x="20" y="618" type="line"/>
      <point x="40" y="618" type="line"/>
      <point x="84" y="618"/>
      <point x="82" y="618"/>
    </contour>
  </outline>
</glyph>
<glyph name="asciitilde" format="1">
  <advance width="600"/>
  <unicode hex="007E"/>
  <outline>
    <contour>
      <point x="429" y="346" type="curve" smooth="yes"/>
      <point x="344" y="346"/>
      <point x="284" y="446"/>
      <point x="178" y="446" type="curve" smooth="yes"/>
      <point x="125" y="446"/>
      <point x="89" y="430"/>
      <point x="65" y="402" type="curve" smooth="yes"/>
      <point x="57" y="394"/>
      <point x="57" y="388"/>
      <point x="57" y="376" type="curve" smooth="yes"/>
      <point x="57" y="336"/>
      <point x="57" y="256"/>
      <point x="57" y="206" type="curve"/>
      <point x="77" y="206" type="line"/>
      <point x="103" y="239"/>
      <point x="134" y="253"/>
      <point x="171" y="253" type="curve" smooth="yes"/>
      <point x="256" y="253"/>
      <point x="316" y="153"/>
      <point x="422" y="153" type="curve" smooth="yes"/>
      <point x="475" y="153"/>
      <point x="511" y="169"/>
      <point x="535" y="196" type="curve" smooth="yes"/>
      <point x="543" y="205"/>
      <point x="543" y="210"/>
      <point x="543" y="223" type="curve" smooth="yes"/>
      <point x="543" y="262"/>
      <point x="543" y="343"/>
      <point x="543" y="392" type="curve"/>
      <point x="523" y="392" type="line"/>
      <point x="497" y="360"/>
      <point x="466" y="346"/>
    </contour>
  </outline>
</glyph>
<glyph name="exclamdown" format="1">
  <advance width="400"/>
  <unicode hex="00A1"/>
  <outline>
    <contour>
      <point x="249" y="239" type="line"/>
      <point x="234" y="173"/>
      <point x="220" y="108"/>
      <point x="206" y="42" type="curve"/>
      <point x="206" y="-144" type="line" smooth="yes"/>
      <point x="206" y="-152"/>
      <point x="210" y="-156"/>
      <point x="216" y="-156" type="curve" smooth="yes"/>
      <point x="304" y="-156"/>
      <point x="372" y="-156"/>
      <point x="420" y="-156" type="curve"/>
      <point x="420" y="-118"/>
      <point x="420" y="-82"/>
      <point x="420" y="-46" type="curve" smooth="yes"/>
      <point x="420" y="42" type="line"/>
      <point x="380" y="232"/>
      <point x="378" y="232"/>
      <point x="374" y="236" type="curve" smooth="yes"/>
      <point x="372" y="238"/>
      <point x="370" y="239"/>
      <point x="366" y="239" type="curve"/>
    </contour>
    <contour>
      <point x="200" y="556" type="curve"/>
      <point x="200" y="342" type="line" smooth="yes"/>
      <point x="200" y="336"/>
      <point x="206" y="331"/>
      <point x="212" y="331" type="curve" smooth="yes"/>
      <point x="285" y="331"/>
      <point x="351" y="331"/>
      <point x="424" y="331" type="curve"/>
      <point x="424" y="545" type="line" smooth="yes"/>
      <point x="424" y="551"/>
      <point x="420" y="556"/>
      <point x="414" y="556" type="curve" smooth="yes"/>
      <point x="340" y="556"/>
      <point x="274" y="556"/>
    </contour>
  </outline>
</glyph>
<glyph name="sterling" format="1">
  <advance width="600"/>
  <unicode hex="00A3"/>
  <outline>
    <contour>
      <point x="389" y="538" type="curve" smooth="yes"/>
      <point x="442" y="538"/>
      <point x="482" y="530"/>
      <point x="526" y="516" type="curve"/>
      <point x="546" y="516" type="line"/>
      <point x="546" y="568"/>
      <point x="546" y="622"/>
      <point x="546" y="686" type="curve" smooth="yes"/>
      <point x="546" y="688"/>
      <point x="546" y="691"/>
      <point x="544" y="693" type="curve" smooth="yes"/>
      <point x="534" y="702"/>
      <point x="468" y="720"/>
      <point x="370" y="720" type="curve" smooth="yes"/>
      <point x="210" y="720"/>
      <point x="118" y="650"/>
      <point x="118" y="522" type="curve" smooth="yes"/>
      <point x="118" y="500" type="line" smooth="yes"/>
      <point x="118" y="475"/>
      <point x="176" y="468"/>
      <point x="302" y="474" type="curve"/>
      <point x="302" y="520"/>
      <point x="319" y="538"/>
    </contour>
    <contour>
      <point x="118" y="500" type="curve" smooth="yes"/>
      <point x="118" y="409"/>
      <point x="118" y="335"/>
      <point x="118" y="238" type="curve" smooth="yes"/>
      <point x="118" y="192"/>
      <point x="92" y="166"/>
      <point x="52" y="166" type="curve" smooth="yes"/>
      <point x="48" y="166"/>
      <point x="44" y="166"/>
      <point x="39" y="166" type="curve"/>
      <point x="35" y="166" type="line"/>
      <point x="35" y="114"/>
      <point x="35" y="72"/>
      <point x="35" y="11" type="curve" smooth="yes"/>
      <point x="35" y="3"/>
      <point x="39" y="0"/>
      <point x="46" y="0" type="curve" smooth="yes"/>
      <point x="56" y="0" type="line" smooth="yes"/>
      <point x="198" y="0"/>
      <point x="302" y="88"/>
      <point x="302" y="337" type="curve" smooth="yes"/>
      <point x="302" y="392"/>
      <point x="302" y="445"/>
      <point x="302" y="500" type="curve" smooth="yes"/>
      <point x="302" y="541"/>
      <point x="302" y="579"/>
      <point x="302" y="618" type="curve"/>
      <point x="198" y="618"/>
      <point x="118" y="575"/>
    </contour>
    <contour>
      <point x="52" y="0" type="curve"/>
      <point x="231" y="0"/>
      <point x="338" y="0"/>
      <point x="474" y="0" type="curve" smooth="yes"/>
      <point x="554" y="0" type="line" smooth="yes"/>
      <point x="562" y="0"/>
      <point x="565" y="3"/>
      <point x="565" y="11" type="curve"/>
      <point x="565" y="65"/>
      <point x="565" y="117"/>
      <point x="565" y="171" type="curve"/>
      <point x="545" y="171" type="line"/>
      <point x="514" y="171"/>
      <point x="490" y="171"/>
      <point x="451" y="171" type="curve" smooth="yes"/>
      <point x="353" y="171"/>
      <point x="274" y="171"/>
      <point x="138" y="171" type="curve"/>
      <point x="43" y="7"/>
      <point x="47" y="0"/>
    </contour>
    <contour>
      <point x="35" y="425" type="line"/>
      <point x="35" y="374"/>
      <point x="35" y="346"/>
      <point x="35" y="295" type="curve" smooth="yes"/>
      <point x="35" y="292"/>
      <point x="36" y="289"/>
      <point x="38" y="287" type="curve" smooth="yes"/>
      <point x="40" y="285"/>
      <point x="43" y="284"/>
      <point x="46" y="284" type="curve" smooth="yes"/>
      <point x="475" y="284" type="line"/>
      <point x="475" y="336"/>
      <point x="475" y="362"/>
      <point x="475" y="414" type="curve" smooth="yes"/>
      <point x="475" y="420"/>
      <point x="470" y="425"/>
      <point x="464" y="425" type="curve" smooth="yes"/>
    </contour>
  </outline>
</glyph>
<glyph name="yen" format="1">
  <advance width="600"/>
  <unicode hex="00A5"/>
  <outline>
    <contour>
      <point x="10" y="484" type="line"/>
      <point x="10" y="438"/>
      <point x="10" y="405"/>
      <point x="10" y="359" type="curve" smooth="yes"/>
      <point x="10" y="356"/>
      <point x="11" y="353"/>
      <point x="13" y="351" type="curve" smooth="yes"/>
      <point x="15" y="349"/>
      <point x="18" y="348"/>
      <point x="21" y="348" type="curve"/>
      <point x="210" y="348" type="line"/>
      <point x="210" y="394"/>
      <point x="210" y="427"/>
      <point x="210" y="473" type="curve" smooth="yes"/>
      <point x="210" y="479"/>
      <point x="205" y="484"/>
      <point x="199" y="484" type="curve"/>
    </contour>
    <contour>
      <point x="390" y="484" type="line"/>
      <point x="390" y="438"/>
      <point x="390" y="405"/>
      <point x="390" y="359" type="curve" smooth="yes"/>
      <point x="390" y="353"/>
      <point x="395" y="348"/>
      <point x="401" y="348" type="curve"/>
      <point x="590" y="348" type="line"/>
      <point x="590" y="394"/>
      <point x="590" y="427"/>
      <point x="590" y="473" type="curve" smooth="yes"/>
      <point x="590" y="479"/>
      <point x="585" y="484"/>
      <point x="579" y="484" type="curve"/>
    </contour>
    <contour>
      <point x="590" y="114" type="line"/>
      <point x="590" y="160"/>
      <point x="590" y="193"/>
      <point x="590" y="239" type="curve" smooth="yes"/>
      <point x="590" y="242"/>
      <point x="589" y="245"/>
      <point x="587" y="247" type="curve" smooth="yes"/>
      <point x="585" y="249"/>
      <point x="582" y="250"/>
      <point x="579" y="250" type="curve"/>
      <point x="10" y="250" type="line"/>
      <point x="10" y="204"/>
      <point x="10" y="171"/>
      <point x="10" y="125" type="curve" smooth="yes"/>
      <point x="10" y="119"/>
      <point x="15" y="114"/>
      <point x="21" y="114" type="curve"/>
    </contour>
    <contour>
      <point x="15" y="700" type="line"/>
      <point x="80" y="537"/>
      <point x="148" y="373"/>
      <point x="212" y="210" type="curve"/>
      <point x="216" y="200"/>
      <point x="223" y="195"/>
      <point x="233" y="195" type="curve"/>
      <point x="298" y="195"/>
      <point x="334" y="290"/>
      <point x="318" y="350" type="curve"/>
      <point x="284" y="462"/>
      <point x="251" y="573"/>
      <point x="218" y="685" type="curve"/>
      <point x="216" y="696"/>
      <point x="211" y="700"/>
      <point x="202" y="700" type="curve" smooth="yes"/>
    </contour>
    <contour>
      <point x="387" y="700" type="line"/>
      <point x="354" y="583"/>
      <point x="320" y="467"/>
      <point x="287" y="350" type="curve"/>
      <point x="260" y="269"/>
      <point x="248" y="221"/>
      <point x="233" y="195" type="curve"/>
      <point x="382" y="195" type="line"/>
      <point x="447" y="357"/>
      <point x="512" y="519"/>
      <point x="578" y="681" type="curve"/>
      <point x="581" y="691"/>
      <point x="576" y="700"/>
      <point x="565" y="700" type="curve"/>
    </contour>
    <contour>
      <point x="396" y="0" type="curve"/>
      <point x="396" y="32"/>
      <point x="396" y="66"/>
      <point x="396" y="100" type="curve" smooth="yes"/>
      <point x="396" y="289" type="line" smooth="yes"/>
      <point x="396" y="295"/>
      <point x="392" y="300"/>
      <point x="204" y="300" type="curve"/>
      <point x="204" y="11" type="line" smooth="yes"/>
      <point x="204" y="8"/>
      <point x="204" y="5"/>
      <point x="206" y="3" type="curve" smooth="yes"/>
      <point x="208" y="1"/>
      <point x="212" y="0"/>
      <point x="214" y="0" type="curve" smooth="yes"/>
      <point x="276" y="0"/>
      <point x="336" y="0"/>
    </contour>
  </outline>
</glyph>
<glyph name="section" format="1">
  <advance width="600"/>
  <unicode hex="00A7"/>
  <outline>
    <contour>
      <point x="317" y="720" type="curve" smooth="yes"/>
      <point x="162" y="720"/>
      <point x="51" y="634"/>
      <point x="51" y="518" type="curve" smooth="yes"/>
      <point x="51" y="476" type="line" smooth="yes"/>
      <point x="51" y="446"/>
      <point x="89" y="428"/>
      <point x="230" y="408" type="curve"/>
      <point x="230" y="442"/>
      <point x="230" y="478"/>
      <point x="230" y="506" type="curve" smooth="yes"/>
      <point x="230" y="546"/>
      <point x="268" y="556"/>
      <point x="327" y="556" type="curve" smooth="yes"/>
      <point x="366" y="556"/>
      <point x="414" y="545"/>
      <point x="452" y="526" type="curve"/>
      <point x="538" y="638"/>
      <point x="540" y="646"/>
      <point x="540" y="657" type="curve" smooth="yes"/>
      <point x="540" y="668"/>
      <point x="540" y="671"/>
      <point x="534" y="676" type="curve" smooth="yes"/>
      <point x="516" y="695"/>
      <point x="438" y="720"/>
    </contour>
    <contour>
      <point x="386" y="414" type="curve" smooth="yes"/>
      <point x="289" y="438" type="line" smooth="yes"/>
      <point x="238" y="452"/>
      <point x="230" y="465"/>
      <point x="230" y="492" type="curve" smooth="yes"/>
      <point x="230" y="518"/>
      <point x="230" y="544"/>
      <point x="230" y="570" type="curve"/>
      <point x="90" y="542"/>
      <point x="51" y="534"/>
      <point x="51" y="476" type="curve" smooth="yes"/>
      <point x="51" y="402"/>
      <point x="84" y="334"/>
      <point x="232" y="297" type="curve" smooth="yes"/>
      <point x="322" y="274" type="line" smooth="yes"/>
      <point x="372" y="260"/>
      <point x="380" y="245"/>
      <point x="380" y="225" type="curve" smooth="yes"/>
      <point x="380" y="206" type="line" smooth="yes"/>
      <point x="380" y="186"/>
      <point x="373" y="155"/>
      <point x="354" y="104" type="curve"/>
      <point x="388" y="104"/>
      <point x="414" y="104"/>
      <point x="437" y="104" type="curve" smooth="yes"/>
      <point x="504" y="104"/>
      <point x="558" y="159"/>
      <point x="558" y="230" type="curve" smooth="yes"/>
      <point x="558" y="244" type="line" smooth="yes"/>
      <point x="558" y="330"/>
      <point x="517" y="381"/>
    </contour>
    <contour>
      <point x="386" y="166" type="curve" smooth="yes"/>
      <point x="288" y="190" type="line" smooth="yes"/>
      <point x="238" y="204"/>
      <point x="230" y="217"/>
      <point x="230" y="244" type="curve" smooth="yes"/>
      <point x="230" y="262" type="line" smooth="yes"/>
      <point x="230" y="296"/>
      <point x="237" y="323"/>
      <point x="254" y="355" type="curve"/>
      <point x="219" y="355"/>
      <point x="194" y="355"/>
      <point x="172" y="355" type="curve" smooth="yes"/>
      <point x="105" y="355"/>
      <point x="51" y="300"/>
      <point x="51" y="231" type="curve" smooth="yes"/>
      <point x="51" y="217" type="line" smooth="yes"/>
      <point x="51" y="143"/>
      <point x="84" y="86"/>
      <point x="232" y="49" type="curve" smooth="yes"/>
      <point x="322" y="26" type="line" smooth="yes"/>
      <point x="372" y="12"/>
      <point x="380" y="-3"/>
      <point x="380" y="-23" type="curve" smooth="yes"/>
      <point x="380" y="-51"/>
      <point x="380" y="-80"/>
      <point x="380" y="-108" type="curve"/>
      <point x="503" y="-88"/>
      <point x="558" y="-58"/>
      <point x="558" y="-16" type="curve"/>
      <point x="558" y="75"/>
      <point x="517" y="133"/>
    </contour>
    <contour>
      <point x="278" y="-250" type="curve" smooth="yes"/>
      <point x="451" y="-250"/>
      <point x="558" y="-175"/>
      <point x="558" y="-58" type="curve" smooth="yes"/>
      <point x="558" y="-16" type="line" smooth="yes"/>
      <point x="558" y="1"/>
      <point x="512" y="14"/>
      <point x="380" y="27" type="curve"/>
      <point x="380" y="-2"/>
      <point x="380" y="-11"/>
      <point x="380" y="-32" type="curve" smooth="yes"/>
      <point x="380" y="-56"/>
      <point x="358" y="-77"/>
      <point x="286" y="-77" type="curve" smooth="yes"/>
      <point x="194" y="-77"/>
      <point x="129" y="-58"/>
      <point x="65" y="-20" type="curve"/>
      <point x="45" y="-20" type="line"/>
      <point x="45" y="-58"/>
      <point x="45" y="-126"/>
      <point x="45" y="-188" type="curve" smooth="yes"/>
      <point x="45" y="-190"/>
      <point x="46" y="-194"/>
      <point x="48" y="-196" type="curve" smooth="yes"/>
      <point x="82" y="-230"/>
      <point x="178" y="-250"/>
    </contour>
    <contour>
      <point x="540" y="498" type="curve"/>
      <point x="540" y="657" type="line" smooth="yes"/>
      <point x="540" y="672"/>
      <point x="528" y="677"/>
      <point x="370" y="677" type="curve"/>
      <point x="370" y="662"/>
      <point x="370" y="640"/>
      <point x="370" y="617" type="curve" smooth="yes"/>
      <point x="370" y="508" type="line" smooth="yes"/>
      <point x="370" y="502"/>
      <point x="372" y="500"/>
      <point x="374" y="500" type="curve" smooth="yes"/>
      <point x="374" y="498"/>
      <point x="376" y="498"/>
      <point x="380" y="498" type="curve" smooth="yes"/>
      <point x="434" y="498"/>
      <point x="487" y="498"/>
    </contour>
  </outline>
</glyph>
<glyph name="dieresis" format="1">
  <advance width="600"/>
  <unicode hex="00A8"/>
  <outline>
    <contour>
      <point x="268" y="611" type="curve"/>
      <point x="268" y="757" type="line" smooth="yes"/>
      <point x="268" y="763"/>
      <point x="263" y="768"/>
      <point x="257" y="768" type="curve" smooth="yes"/>
      <point x="209" y="768"/>
      <point x="150" y="768"/>
      <point x="102" y="768" type="curve"/>
      <point x="102" y="622" type="line" smooth="yes"/>
      <point x="102" y="616"/>
      <point x="107" y="611"/>
      <point x="113" y="611" type="curve" smooth="yes"/>
      <point x="161" y="611"/>
      <point x="220" y="611"/>
    </contour>
    <contour>
      <point x="498" y="611" type="curve"/>
      <point x="498" y="757" type="line" smooth="yes"/>
      <point x="498" y="763"/>
      <point x="493" y="768"/>
      <point x="487" y="768" type="curve" smooth="yes"/>
      <point x="439" y="768"/>
      <point x="380" y="768"/>
      <point x="332" y="768" type="curve"/>
      <point x="332" y="622" type="line" smooth="yes"/>
      <point x="332" y="616"/>
      <point x="337" y="611"/>
      <point x="343" y="611" type="curve" smooth="yes"/>
      <point x="391" y="611"/>
      <point x="450" y="611"/>
    </contour>
  </outline>
</glyph>
<glyph name="registered" format="1">
  <advance width="600"/>
  <unicode hex="00AE"/>
  <outline>
    <contour>
      <point x="275" y="327" type="curve"/>
      <point x="275" y="352"/>
      <point x="275" y="376"/>
      <point x="275" y="401" type="curve"/>
      <point x="275" y="602" type="line"/>
      <point x="275" y="603"/>
      <point x="275" y="608"/>
      <point x="186" y="608" type="curve"/>
      <point x="186" y="338" type="line" smooth="yes"/>
      <point x="186" y="331"/>
      <point x="190" y="327"/>
      <point x="196" y="327" type="curve" smooth="yes"/>
      <point x="223" y="327"/>
      <point x="248" y="327"/>
    </contour>
    <contour>
      <point x="166" y="635" type="curve"/>
      <point x="166" y="612"/>
      <point x="166" y="594"/>
      <point x="166" y="572" type="curve"/>
      <point x="166" y="564"/>
      <point x="170" y="560"/>
      <point x="176" y="560" type="curve"/>
      <point x="182" y="560"/>
      <point x="192" y="560"/>
      <point x="198" y="560" type="curve" smooth="yes"/>
      <point x="234" y="560"/>
      <point x="282" y="560"/>
      <point x="317" y="560" type="curve" smooth="yes"/>
      <point x="354" y="560"/>
      <point x="373" y="560"/>
      <point x="393" y="560" type="curve"/>
      <point x="393" y="606"/>
      <point x="367" y="635"/>
      <point x="324" y="635" type="curve" smooth="yes"/>
      <point x="277" y="635"/>
      <point x="211" y="635"/>
    </contour>
    <contour>
      <point x="430" y="508" type="curve" smooth="yes"/>
      <point x="430" y="545" type="line" smooth="yes"/>
      <point x="430" y="602"/>
      <point x="395" y="635"/>
      <point x="324" y="635" type="curve"/>
      <point x="312" y="635"/>
      <point x="307" y="635"/>
      <point x="317" y="560" type="curve"/>
      <point x="335" y="560"/>
      <point x="344" y="554"/>
      <point x="344" y="536" type="curve" smooth="yes"/>
      <point x="344" y="518" type="line" smooth="yes"/>
      <point x="344" y="503"/>
      <point x="333" y="494"/>
      <point x="318" y="494" type="curve" smooth="yes"/>
      <point x="299" y="494"/>
      <point x="253" y="494"/>
      <point x="239" y="494" type="curve"/>
      <point x="239" y="472"/>
      <point x="239" y="453"/>
      <point x="239" y="427" type="curve" smooth="yes"/>
      <point x="239" y="424"/>
      <point x="242" y="421"/>
      <point x="245" y="421" type="curve" smooth="yes"/>
      <point x="344" y="421" type="line" smooth="yes"/>
      <point x="398" y="421"/>
      <point x="430" y="458"/>
    </contour>
    <contour>
      <point x="368" y="477" type="line"/>
      <point x="318" y="477"/>
      <point x="295" y="448"/>
      <point x="300" y="434" type="curve" smooth="yes"/>
      <point x="323" y="372" type="line" smooth="yes"/>
      <point x="336" y="336"/>
      <point x="359" y="324"/>
      <point x="403" y="324" type="curve" smooth="yes"/>
      <point x="420" y="324" type="line" smooth="yes"/>
      <point x="428" y="324"/>
      <point x="431" y="328"/>
      <point x="431" y="335" type="curve"/>
      <point x="431" y="351"/>
      <point x="431" y="379"/>
      <point x="431" y="401" type="curve"/>
      <point x="428" y="401" type="line"/>
      <point x="423" y="401"/>
      <point x="418" y="401"/>
      <point x="412" y="401" type="curve"/>
      <point x="400" y="401"/>
      <point x="397" y="403"/>
      <point x="393" y="413" type="curve" smooth="yes"/>
    </contour>
    <contour>
      <point x="300" y="760" type="curve" smooth="yes"/>
      <point x="108" y="760"/>
      <point x="31" y="685"/>
      <point x="31" y="543" type="curve" smooth="yes"/>
      <point x="31" y="417" type="line" smooth="yes"/>
      <point x="31" y="275"/>
      <point x="108" y="200"/>
      <point x="300" y="200" type="curve" smooth="yes"/>
      <point x="300" y="200"/>
      <point x="316" y="215"/>
      <point x="300" y="270" type="curve"/>
      <point x="146" y="270"/>
      <point x="107" y="326"/>
      <point x="107" y="411" type="curve" smooth="yes"/>
      <point x="107" y="551" type="line" smooth="yes"/>
      <point x="107" y="636"/>
      <point x="146" y="690"/>
      <point x="300" y="690" type="curve" smooth="yes"/>
      <point x="353" y="690"/>
      <point x="386" y="690"/>
      <point x="432" y="690" type="curve"/>
      <point x="432" y="728"/>
      <point x="398" y="760"/>
    </contour>
    <contour>
      <point x="300" y="200" type="curve" smooth="yes"/>
      <point x="498" y="200"/>
      <point x="569" y="275"/>
      <point x="569" y="417" type="curve" smooth="yes"/>
      <point x="569" y="543" type="line" smooth="yes"/>
      <point x="569" y="685"/>
      <point x="498" y="760"/>
      <point x="300" y="760" type="curve" smooth="yes"/>
      <point x="300" y="760"/>
      <point x="284" y="744"/>
      <point x="300" y="690" type="curve"/>
      <point x="460" y="690"/>
      <point x="493" y="634"/>
      <point x="493" y="549" type="curve" smooth="yes"/>
      <point x="493" y="409" type="line" smooth="yes"/>
      <point x="493" y="325"/>
      <point x="460" y="270"/>
      <point x="300" y="270" type="curve" smooth="yes"/>
      <point x="247" y="270"/>
      <point x="214" y="270"/>
      <point x="168" y="270" type="curve"/>
      <point x="168" y="232"/>
      <point x="202" y="200"/>
    </contour>
  </outline>
</glyph>
<glyph name="degree" format="1">
  <advance width="600"/>
  <unicode hex="00B0"/>
  <outline>
    <contour>
      <point x="300" y="456" type="curve"/>
      <point x="252" y="456"/>
      <point x="225" y="479"/>
      <point x="225" y="518" type="curve" smooth="yes"/>
      <point x="225" y="551" type="line" smooth="yes"/>
      <point x="225" y="591"/>
      <point x="253" y="613"/>
      <point x="300" y="613" type="curve" smooth="yes"/>
      <point x="330" y="613"/>
      <point x="346" y="611"/>
      <point x="366" y="605" type="curve"/>
      <point x="372" y="645"/>
      <point x="364" y="710"/>
      <point x="300" y="710" type="curve"/>
      <point x="194" y="710"/>
      <point x="126" y="652"/>
      <point x="126" y="561" type="curve" smooth="yes"/>
      <point x="126" y="509" type="line" smooth="yes"/>
      <point x="126" y="417"/>
      <point x="194" y="359"/>
      <point x="300" y="359" type="curve"/>
      <point x="309" y="359"/>
      <point x="309" y="430"/>
    </contour>
    <contour>
      <point x="300" y="613" type="curve"/>
      <point x="348" y="613"/>
      <point x="375" y="591"/>
      <point x="375" y="551" type="curve" smooth="yes"/>
      <point x="375" y="518" type="line" smooth="yes"/>
      <point x="375" y="479"/>
      <point x="347" y="456"/>
      <point x="300" y="456" type="curve" smooth="yes"/>
      <point x="270" y="456"/>
      <point x="255" y="458"/>
      <point x="234" y="464" type="curve"/>
      <point x="228" y="426"/>
      <point x="236" y="359"/>
      <point x="300" y="359" type="curve"/>
      <point x="406" y="359"/>
      <point x="474" y="417"/>
      <point x="474" y="509" type="curve" smooth="yes"/>
      <point x="474" y="561" type="line" smooth="yes"/>
      <point x="474" y="652"/>
      <point x="406" y="710"/>
      <point x="300" y="710" type="curve"/>
      <point x="287" y="710"/>
      <point x="290" y="642"/>
    </contour>
  </outline>
</glyph>
<glyph name="plusminus" format="1">
  <advance width="600"/>
  <unicode hex="00B1"/>
  <outline>
    <contour>
      <point x="60" y="460" type="line"/>
      <point x="60" y="414"/>
      <point x="60" y="381"/>
      <point x="60" y="335" type="curve" smooth="yes"/>
      <point x="60" y="332"/>
      <point x="61" y="329"/>
      <point x="63" y="327" type="curve" smooth="yes"/>
      <point x="65" y="325"/>
      <point x="68" y="324"/>
      <point x="71" y="324" type="curve"/>
      <point x="540" y="324" type="line"/>
      <point x="540" y="370"/>
      <point x="540" y="403"/>
      <point x="540" y="449" type="curve" smooth="yes"/>
      <point x="540" y="455"/>
      <point x="535" y="460"/>
      <point x="529" y="460" type="curve"/>
    </contour>
    <contour>
      <point x="375" y="229" type="curve"/>
      <point x="375" y="544" type="line" smooth="yes"/>
      <point x="375" y="547"/>
      <point x="374" y="550"/>
      <point x="372" y="552" type="curve" smooth="yes"/>
      <point x="370" y="554"/>
      <point x="367" y="555"/>
      <point x="364" y="555" type="curve" smooth="yes"/>
      <point x="319" y="555"/>
      <point x="280" y="555"/>
      <point x="225" y="555" type="curve"/>
      <point x="225" y="527"/>
      <point x="225" y="493"/>
      <point x="225" y="457" type="curve" smooth="yes"/>
      <point x="225" y="240" type="line" smooth="yes"/>
      <point x="225" y="234"/>
      <point x="230" y="229"/>
      <point x="236" y="229" type="curve" smooth="yes"/>
      <point x="286" y="229"/>
      <point x="325" y="229"/>
    </contour>
    <contour>
      <point x="60" y="165" type="line"/>
      <point x="60" y="119"/>
      <point x="60" y="86"/>
      <point x="60" y="40" type="curve" smooth="yes"/>
      <point x="60" y="37"/>
      <point x="61" y="34"/>
      <point x="63" y="32" type="curve" smooth="yes"/>
      <point x="65" y="30"/>
      <point x="68" y="29"/>
      <point x="71" y="29" type="curve"/>
      <point x="540" y="29" type="line"/>
      <point x="540" y="75"/>
      <point x="540" y="108"/>
      <point x="540" y="154" type="curve" smooth="yes"/>
      <point x="540" y="160"/>
      <point x="535" y="165"/>
      <point x="529" y="165" type="curve"/>
    </contour>
  </outline>
</glyph>
<glyph name="threesuperior" format="1">
  <advance width="600"/>
  <unicode hex="00B3"/>
  <outline>
    <contour>
      <point x="280" y="612" type="curve" smooth="yes"/>
      <point x="317" y="612"/>
      <point x="330" y="607"/>
      <point x="330" y="597" type="curve" smooth="yes"/>
      <point x="330" y="592"/>
      <point x="330" y="584"/>
      <point x="330" y="579" type="curve"/>
      <point x="405" y="580"/>
      <point x="434" y="598"/>
      <point x="434" y="622" type="curve" smooth="yes"/>
      <point x="434" y="630" type="line" smooth="yes"/>
      <point x="434" y="692"/>
      <point x="372" y="711"/>
      <point x="290" y="711" type="curve"/>
      <point x="232" y="711"/>
      <point x="188" y="700"/>
      <point x="178" y="689" type="curve" smooth="yes"/>
      <point x="172" y="684"/>
      <point x="172" y="681"/>
      <point x="172" y="675" type="curve" smooth="yes"/>
      <point x="172" y="649"/>
      <point x="172" y="620"/>
      <point x="172" y="599" type="curve"/>
      <point x="184" y="599" type="line"/>
      <point x="220" y="610"/>
      <point x="244" y="612"/>
    </contour>
    <contour>
      <point x="238" y="528" type="curve" smooth="yes"/>
      <point x="386" y="528"/>
      <point x="434" y="564"/>
      <point x="434" y="622" type="curve" smooth="yes"/>
      <point x="434" y="631"/>
      <point x="415" y="635"/>
      <point x="330" y="635" type="curve"/>
      <point x="330" y="626"/>
      <point x="330" y="614"/>
      <point x="330" y="597" type="curve" smooth="yes"/>
      <point x="330" y="584"/>
      <point x="320" y="576"/>
      <point x="228" y="576" type="curve"/>
      <point x="228" y="568"/>
      <point x="228" y="550"/>
      <point x="228" y="538" type="curve" smooth="yes"/>
      <point x="228" y="532"/>
      <point x="232" y="528"/>
    </contour>
    <contour>
      <point x="238" y="496" type="curve" smooth="yes"/>
      <point x="322" y="496"/>
      <point x="335" y="486"/>
      <point x="335" y="474" type="curve" smooth="yes"/>
      <point x="335" y="464"/>
      <point x="335" y="446"/>
      <point x="335" y="438" type="curve"/>
      <point x="421" y="438"/>
      <point x="438" y="442"/>
      <point x="438" y="458" type="curve" smooth="yes"/>
      <point x="438" y="530"/>
      <point x="362" y="544"/>
      <point x="228" y="544" type="curve"/>
      <point x="228" y="540"/>
      <point x="228" y="522"/>
      <point x="228" y="508" type="curve" smooth="yes"/>
      <point x="228" y="500"/>
      <point x="232" y="496"/>
    </contour>
    <contour>
      <point x="278" y="458" type="curve" smooth="yes"/>
      <point x="238" y="458"/>
      <point x="214" y="463"/>
      <point x="176" y="476" type="curve"/>
      <point x="164" y="476" type="line"/>
      <point x="164" y="448"/>
      <point x="164" y="419"/>
      <point x="164" y="393" type="curve" smooth="yes"/>
      <point x="164" y="387"/>
      <point x="164" y="384"/>
      <point x="168" y="379" type="curve" smooth="yes"/>
      <point x="178" y="370"/>
      <point x="220" y="357"/>
      <point x="285" y="357" type="curve" smooth="yes"/>
      <point x="376" y="357"/>
      <point x="438" y="384"/>
      <point x="438" y="451" type="curve" smooth="yes"/>
      <point x="438" y="458" type="line" smooth="yes"/>
      <point x="438" y="474"/>
      <point x="411" y="499"/>
      <point x="335" y="499" type="curve"/>
      <point x="335" y="493"/>
      <point x="335" y="482"/>
      <point x="335" y="474" type="curve" smooth="yes"/>
      <point x="335" y="465"/>
      <point x="326" y="458"/>
    </contour>
  </outline>
</glyph>
<glyph name="paragraph" format="1">
  <advance width="600"/>
  <unicode hex="00B6"/>
  <outline>
    <contour>
      <point x="355" y="-150" type="curve"/>
      <point x="355" y="619" type="line"/>
      <point x="355" y="625"/>
      <point x="350" y="630"/>
      <point x="344" y="630" type="curve" smooth="yes"/>
      <point x="299" y="630"/>
      <point x="255" y="630"/>
      <point x="210" y="630" type="curve"/>
      <point x="210" y="-139" type="line" smooth="yes"/>
      <point x="210" y="-146"/>
      <point x="214" y="-150"/>
      <point x="221" y="-150" type="curve" smooth="yes"/>
      <point x="266" y="-150"/>
      <point x="310" y="-150"/>
    </contour>
    <contour>
      <point x="532" y="-150" type="curve"/>
      <point x="532" y="-118"/>
      <point x="532" y="-80"/>
      <point x="532" y="-40" type="curve" smooth="yes"/>
      <point x="532" y="619" type="line" smooth="yes"/>
      <point x="532" y="625"/>
      <point x="528" y="630"/>
      <point x="522" y="630" type="curve" smooth="yes"/>
      <point x="488" y="630"/>
      <point x="456" y="630"/>
      <point x="422" y="630" type="curve"/>
      <point x="422" y="-139" type="line" smooth="yes"/>
      <point x="422" y="-146"/>
      <point x="426" y="-150"/>
      <point x="433" y="-150" type="curve" smooth="yes"/>
      <point x="466" y="-150"/>
      <point x="499" y="-150"/>
    </contour>
    <contour>
      <point x="258" y="700" type="line" smooth="yes"/>
      <point x="124" y="700"/>
      <point x="31" y="631"/>
      <point x="31" y="488" type="curve" smooth="yes"/>
      <point x="31" y="402" type="line" smooth="yes"/>
      <point x="31" y="294"/>
      <point x="98" y="218"/>
      <point x="199" y="218" type="curve" smooth="yes"/>
      <point x="326" y="218" type="line" smooth="yes"/>
      <point x="336" y="218"/>
      <point x="341" y="224"/>
      <point x="342" y="350" type="curve"/>
      <point x="325" y="350" type="line" smooth="yes"/>
      <point x="297" y="350"/>
      <point x="269" y="369"/>
      <point x="269" y="412" type="curve" smooth="yes"/>
      <point x="269" y="472" type="line" smooth="yes"/>
      <point x="269" y="518"/>
      <point x="295" y="538"/>
      <point x="334" y="538" type="curve" smooth="yes"/>
      <point x="410" y="538"/>
      <point x="505" y="538"/>
      <point x="568" y="538" type="curve"/>
      <point x="579" y="538" type="line"/>
      <point x="579" y="562"/>
      <point x="579" y="580"/>
      <point x="579" y="689" type="curve" smooth="yes"/>
      <point x="579" y="692"/>
      <point x="578" y="695"/>
      <point x="576" y="697" type="curve" smooth="yes"/>
      <point x="574" y="699"/>
      <point x="571" y="700"/>
      <point x="568" y="700" type="curve" smooth="yes"/>
    </contour>
  </outline>
</glyph>
<glyph name="cedilla" format="1">
  <advance width="600"/>
  <unicode hex="00B8"/>
  <outline>
    <contour>
      <point x="424" y="-112" type="curve" smooth="yes"/>
      <point x="424" y="-40"/>
      <point x="360" y="14"/>
      <point x="309" y="28" type="curve"/>
      <point x="314" y="49"/>
      <point x="317" y="66"/>
      <point x="321" y="84" type="curve"/>
      <point x="256" y="84"/>
      <point x="256" y="79"/>
      <point x="252" y="70" type="curve" smooth="yes"/>
      <point x="244" y="52"/>
      <point x="239" y="39"/>
      <point x="228" y="16" type="curve" smooth="yes"/>
      <point x="225" y="8"/>
      <point x="228" y="2"/>
      <point x="236" y="-2" type="curve" smooth="yes"/>
      <point x="274" y="-13"/>
      <point x="286" y="-32"/>
      <point x="286" y="-63" type="curve" smooth="yes"/>
      <point x="286" y="-90"/>
      <point x="266" y="-106"/>
      <point x="231" y="-106" type="curve" smooth="yes"/>
      <point x="205" y="-106"/>
      <point x="188" y="-101"/>
      <point x="171" y="-92" type="curve"/>
      <point x="159" y="-92" type="line"/>
      <point x="159" y="-128"/>
      <point x="159" y="-178"/>
      <point x="159" y="-220" type="curve" smooth="yes"/>
      <point x="159" y="-230"/>
      <point x="184" y="-252"/>
      <point x="258" y="-252" type="curve" smooth="yes"/>
      <point x="375" y="-252"/>
      <point x="424" y="-186"/>
    </contour>
  </outline>
</glyph>
<glyph name="guillemotright" format="1">
  <advance width="600"/>
  <unicode hex="00BB"/>
  <outline>
    <contour>
      <point x="264" y="78" type="line"/>
      <point x="308" y="78"/>
      <point x="340" y="78"/>
      <point x="374" y="78" type="curve" smooth="yes"/>
      <point x="386" y="78"/>
      <point x="391" y="79"/>
      <point x="400" y="88" type="curve" smooth="yes"/>
      <point x="429" y="118"/>
      <point x="515" y="209"/>
      <point x="577" y="275" type="curve"/>
      <point x="577" y="295" type="line"/>
      <point x="577" y="308"/>
      <point x="569" y="311"/>
      <point x="495" y="343" type="curve"/>
      <point x="417" y="260"/>
      <point x="362" y="202"/>
      <point x="264" y="99" type="curve"/>
    </contour>
    <contour>
      <point x="264" y="501" type="line"/>
      <point x="363" y="398"/>
      <point x="412" y="347"/>
      <point x="476" y="278" type="curve"/>
      <point x="565" y="278"/>
      <point x="577" y="280"/>
      <point x="577" y="291" type="curve"/>
      <point x="577" y="315" type="line" smooth="yes"/>
      <point x="577" y="323"/>
      <point x="576" y="327"/>
      <point x="567" y="337" type="curve" smooth="yes"/>
      <point x="547" y="358"/>
      <point x="416" y="495"/>
      <point x="402" y="510" type="curve"/>
      <point x="391" y="521"/>
      <point x="389" y="522"/>
      <point x="376" y="522" type="curve" smooth="yes"/>
      <point x="321" y="522"/>
      <point x="294" y="522"/>
      <point x="264" y="522" type="curve"/>
    </contour>
    <contour>
      <point x="34" y="78" type="line"/>
      <point x="78" y="78"/>
      <point x="110" y="78"/>
      <point x="144" y="78" type="curve" smooth="yes"/>
      <point x="156" y="78"/>
      <point x="161" y="79"/>
      <point x="170" y="88" type="curve" smooth="yes"/>
      <point x="199" y="118"/>
      <point x="285" y="209"/>
      <point x="347" y="275" type="curve"/>
      <point x="347" y="295" type="line"/>
      <point x="347" y="308"/>
      <point x="339" y="311"/>
      <point x="265" y="343" type="curve"/>
      <point x="187" y="260"/>
      <point x="132" y="202"/>
      <point x="34" y="99" type="curve"/>
    </contour>
    <contour>
      <point x="34" y="501" type="line"/>
      <point x="133" y="398"/>
      <point x="182" y="347"/>
      <point x="246" y="278" type="curve"/>
      <point x="335" y="278"/>
      <point x="347" y="280"/>
      <point x="347" y="291" type="curve"/>
      <point x="347" y="315" type="line" smooth="yes"/>
      <point x="347" y="323"/>
      <point x="346" y="327"/>
      <point x="337" y="337" type="curve" smooth="yes"/>
      <point x="317" y="358"/>
      <point x="186" y="495"/>
      <point x="172" y="510" type="curve"/>
      <point x="161" y="521"/>
      <point x="159" y="522"/>
      <point x="146" y="522" type="curve" smooth="yes"/>
      <point x="91" y="522"/>
      <point x="64" y="522"/>
      <point x="34" y="522" type="curve"/>
    </contour>
  </outline>
</glyph>
